<?xml version="1.0" encoding="utf-8"?>
<!-- Generator: Adobe Illustrator 22.0.1, SVG Export Plug-In . SVG Version: 6.00 Build 0)  -->
<svg version="1.1" id="Layer_1" xmlns="http://www.w3.org/2000/svg" xmlns:xlink="http://www.w3.org/1999/xlink" x="0px" y="0px"
	 viewBox="0 0 300 300" style="enable-background:new 0 0 300 300;" xml:space="preserve">
<style type="text/css">
	.st0{fill:url(#SVGID_1_);}
	.st1{fill:url(#SVGID_2_);}
	.st2{fill:url(#SVGID_3_);}
	.st3{fill:url(#SVGID_4_);}
	.st4{fill:url(#SVGID_5_);}
	.st5{fill:url(#SVGID_6_);}
	.st6{fill:url(#SVGID_7_);}
	.st7{fill:url(#SVGID_8_);}
	.st8{fill:url(#SVGID_9_);}
	.st9{fill:url(#SVGID_10_);}
	.st10{fill:url(#SVGID_11_);}
	.st11{fill:url(#SVGID_12_);}
	.st12{fill:url(#SVGID_13_);}
	.st13{fill:url(#SVGID_14_);}
	.st14{fill:url(#SVGID_15_);}
	.st15{fill:url(#SVGID_16_);}
	.st16{fill:url(#SVGID_17_);}
	.st17{fill:url(#SVGID_18_);}
	.st18{fill:url(#SVGID_19_);}
	.st19{fill:url(#SVGID_20_);}
	.st20{fill:url(#SVGID_21_);}
	.st21{fill:url(#SVGID_22_);}
	.st22{fill:url(#SVGID_23_);}
	.st23{fill:url(#SVGID_24_);}
	.st24{fill:url(#SVGID_25_);}
	.st25{fill:url(#SVGID_26_);}
	.st26{fill:url(#SVGID_27_);}
	.st27{fill:url(#SVGID_28_);}
	.st28{fill:url(#SVGID_29_);}
	.st29{fill:url(#SVGID_30_);}
	.st30{fill:url(#SVGID_31_);}
	.st31{fill:url(#SVGID_32_);}
	.st32{fill:url(#SVGID_33_);}
	.st33{fill:url(#SVGID_34_);}
	.st34{fill:url(#SVGID_35_);}
	.st35{fill:url(#SVGID_36_);}
	.st36{fill:url(#SVGID_37_);}
	.st37{fill:url(#SVGID_38_);}
	.st38{fill:url(#SVGID_39_);}
	.st39{fill:url(#SVGID_40_);}
	.st40{fill:url(#SVGID_41_);}
	.st41{fill:url(#SVGID_42_);}
	.st42{fill:url(#SVGID_43_);}
	.st43{fill:url(#SVGID_44_);}
	.st44{fill:url(#SVGID_45_);}
	.st45{fill:url(#SVGID_46_);}
	.st46{fill:url(#SVGID_47_);}
	.st47{fill:url(#SVGID_48_);}
	.st48{fill:url(#SVGID_49_);}
	.st49{fill:url(#SVGID_50_);}
	.st50{fill:url(#SVGID_51_);}
	.st51{fill:url(#SVGID_52_);}
	.st52{fill:url(#SVGID_53_);}
	.st53{fill:url(#SVGID_54_);}
	.st54{fill:url(#SVGID_55_);}
	.st55{fill:url(#SVGID_56_);}
	.st56{fill:url(#SVGID_57_);}
	.st57{fill:url(#SVGID_58_);}
	.st58{fill:url(#SVGID_59_);}
	.st59{fill:url(#SVGID_60_);}
	.st60{fill:url(#SVGID_61_);}
	.st61{fill:url(#SVGID_62_);}
	.st62{fill:url(#SVGID_63_);}
	.st63{fill:url(#SVGID_64_);}
	.st64{fill:url(#SVGID_65_);}
	.st65{fill:url(#SVGID_66_);}
	.st66{fill:url(#SVGID_67_);}
	.st67{fill:url(#SVGID_68_);}
</style>
<g>
	<g>
		<g>
			<linearGradient id="SVGID_1_" gradientUnits="userSpaceOnUse" x1="342.6833" y1="376.5912" x2="426.8198" y2="376.5912">
				<stop  offset="0" style="stop-color:#00FFD5"/>
				<stop  offset="0.4426" style="stop-color:#C74D8A"/>
				<stop  offset="0.5276" style="stop-color:#EE2A7B"/>
				<stop  offset="1" style="stop-color:#41B7FF"/>
			</linearGradient>
			<path class="st0" d="M384.8,419.7c-0.6,0-1-3-2.3-14.5c-0.8-7-1.9-16.5-3.4-28.6c-1.6-12-2.6-21.5-3.4-28.4
				c-0.9-8.3-1.6-13.8-2-14.3c-0.5,0.5-1.1,6-2,14.3c-0.8,6.9-1.9,16.4-3.4,28.4c-3,22.9-4.2,30.5-5.7,30.5l0,0
				c-1.5,0-2.8-7.6-5.7-30.5c-1.3-9.8-3.3-15.6-5.4-15.6s-4.2,5.8-5.4,15.6l-2.9,8.9l-0.3-0.1l2.9-8.9c1.3-10.1,3.4-15.9,5.7-15.9
				s4.4,5.8,5.7,15.9c2.3,17.7,4,30.2,5.4,30.2c1.4,0,3.1-12.5,5.4-30.2c1.6-12,2.6-21.5,3.4-28.4c1.3-11.6,1.7-14.6,2.3-14.6
				c0.7,0,1,3,2.3,14.6c0.8,6.9,1.9,16.4,3.4,28.4c1.6,12.1,2.6,21.7,3.4,28.6c0.9,8.2,1.5,13.7,2,14.2c0.5-0.5,1.1-6,2-14.2
				c0.8-7,1.9-16.5,3.4-28.6c3-22.9,4.2-30.5,5.7-30.5c1.5,0,2.8,7.6,5.7,30.5c1.7,13.5,3.7,27.8,5.4,27.8c1.7,0,3.7-14.4,5.4-27.8
				c1.9-14.8,4.2-17.9,5.7-17.9c1.6,0,3.8,3.1,5.7,17.9l2.9,8.8l-0.3,0.1l-2.9-8.9c-2.1-16-4.5-17.7-5.4-17.7
				c-0.9,0-3.4,1.7-5.4,17.7c-2.8,21.2-4.2,28.1-5.7,28.1c-1.6,0-3-6.8-5.7-28.1c-2.3-17.7-4-30.2-5.4-30.2
				c-1.4,0-3.1,12.5-5.4,30.2c-1.6,12.1-2.6,21.7-3.4,28.6C385.8,416.7,385.4,419.7,384.8,419.7z"/>
			<linearGradient id="SVGID_2_" gradientUnits="userSpaceOnUse" x1="342.7277" y1="376.5096" x2="426.7751" y2="376.5096">
				<stop  offset="0" style="stop-color:#00FFD5"/>
				<stop  offset="0.4426" style="stop-color:#C74D8A"/>
				<stop  offset="0.5276" style="stop-color:#EE2A7B"/>
				<stop  offset="1" style="stop-color:#41B7FF"/>
			</linearGradient>
			<path class="st1" d="M384.8,416.2L384.8,416.2c-0.7,0-1.1-3.1-2.6-15.2c-0.7-6.1-1.8-14.4-3.1-24.5c-1.3-9.9-2.3-17.8-3.1-24.1
				c-1.1-9-1.8-15-2.4-15.2c-0.5,0.3-1.2,6.2-2.3,15.2c-0.8,6.3-1.7,14.2-3.1,24.1c-3,20.8-4.2,27.3-5.7,27.3l0,0
				c-1.5,0-2.7-6.5-5.7-27.3c-1.3-8.7-3.3-13.9-5.4-13.9c-2.1,0-4.1,5.2-5.4,13.9l-2.8,7.7l-0.3-0.1l2.8-7.7
				c1.3-9,3.4-14.2,5.7-14.2c2.3,0,4.4,5.2,5.7,14.2c2,13.9,3.9,27,5.4,27c1.5,0,3.4-13.1,5.4-27c1.3-9.9,2.3-17.8,3.1-24.1
				c1.5-12.3,1.9-15.5,2.7-15.5c0.7,0,1.2,3.2,2.7,15.5c0.8,6.3,1.7,14.2,3.1,24.1c1.4,10.1,2.4,18.4,3.1,24.5
				c1.1,8.8,1.8,14.6,2.3,14.9c0.5-0.3,1.2-6.1,2.3-14.9c0.7-6.1,1.8-14.4,3.1-24.5c2.7-19.7,4.1-27.9,5.7-27.9
				c1.6,0,3,8.2,5.7,27.9c1.8,13.2,3.8,25.3,5.4,25.3c1.7,0,3.6-12.2,5.4-25.3c1.1-7.4,2.9-16.1,5.7-16.1c2.8,0,4.7,8.8,5.7,16.1
				l2.8,7.7l-0.3,0.1l-2.8-7.7c-2.1-14.3-4.5-15.9-5.4-15.9c-0.9,0-3.3,1.5-5.4,15.8c-2.7,19.2-4.1,25.6-5.7,25.6
				c-1.6,0-3.1-6.5-5.7-25.6c-2.1-15.1-3.9-27.6-5.4-27.6c-1.5,0-3.3,12.5-5.4,27.6c-1.4,10.1-2.4,18.4-3.1,24.5
				C385.9,413,385.5,416.2,384.8,416.2z"/>
			<linearGradient id="SVGID_3_" gradientUnits="userSpaceOnUse" x1="342.7731" y1="376.428" x2="426.7292" y2="376.428">
				<stop  offset="0" style="stop-color:#00FFD5"/>
				<stop  offset="0.4426" style="stop-color:#C74D8A"/>
				<stop  offset="0.5276" style="stop-color:#EE2A7B"/>
				<stop  offset="1" style="stop-color:#41B7FF"/>
			</linearGradient>
			<path class="st2" d="M384.8,412.7c-0.8,0-1.3-3.3-3-15.8c-0.7-5.4-1.6-12.2-2.8-20.4c-1.1-7.9-2-14.5-2.7-19.8
				c-1.3-9.6-2.1-15.9-2.7-16.2c-0.6,0.3-1.4,6.6-2.7,16.2c-0.7,5.3-1.6,11.9-2.7,19.8c-2.9,17.1-4.2,24-5.8,24l0,0
				c-1.6,0-2.9-7-5.8-24c-1.3-7.7-3.3-12.2-5.4-12.2c-2.1,0-4.1,4.6-5.4,12.2l-2.8,6.6l-0.3-0.1l2.8-6.5c1.3-7.9,3.4-12.5,5.7-12.5
				s4.4,4.6,5.8,12.6c2,12.2,4,23.7,5.4,23.7s3.4-11.5,5.4-23.7c1.1-7.9,2-14.5,2.7-19.8c1.7-13.1,2.2-16.5,3.1-16.5
				c0.8,0,1.3,3.4,3.1,16.5c0.7,5.3,1.6,11.9,2.7,19.8c1.2,8.2,2.1,15,2.8,20.4c1.2,9.1,2,15.2,2.6,15.4c0.6-0.3,1.4-6.3,2.6-15.4
				c0.7-5.4,1.6-12.2,2.8-20.4c2.9-19.6,4.2-25.3,5.8-25.3c1.6,0,2.8,5.7,5.8,25.3c1.7,11.3,3.7,22.9,5.4,22.9
				c1.7,0,3.7-11.6,5.4-22.9c1.1-6.5,2.9-14.3,5.8-14.3c2.8,0,4.7,7.8,5.8,14.3l2.8,6.5l-0.3,0.1l-2.8-6.5c-1.5-9-3.4-14.1-5.4-14.1
				c-2,0-3.9,5.1-5.4,14c-2.6,17.1-4.1,23.2-5.8,23.2l0,0c-1.7,0-3.2-6.1-5.8-23.2c-2-13.2-3.8-25-5.4-25c-1.6,0-3.4,11.8-5.4,25
				c-1.2,8.2-2.1,15-2.8,20.4C386,409.4,385.6,412.7,384.8,412.7z"/>
			<linearGradient id="SVGID_4_" gradientUnits="userSpaceOnUse" x1="342.8218" y1="376.3456" x2="426.6805" y2="376.3456">
				<stop  offset="0" style="stop-color:#00FFD5"/>
				<stop  offset="0.4426" style="stop-color:#C74D8A"/>
				<stop  offset="0.5276" style="stop-color:#EE2A7B"/>
				<stop  offset="1" style="stop-color:#41B7FF"/>
			</linearGradient>
			<path class="st3" d="M384.8,409.2c-0.9,0-1.5-3.6-3.3-16.3c-0.6-4.4-1.5-10-2.4-16.4c-0.9-6-1.7-11.3-2.3-15.5
				c-1.5-10.1-2.4-16.9-3.1-17c-0.7,0.2-1.6,6.9-3.1,17c-0.6,4.2-1.4,9.5-2.3,15.5c-2.9,15.1-4.2,20.8-5.8,20.8l0,0
				c-1.6,0-2.8-5.7-5.8-20.8c-1.3-6.6-3.3-10.6-5.4-10.6c-2.1,0-4.1,3.9-5.4,10.6l0,0.1l-2.7,5.4l-0.4-0.2l2.7-5.3
				c1.4-6.9,3.5-10.9,5.8-10.9c2.3,0,4.4,4,5.8,10.9c2.1,11,4,20.5,5.4,20.5c1.4,0,3.2-9.5,5.4-20.5c0.9-6,1.7-11.3,2.3-15.5
				c1.9-13.5,2.5-17.4,3.5-17.4c1,0,1.6,3.9,3.5,17.4c0.6,4.2,1.4,9.5,2.3,15.5c1,6.4,1.8,11.9,2.4,16.4c1.4,9.5,2.3,15.7,2.9,15.9
				c0.6-0.2,1.5-6.5,2.9-15.9c0.6-4.4,1.5-10,2.4-16.4c2.8-17.2,4.2-22.7,5.8-22.7c1.6,0,3,5.5,5.8,22.7c1.6,9.5,3.6,20.4,5.4,20.4
				c1.8,0,3.8-10.9,5.4-20.4c1.5-8.1,3.6-12.5,5.8-12.5c2.2,0,4.3,4.4,5.8,12.5l2.7,5.3l-0.4,0.2l-2.7-5.4
				c-1.4-7.8-3.4-12.2-5.4-12.2c-2,0-3.9,4.5-5.4,12.2c-2.5,15.1-4,20.8-5.8,20.8c-1.7,0-3.3-5.6-5.8-20.8
				c-1.7-10.8-3.7-22.4-5.4-22.4c-1.6,0-3.6,11.6-5.4,22.4c-1,6.4-1.8,11.9-2.4,16.4C386.2,405.5,385.7,409.2,384.8,409.2z"/>
			<linearGradient id="SVGID_5_" gradientUnits="userSpaceOnUse" x1="342.8753" y1="376.264" x2="426.6277" y2="376.264">
				<stop  offset="0" style="stop-color:#00FFD5"/>
				<stop  offset="0.4426" style="stop-color:#C74D8A"/>
				<stop  offset="0.5276" style="stop-color:#EE2A7B"/>
				<stop  offset="1" style="stop-color:#41B7FF"/>
			</linearGradient>
			<path class="st4" d="M384.8,405.7c-1,0-1.7-3.7-3.7-16.7c-0.6-3.6-1.2-7.8-2-12.5c-0.7-4.2-1.3-8-1.8-11.3
				c-1.6-10.4-2.8-17.9-3.6-17.9c-0.8,0-1.9,7.5-3.6,17.9c-0.5,3.3-1.1,7.1-1.8,11.3c-3,13-4.2,17.6-5.8,17.6
				c-1.5,0-2.7-4.6-5.8-17.6c-1.3-5.6-3.3-8.9-5.4-8.9c-2.1,0-4.1,3.3-5.4,8.9l0,0.1l-2.7,4.2l-0.4-0.2l2.6-4.2
				c1.4-5.8,3.5-9.2,5.8-9.2c2.3,0,4.4,3.4,5.8,9.2c2.2,9.6,4,17.2,5.4,17.2c1.3,0,3.1-7.6,5.4-17.2c0.7-4.2,1.3-8,1.8-11.3
				c2.2-14.1,2.9-18.2,4-18.2c1.1,0,1.8,4.1,4,18.2c0.5,3.3,1.1,7.1,1.8,11.3c0.8,4.8,1.5,8.9,2,12.5c1.5,9.5,2.6,16.3,3.3,16.3
				c0.7,0,1.8-6.9,3.3-16.3c0.6-3.6,1.2-7.8,2-12.5c2.7-15.1,4.1-20.1,5.8-20.1c1.7,0,3.1,5.1,5.8,20.1c1.5,8.4,3.5,18,5.4,18
				c1.9,0,3.8-9.6,5.4-18c1.5-6.9,3.6-10.7,5.8-10.7c2.2,0,4.3,3.8,5.8,10.7l2.6,4.2l-0.4,0.2l-2.7-4.3c-1.4-6.6-3.4-10.4-5.4-10.4
				c-2,0-3.9,3.8-5.4,10.4c-2.4,13.2-4,18.3-5.8,18.3s-3.4-5.1-5.8-18.3c-1.8-10.3-3.7-19.8-5.4-19.8c-1.6,0-3.5,9.5-5.4,19.8
				c-0.8,4.7-1.5,8.9-2,12.5C386.4,401.9,385.8,405.7,384.8,405.7z"/>
			<linearGradient id="SVGID_6_" gradientUnits="userSpaceOnUse" x1="342.939" y1="376.1824" x2="426.5638" y2="376.1824">
				<stop  offset="0" style="stop-color:#00FFD5"/>
				<stop  offset="0.4426" style="stop-color:#C74D8A"/>
				<stop  offset="0.5276" style="stop-color:#EE2A7B"/>
				<stop  offset="1" style="stop-color:#41B7FF"/>
			</linearGradient>
			<path class="st5" d="M384.8,402.2c-1.1,0-1.9-3.8-4.2-16.9c-0.5-2.6-1-5.5-1.6-8.8c-0.5-2.6-0.9-5-1.2-7.2
				c-1.9-11.2-3.2-18.6-4.1-18.6c-0.9,0-2.2,7.4-4.1,18.6c-0.4,2.2-0.8,4.6-1.2,7.2c-2.9,10-4.2,14.4-5.8,14.4
				c-1.6,0-2.9-4.4-5.8-14.3c-1.3-4.6-3.3-7.2-5.4-7.2c-2.1,0-4,2.6-5.4,7.2l0,0.1l-2.6,3l-0.3-0.3l2.6-3c1.4-4.7,3.5-7.5,5.8-7.5
				c2.3,0,4.4,2.7,5.8,7.5c2.3,8.1,4,14,5.4,14c1.3,0,3-5.9,5.4-14c0.4-2.6,0.9-4.9,1.2-7.1c2.5-14.8,3.3-19,4.6-19
				c1.2,0,2,4.3,4.6,19c0.4,2.2,0.8,4.6,1.2,7.2c0.6,3.2,1.1,6.1,1.6,8.8c1.7,9.6,3,16.6,3.8,16.6s2.1-7,3.8-16.6
				c0.5-2.6,1-5.5,1.6-8.8c2.5-12.8,4.1-17.6,5.8-17.6c1.7,0,3.3,4.8,5.8,17.6c1.4,6.7,3.4,15.5,5.4,15.5c2,0,4-8.9,5.4-15.5
				c1.5-5.8,3.6-8.9,5.8-8.9c2.2,0,4.3,3.2,5.8,8.9l2.6,3l-0.3,0.3l-2.6-3.1c-1.4-5.5-3.4-8.6-5.4-8.6s-3.9,3.1-5.4,8.6
				c-2.3,11.3-4,15.9-5.8,15.9c-1.8,0-3.5-4.6-5.8-15.9c-1.7-8.5-3.6-17.2-5.4-17.2c-1.7,0-3.7,8.7-5.4,17.2
				c-0.6,3.2-1.1,6.1-1.6,8.8C386.6,398.4,385.9,402.2,384.8,402.2z"/>
			<linearGradient id="SVGID_7_" gradientUnits="userSpaceOnUse" x1="343.0255" y1="376.1" x2="426.4774" y2="376.1">
				<stop  offset="0" style="stop-color:#00FFD5"/>
				<stop  offset="0.4426" style="stop-color:#C74D8A"/>
				<stop  offset="0.5276" style="stop-color:#EE2A7B"/>
				<stop  offset="1" style="stop-color:#41B7FF"/>
			</linearGradient>
			<path class="st6" d="M384.8,398.7c-1.3,0-2.1-3.8-4.8-17c-0.3-1.6-0.7-3.4-1.1-5.2l-0.6-3.1c-2.2-11.6-3.7-19.3-4.7-19.3
				c-1,0-2.5,7.7-4.7,19.3l-0.6,3.1c-3,7.9-4.3,11.1-5.8,11.1c-1.6,0-2.8-3.2-5.8-11.1c-1.3-3.5-3.3-5.5-5.4-5.5c-2.1,0-4,2-5.3,5.5
				l0,0.1l-2.6,1.9L343,378l2.5-1.8c1.4-3.7,3.5-5.8,5.8-5.8c2.3,0,4.4,2.1,5.8,5.8c2.4,6.5,4.1,10.8,5.4,10.8
				c1.3,0,2.9-4.3,5.4-10.8l0.6-3.1c2.9-15,3.8-19.7,5.2-19.7c1.4,0,2.4,4.7,5.2,19.7l0.6,3.1c0.4,1.9,0.7,3.6,1.1,5.2
				c2,10,3.4,16.6,4.3,16.6c0.9,0,2.3-6.6,4.3-16.6c0.3-1.6,0.7-3.4,1.1-5.2c2.4-10.8,4.1-15,5.8-15c1.8,0,3.4,4.2,5.8,15
				c0.8,3.2,3.1,13.1,5.3,13.1s4.6-9.9,5.3-13.1c1.5-4.6,3.6-7.1,5.8-7.1c2.2,0,4.3,2.5,5.8,7l2.5,1.8l-0.3,0.4l-2.6-1.9l0-0.1
				c-1.4-4.3-3.4-6.8-5.3-6.8c-2,0-3.9,2.5-5.3,6.8c-2.2,9.4-4,13.4-5.8,13.4c-1.8,0-3.6-4-5.8-13.5c-1.5-6.8-3.5-14.6-5.3-14.6
				c-1.8,0-3.8,7.8-5.3,14.6c-0.4,1.9-0.7,3.6-1.1,5.2C386.8,394.9,386,398.7,384.8,398.7z"/>
			<linearGradient id="SVGID_8_" gradientUnits="userSpaceOnUse" x1="343.1559" y1="376.0184" x2="426.3471" y2="376.0184">
				<stop  offset="0" style="stop-color:#00FFD5"/>
				<stop  offset="0.4426" style="stop-color:#C74D8A"/>
				<stop  offset="0.5276" style="stop-color:#EE2A7B"/>
				<stop  offset="1" style="stop-color:#41B7FF"/>
			</linearGradient>
			<path class="st7" d="M384.8,395.2c-1.4,0-2.4-4-5.4-16.8l-0.5-2c-2.4-11.1-4.1-19-5.3-19c-1.2,0-2.9,8-5.3,19l0,0.1
				c-2.8,5.2-4.2,7.9-5.8,7.9s-3-2.6-5.8-7.9c-1.3-2.5-3.3-3.9-5.4-3.9c-2.1,0-4,1.4-5.4,3.9l-0.1,0.1l-2.6,0.7l-0.1-0.5l2.4-0.7
				c1.4-2.6,3.5-4,5.7-4c2.3,0,4.4,1.5,5.8,4.1c2.5,4.7,4.1,7.6,5.4,7.6c1.3,0,2.8-2.8,5.3-7.5c3.1-14.4,4.3-19.4,5.8-19.4
				c1.6,0,2.7,5,5.8,19.4l0.5,1.9c2.3,9.9,3.8,16.4,4.9,16.4c1.1,0,2.6-6.5,4.9-16.4l0.5-2c2.3-8.8,4-12.4,5.8-12.4
				c1.8,0,3.5,3.6,5.8,12.4c2,7.2,3.8,10.6,5.3,10.6s3.3-3.5,5.3-10.7c1.5-3.4,3.6-5.3,5.8-5.3c2.2,0,4.2,1.8,5.8,5.2l2.4,0.7
				l-0.1,0.5l-2.6-0.7l0-0.1c-1.4-3.2-3.3-5-5.3-5c-2,0-3.9,1.8-5.3,5c-2.1,7.6-3.9,11-5.8,11c-1.9,0-3.7-3.4-5.8-11
				c-1.4-5.2-3.4-12-5.3-12c-1.9,0-4,6.8-5.3,12l-0.5,1.9C387.2,391.1,386.2,395.2,384.8,395.2z"/>
			<linearGradient id="SVGID_9_" gradientUnits="userSpaceOnUse" x1="343.2265" y1="375.9374" x2="426.2765" y2="375.9374">
				<stop  offset="0" style="stop-color:#00FFD5"/>
				<stop  offset="0.4426" style="stop-color:#C74D8A"/>
				<stop  offset="0.5276" style="stop-color:#EE2A7B"/>
				<stop  offset="1" style="stop-color:#41B7FF"/>
			</linearGradient>
			<path class="st8" d="M384.8,391.7L384.8,391.7c-1.6,0-2.9-4.4-5.8-15.3c-2.3-9.2-4-15.7-5.3-15.7c-1.3,0-3,6.5-5.3,15.7l0,0.1
				l0,0.1c-2.8,3-4.3,4.6-5.8,4.6s-2.9-1.5-5.8-4.6c-1.3-1.4-3.3-2.2-5.4-2.2s-4,0.8-5.4,2.2l-0.1,0.1l-2.6-0.5l0.1-0.5l2.3,0.5
				c1.4-1.5,3.5-2.3,5.7-2.3c2.2,0,4.3,0.9,5.8,2.4c2.7,2.9,4.1,4.4,5.4,4.4c1.3,0,2.6-1.5,5.3-4.3c3-12,4.2-16,5.8-16
				c1.6,0,2.8,4,5.8,16.1c2.4,8.6,4.1,14.9,5.3,14.9s3-6.2,5.3-14.9c2.2-6.9,4-9.8,5.8-9.8c1.9,0,3.6,2.9,5.8,9.8
				c2,5.5,3.7,8.2,5.3,8.2c1.6,0,3.4-2.7,5.3-8.2l0-0.1c1.5-2.2,3.6-3.4,5.8-3.4c2.2,0,4.2,1.2,5.7,3.3l2.3-0.5l0.1,0.5l-2.6,0.5
				l-0.1-0.1c-1.4-2.1-3.3-3.2-5.4-3.2c-2,0-3.9,1.1-5.3,3.2c-2.1,5.8-3.9,8.5-5.8,8.5c-1.9,0-3.8-2.7-5.8-8.6
				c-2.1-6.4-3.8-9.4-5.3-9.4c-1.5,0-3.2,3-5.3,9.4C387.6,387.3,386.4,391.7,384.8,391.7z"/>
			<linearGradient id="SVGID_10_" gradientUnits="userSpaceOnUse" x1="343.1724" y1="375.8544" x2="426.3299" y2="375.8544">
				<stop  offset="0" style="stop-color:#00FFD5"/>
				<stop  offset="0.4426" style="stop-color:#C74D8A"/>
				<stop  offset="0.5276" style="stop-color:#EE2A7B"/>
				<stop  offset="1" style="stop-color:#41B7FF"/>
			</linearGradient>
			<path class="st9" d="M384.8,388.2L384.8,388.2c-1.7,0-3.1-3.6-5.8-11.8c-1.9-6.5-3.8-12.3-5.3-12.3c-1.5,0-3.4,5.8-5.3,12.3
				l0,0.1l-0.3,0.1c-5.5,1.6-5.6,1.6-11.1,0l-0.1,0c-2.9-0.8-8.1-0.8-11,0l-0.1,0l-2.5-1.7l0.3-0.5l2.3,1.6c3-0.8,8.3-0.8,11.2,0
				l0.1,0c5.4,1.6,5.4,1.6,10.7,0c2.5-8.5,4.1-12.5,5.8-12.5c1.7,0,3.3,4.1,5.9,12.7c2.3,6.7,4,11.4,5.3,11.4s3-4.7,5.3-11.4
				c2.1-5,4-7.2,5.8-7.2c1.9,0,3.7,2.2,5.8,7.2c1.9,3.9,3.6,5.8,5.3,5.8c1.7,0,3.4-1.9,5.3-5.8l0-0.1l0.1,0c3.1-2,8.1-2.1,11.3-0.1
				l2.2-1.6l0.3,0.5l-2.5,1.8l-0.2-0.1c-3-2-7.8-2-10.8,0c-2,4.1-3.9,6-5.8,6c-1.9,0-3.8-2-5.8-6.1c-2-4.6-3.7-6.8-5.3-6.8
				c-1.6,0-3.3,2.2-5.3,6.8C387.8,384.6,386.4,388.2,384.8,388.2z"/>
			<linearGradient id="SVGID_11_" gradientUnits="userSpaceOnUse" x1="343.16" y1="375.7729" x2="426.343" y2="375.7729">
				<stop  offset="0" style="stop-color:#00FFD5"/>
				<stop  offset="0.4426" style="stop-color:#C74D8A"/>
				<stop  offset="0.5276" style="stop-color:#EE2A7B"/>
				<stop  offset="1" style="stop-color:#41B7FF"/>
			</linearGradient>
			<path class="st10" d="M384.8,384.7L384.8,384.7c-1.7,0-3.2-2.7-5.8-8.3c-1.8-4.7-3.7-8.9-5.3-8.9c-1.6,0-3.5,4.3-5.3,8.9
				l-0.1,0.3l-0.5-0.2c-5.2-2.4-5.2-2.4-10.4,0l-0.2,0.1c-3,1.4-8.4,1.4-11.4,0l-0.1-0.1l-2.3-2.8l0.5-0.4l2.3,2.8
				c2.9,1.3,8,1.3,10.8,0l0.2-0.1c5.4-2.5,5.5-2.5,10.9,0c2.6-6.6,4.1-9,5.7-9c1.7,0,3.2,2.4,5.9,9.3c2.4,5.1,3.9,7.9,5.3,7.9
				c1.4,0,2.9-2.8,5.3-7.9c2-3.1,4-4.6,5.8-4.6c1.9,0,3.8,1.5,5.8,4.5c3.6,4.5,7.1,4.5,10.7,0l0.1-0.1l0.2,0c3,0.4,7.9,0.4,11,0
				l2.2-2.7l0.5,0.4l-2.4,2.9l-0.1,0c-3,0.4-8,0.4-11.1,0c-3.8,4.7-7.7,4.6-11.5-0.1c-1.9-2.9-3.7-4.3-5.3-4.3
				c-1.7,0-3.4,1.4-5.3,4.3C388,382,386.5,384.7,384.8,384.7z"/>
			<linearGradient id="SVGID_12_" gradientUnits="userSpaceOnUse" x1="343.1744" y1="375.6919" x2="426.3286" y2="375.6919">
				<stop  offset="0" style="stop-color:#00FFD5"/>
				<stop  offset="0.4426" style="stop-color:#C74D8A"/>
				<stop  offset="0.5276" style="stop-color:#EE2A7B"/>
				<stop  offset="1" style="stop-color:#41B7FF"/>
			</linearGradient>
			<path class="st11" d="M384.8,381.2c-1.8,0-3.5-1.7-5.8-4.7c-2.3-3.9-3.9-5.6-5.3-5.6c-1.5,0-3,1.7-5.3,5.6l-0.2,0.4l-0.6-0.8
				c-2.5-3-3.8-4.7-5-4.7c-1.2,0-2.5,1.7-5,4.7l-0.4,0.4c-1.5,1.8-3.6,2.8-5.8,2.8s-4.3-1-5.8-2.8l-2.3-4l0.5-0.3l2.3,4
				c1.3,1.6,3.3,2.6,5.3,2.6s4-1,5.3-2.6l0.4-0.4c2.7-3.3,4-4.9,5.5-4.9c1.5,0,2.8,1.6,5.5,4.9l0.1,0.1c2.3-3.9,3.9-5.5,5.6-5.5
				c1.7,0,3.4,1.7,5.8,5.9c2.1,2.7,3.8,4.4,5.3,4.4s3.2-1.7,5.3-4.5l0.1-0.1c3.9-2.5,7.6-2.5,11.5,0c3.5,1.4,7.3,1.4,10.9,0l0.2-0.1
				l0.1,0.1c2.9,2.7,7.7,2.7,10.7,0l2.2-4l0.5,0.3l-2.3,4.1c-3.1,2.9-8.2,2.9-11.4,0.1c-3.7,1.4-7.5,1.4-11.2-0.1
				c-3.7-2.4-7.2-2.4-10.8-0.1C388.2,379.5,386.5,381.2,384.8,381.2z"/>
			<linearGradient id="SVGID_13_" gradientUnits="userSpaceOnUse" x1="343.2019" y1="374.2223" x2="426.3011" y2="374.2223">
				<stop  offset="0" style="stop-color:#00FFD5"/>
				<stop  offset="0.4426" style="stop-color:#C74D8A"/>
				<stop  offset="0.5276" style="stop-color:#EE2A7B"/>
				<stop  offset="1" style="stop-color:#41B7FF"/>
			</linearGradient>
			<path class="st12" d="M351.3,381c-2.2,0-4.4-1.7-5.9-4.6l-2.2-5.2l0.6-0.3l2.2,5.2c1.4,2.7,3.3,4.2,5.3,4.2s3.9-1.5,5.3-4.2
				l0.5-0.9c2.7-5.3,3.9-7.7,5.4-7.7c1.5,0,2.7,2.4,5.4,7.7l0.3,0.6c4.1-3,7.1-2.9,11.2,0.2c4.4,1.4,6.5,1.4,10.9,0l0.1,0l0.1,0
				c3.5,1,7.4,1,11,0c3.5-1.8,7.8-1.8,11.4,0l0.1,0l0,0.1c1.4,2.4,3.3,3.7,5.3,3.7c2,0,3.9-1.3,5.3-3.7l2.2-5.1l0.6,0.3l-2.2,5.2
				c-1.6,2.7-3.7,4.1-5.9,4.1c0,0,0,0,0,0c-2.2,0-4.3-1.4-5.8-4c-3.4-1.8-7.3-1.7-10.8,0c-3.7,1.1-7.6,1.1-11.3,0.1
				c-4.5,1.5-6.7,1.5-11.3,0l-0.1-0.1c-4.1-3.1-6.7-3.1-10.8,0l-0.3,0.2l-0.6-1.3c-2.3-4.6-3.7-7.3-4.8-7.3c-1.1,0-2.5,2.8-4.8,7.3
				l-0.5,0.9C355.7,379.3,353.5,381,351.3,381z"/>
			<linearGradient id="SVGID_14_" gradientUnits="userSpaceOnUse" x1="343.2355" y1="373.421" x2="426.2675" y2="373.421">
				<stop  offset="0" style="stop-color:#00FFD5"/>
				<stop  offset="0.4426" style="stop-color:#C74D8A"/>
				<stop  offset="0.5276" style="stop-color:#EE2A7B"/>
				<stop  offset="1" style="stop-color:#41B7FF"/>
			</linearGradient>
			<path class="st13" d="M351.3,382.7c-2.3,0-4.4-2.2-5.9-6.3l-2.2-6.3l0.7-0.2l2.2,6.3c1.4,3.7,3.3,5.9,5.3,5.9
				c2,0,3.9-2.1,5.3-5.9l0.6-1.6c2.7-7.3,3.8-10.3,5.3-10.3c1.5,0,2.6,3,5.3,10.3l0.5,1.4c3.7,1.3,7,1.3,10.7,0
				c4.4-3.2,7.2-3.2,11.5,0l0.1,0.1c1.6,2.1,3.5,3.2,5.3,3.2h0c1.8,0,3.7-1.1,5.3-3.2c1.7-2.6,3.8-3.9,5.8-3.9c2.1,0,4.1,1.4,5.9,4
				c1.4,3.6,3.4,5.6,5.3,5.6c1.9,0,3.8-2,5.3-5.5l2.1-6.3l0.7,0.2l-2.2,6.3c-1.6,3.8-3.6,5.9-5.9,5.9c0,0,0,0,0,0
				c-2.3,0-4.3-2.1-5.9-5.9c-1.6-2.3-3.4-3.6-5.3-3.6s-3.7,1.3-5.3,3.7c-1.8,2.3-3.8,3.5-5.9,3.5c-2,0-4-1.2-5.8-3.5
				c-4.1-3.1-6.6-3.1-10.7,0l-0.1,0c-4,1.4-7.4,1.4-11.4,0l-0.2-0.1l-0.6-1.7c-2.2-6-3.7-9.9-4.7-9.9c-1,0-2.5,3.9-4.7,9.9l-0.6,1.6
				C355.7,380.4,353.6,382.7,351.3,382.7z"/>
			<linearGradient id="SVGID_15_" gradientUnits="userSpaceOnUse" x1="343.2719" y1="372.6211" x2="426.2304" y2="372.6211">
				<stop  offset="0" style="stop-color:#00FFD5"/>
				<stop  offset="0.4426" style="stop-color:#C74D8A"/>
				<stop  offset="0.5276" style="stop-color:#EE2A7B"/>
				<stop  offset="1" style="stop-color:#41B7FF"/>
			</linearGradient>
			<path class="st14" d="M351.3,384.3C351.3,384.3,351.3,384.3,351.3,384.3c-2.3,0-4.4-2.9-5.9-8l-2.1-7.5l0.7-0.2l2.1,7.5
				c1.4,4.8,3.3,7.5,5.2,7.5c1.9,0,3.8-2.7,5.2-7.5l0.7-2.3c2.7-9.3,3.7-12.8,5.2-12.8c1.5,0,2.5,3.5,5.2,12.8l0.7,2.3
				c3.5,5.6,7.1,5.5,10.5,0c2.1-4.1,4-6,5.9-6s3.8,1.9,5.9,6.1c1.6,3.7,3.4,5.8,5.3,5.8c1.8,0,3.7-2,5.2-5.7
				c1.7-4.2,3.7-6.5,5.9-6.5s4.2,2.2,5.9,6.5c1.4,4.6,3.3,7.3,5.2,7.3c1.9,0,3.8-2.6,5.2-7.3l2.1-7.5l0.7,0.2l-2.1,7.5
				c-1.5,5-3.6,7.8-5.9,7.8c0,0,0,0,0,0c-2.3,0-4.4-2.8-5.9-7.8c-1.5-3.9-3.4-6-5.2-6c-1.8,0-3.7,2.1-5.2,6c-1.7,4-3.7,6.2-5.9,6.2
				s-4.2-2.1-5.9-6.2c-2-3.8-3.7-5.7-5.2-5.7s-3.3,1.9-5.3,5.7c-1.9,3.1-3.9,4.6-5.9,4.6h0c-2,0-4-1.5-5.9-4.6l0-0.1l-0.7-2.3
				c-2.1-7.1-3.6-12.3-4.5-12.3c-1,0-2.5,5.2-4.5,12.3l-0.7,2.3C355.7,381.5,353.6,384.3,351.3,384.3z"/>
			<linearGradient id="SVGID_16_" gradientUnits="userSpaceOnUse" x1="343.3103" y1="371.8203" x2="426.1921" y2="371.8203">
				<stop  offset="0" style="stop-color:#00FFD5"/>
				<stop  offset="0.4426" style="stop-color:#C74D8A"/>
				<stop  offset="0.5276" style="stop-color:#EE2A7B"/>
				<stop  offset="1" style="stop-color:#41B7FF"/>
			</linearGradient>
			<path class="st15" d="M351.3,386C351.3,386,351.3,386,351.3,386c-2.3,0-4.4-3.5-5.9-9.7l-2-8.7l0.7-0.2l2,8.7
				c1.4,5.8,3.3,9.2,5.2,9.2c1.9,0,3.8-3.3,5.2-9.2l0.8-3.3c2.8-11.8,3.7-15.2,5.2-15.2c1.4,0,2.3,3.4,5.2,15.2l0.8,3.3
				c1.6,4.8,3.4,7.5,5.2,7.5c1.8,0,3.7-2.7,5.2-7.5c2-6.6,3.9-9.6,5.9-9.6c2.1,0,3.9,3.1,5.9,9.6c1.5,5.3,3.4,8.3,5.2,8.3
				c1.8,0,3.7-3,5.2-8.3c1.6-5.9,3.7-9,5.9-9c2.3,0,4.3,3.1,5.9,9c1.4,5.8,3.3,9.1,5.2,9.1c1.9,0,3.8-3.3,5.2-9l2-8.7l0.7,0.2
				l-2,8.7c-1.6,6.3-3.6,9.6-5.9,9.6c0,0,0,0,0,0c-2.3,0-4.4-3.3-5.9-9.6c-1.5-5.3-3.4-8.4-5.2-8.4c-1.8,0-3.7,3.1-5.2,8.4
				c-1.6,5.8-3.7,8.8-5.9,8.8c-2.3,0-4.3-3.1-5.9-8.8c-2.3-7.5-4.1-9.1-5.2-9.1c-1.1,0-2.9,1.6-5.2,9.1c-1.7,5.3-3.8,8-5.9,8l0,0
				c-2.2,0-4.2-2.8-5.9-8l-0.8-3.3c-2-8.2-3.5-14.6-4.4-14.6c-0.9,0-2.5,6.4-4.4,14.6l-0.8,3.3C355.7,382.5,353.6,386,351.3,386z"/>
			<linearGradient id="SVGID_17_" gradientUnits="userSpaceOnUse" x1="343.3493" y1="371.0205" x2="426.1537" y2="371.0205">
				<stop  offset="0" style="stop-color:#00FFD5"/>
				<stop  offset="0.4426" style="stop-color:#C74D8A"/>
				<stop  offset="0.5276" style="stop-color:#EE2A7B"/>
				<stop  offset="1" style="stop-color:#41B7FF"/>
			</linearGradient>
			<path class="st16" d="M418.2,387.7C418.2,387.7,418.2,387.7,418.2,387.7c-3,0-4.9-6.2-6-11.5c-1.4-6.8-3.4-10.8-5.2-10.8
				c-1.8,0-3.8,4-5.2,10.8c-1.1,5.2-3,11.5-6,11.5l0,0c-3,0-4.9-6.2-6-11.5c-2.3-10.9-4.2-12.5-5.2-12.5c-1,0-2.9,1.6-5.2,12.5
				c-1.1,5.2-3,11.5-6,11.5l0,0c-3,0-4.9-6.2-6-11.5l-0.9-4.3c-2-9.6-3.4-16.6-4.3-16.8c-0.9,0.2-2.3,7.1-4.3,16.8l-0.9,4.3
				c-1.1,5.2-3,11.5-6,11.5c0,0,0,0,0,0c-3,0-4.9-6.2-6-11.5l-2-9.9l0.8-0.2l2,9.9c1.4,6.8,3.3,10.8,5.2,10.8c1.8,0,3.8-4,5.2-10.8
				l0.9-4.3c2.8-13.8,3.6-17.4,5.1-17.4s2.2,3.6,5.1,17.4l0.9,4.3c1.4,6.8,3.3,10.8,5.2,10.8c1.8,0,3.8-4,5.2-10.8
				c1.8-8.9,3.8-13.2,6-13.2c2.2,0,4.1,4.3,6,13.2c1.4,6.8,3.3,10.8,5.2,10.8c1.8,0,3.8-4,5.2-10.8c1.1-5.2,3-11.5,6-11.5
				c3,0,4.9,6.2,6,11.5c1.4,6.8,3.3,10.8,5.2,10.8c1.8,0,3.8-4,5.2-10.8l2-9.9l0.8,0.2l-2,9.9C423.1,381.4,421.2,387.7,418.2,387.7z
				"/>
		</g>
	</g>
	<g>
		<g>
			<radialGradient id="SVGID_18_" cx="402.0222" cy="393.803" r="1.1913" gradientUnits="userSpaceOnUse">
				<stop  offset="0" style="stop-color:#FFFFFF"/>
				<stop  offset="0.3703" style="stop-color:#A3A3A3"/>
				<stop  offset="1" style="stop-color:#000000"/>
			</radialGradient>
			<path class="st17" d="M403.2,393.8c0,0.7-0.5,1.2-1.2,1.2c-0.7,0-1.2-0.5-1.2-1.2c0-0.7,0.5-1.2,1.2-1.2
				C402.7,392.6,403.2,393.1,403.2,393.8z"/>
		</g>
		<g>
			<radialGradient id="SVGID_19_" cx="351.8865" cy="409.7999" r="1.2381" gradientUnits="userSpaceOnUse">
				<stop  offset="0" style="stop-color:#FFFFFF"/>
				<stop  offset="0.3703" style="stop-color:#A3A3A3"/>
				<stop  offset="1" style="stop-color:#000000"/>
			</radialGradient>
			<circle class="st18" cx="351.9" cy="409.8" r="1.2"/>
		</g>
		<g>
			<radialGradient id="SVGID_20_" cx="355.0341" cy="404.4688" r="1.0867" gradientUnits="userSpaceOnUse">
				<stop  offset="0" style="stop-color:#FFFFFF"/>
				<stop  offset="0.3703" style="stop-color:#A3A3A3"/>
				<stop  offset="1" style="stop-color:#000000"/>
			</radialGradient>
			<path class="st19" d="M356.1,404.5c0,0.6-0.5,1.1-1.1,1.1c-0.6,0-1.1-0.5-1.1-1.1c0-0.6,0.5-1.1,1.1-1.1
				C355.6,403.4,356.1,403.9,356.1,404.5z"/>
		</g>
		<g>
			<radialGradient id="SVGID_21_" cx="373.0366" cy="424.2939" r="2.4123" gradientUnits="userSpaceOnUse">
				<stop  offset="0" style="stop-color:#FFFFFF"/>
				<stop  offset="0.3703" style="stop-color:#A3A3A3"/>
				<stop  offset="1" style="stop-color:#000000"/>
			</radialGradient>
			<path class="st20" d="M375.4,424.3c0,1.3-1.1,2.4-2.4,2.4s-2.4-1.1-2.4-2.4c0-1.3,1.1-2.4,2.4-2.4S375.4,423,375.4,424.3z"/>
		</g>
		<g>
			<radialGradient id="SVGID_22_" cx="405.6259" cy="416.1644" r="2.4123" gradientUnits="userSpaceOnUse">
				<stop  offset="0" style="stop-color:#FFFFFF"/>
				<stop  offset="0.3703" style="stop-color:#A3A3A3"/>
				<stop  offset="1" style="stop-color:#000000"/>
			</radialGradient>
			<path class="st21" d="M408,416.2c0,1.3-1.1,2.4-2.4,2.4c-1.3,0-2.4-1.1-2.4-2.4s1.1-2.4,2.4-2.4C407,413.8,408,414.8,408,416.2z"
				/>
		</g>
		<g>
			<radialGradient id="SVGID_23_" cx="398.6355" cy="335.9953" r="2.4123" gradientUnits="userSpaceOnUse">
				<stop  offset="0" style="stop-color:#FFFFFF"/>
				<stop  offset="0.3703" style="stop-color:#A3A3A3"/>
				<stop  offset="1" style="stop-color:#000000"/>
			</radialGradient>
			<circle class="st22" cx="398.6" cy="336" r="2.4"/>
		</g>
		<g>
			<radialGradient id="SVGID_24_" cx="358.2437" cy="347.7498" r="2.4123" gradientUnits="userSpaceOnUse">
				<stop  offset="0" style="stop-color:#FFFFFF"/>
				<stop  offset="0.3703" style="stop-color:#A3A3A3"/>
				<stop  offset="1" style="stop-color:#000000"/>
			</radialGradient>
			<path class="st23" d="M360.7,347.7c0,1.3-1.1,2.4-2.4,2.4c-1.3,0-2.4-1.1-2.4-2.4c0-1.3,1.1-2.4,2.4-2.4
				C359.6,345.3,360.7,346.4,360.7,347.7z"/>
		</g>
		<g>
			<radialGradient id="SVGID_25_" cx="336.7142" cy="397.9152" r="2.4123" gradientUnits="userSpaceOnUse">
				<stop  offset="0" style="stop-color:#FFFFFF"/>
				<stop  offset="0.3703" style="stop-color:#A3A3A3"/>
				<stop  offset="1" style="stop-color:#000000"/>
			</radialGradient>
			<circle class="st24" cx="336.7" cy="397.9" r="2.4"/>
		</g>
		<g>
			<radialGradient id="SVGID_26_" cx="432.5246" cy="362.1136" r="1.3195" gradientUnits="userSpaceOnUse">
				<stop  offset="0" style="stop-color:#FFFFFF"/>
				<stop  offset="0.3703" style="stop-color:#A3A3A3"/>
				<stop  offset="1" style="stop-color:#000000"/>
			</radialGradient>
			<path class="st25" d="M433.8,362.1c0,0.7-0.6,1.3-1.3,1.3s-1.3-0.6-1.3-1.3c0-0.7,0.6-1.3,1.3-1.3S433.8,361.4,433.8,362.1z"/>
		</g>
		<g>
			<radialGradient id="SVGID_27_" cx="345.6341" cy="353.533" r="1.1432" gradientUnits="userSpaceOnUse">
				<stop  offset="0" style="stop-color:#FFFFFF"/>
				<stop  offset="0.3703" style="stop-color:#A3A3A3"/>
				<stop  offset="1" style="stop-color:#000000"/>
			</radialGradient>
			<path class="st26" d="M346.8,353.5c0,0.6-0.5,1.1-1.1,1.1s-1.1-0.5-1.1-1.1s0.5-1.1,1.1-1.1S346.8,352.9,346.8,353.5z"/>
		</g>
		<g>
			<radialGradient id="SVGID_28_" cx="412.9054" cy="343.5247" r="2.4123" gradientUnits="userSpaceOnUse">
				<stop  offset="0" style="stop-color:#FFFFFF"/>
				<stop  offset="0.3703" style="stop-color:#A3A3A3"/>
				<stop  offset="1" style="stop-color:#000000"/>
			</radialGradient>
			<path class="st27" d="M415.3,343.5c0,1.3-1.1,2.4-2.4,2.4s-2.4-1.1-2.4-2.4c0-1.3,1.1-2.4,2.4-2.4S415.3,342.2,415.3,343.5z"/>
		</g>
		<g>
			<radialGradient id="SVGID_29_" cx="379.457" cy="354.0492" r="2.4123" gradientUnits="userSpaceOnUse">
				<stop  offset="0" style="stop-color:#FFFFFF"/>
				<stop  offset="0.3703" style="stop-color:#A3A3A3"/>
				<stop  offset="1" style="stop-color:#000000"/>
			</radialGradient>
			<path class="st28" d="M381.9,354c0,1.3-1.1,2.4-2.4,2.4c-1.3,0-2.4-1.1-2.4-2.4s1.1-2.4,2.4-2.4
				C380.8,351.6,381.9,352.7,381.9,354z"/>
		</g>
		<g>
			<radialGradient id="SVGID_30_" cx="373.0366" cy="406.4429" r="1.4213" gradientUnits="userSpaceOnUse">
				<stop  offset="0" style="stop-color:#FFFFFF"/>
				<stop  offset="0.3703" style="stop-color:#A3A3A3"/>
				<stop  offset="1" style="stop-color:#000000"/>
			</radialGradient>
			<circle class="st29" cx="373" cy="406.4" r="1.4"/>
		</g>
		<g>
			<radialGradient id="SVGID_31_" cx="432.5247" cy="400.8766" r="1.4952" gradientUnits="userSpaceOnUse">
				<stop  offset="0" style="stop-color:#FFFFFF"/>
				<stop  offset="0.3703" style="stop-color:#A3A3A3"/>
				<stop  offset="1" style="stop-color:#000000"/>
			</radialGradient>
			<circle class="st30" cx="432.5" cy="400.9" r="1.5"/>
		</g>
		<g>
			<radialGradient id="SVGID_32_" cx="415.3176" cy="356.4615" r="2.4123" gradientUnits="userSpaceOnUse">
				<stop  offset="0" style="stop-color:#FFFFFF"/>
				<stop  offset="0.3703" style="stop-color:#A3A3A3"/>
				<stop  offset="1" style="stop-color:#000000"/>
			</radialGradient>
			<path class="st31" d="M417.7,356.5c0,1.3-1.1,2.4-2.4,2.4c-1.3,0-2.4-1.1-2.4-2.4c0-1.3,1.1-2.4,2.4-2.4
				C416.6,354,417.7,355.1,417.7,356.5z"/>
		</g>
		<g>
			<radialGradient id="SVGID_33_" cx="384.9771" cy="366.2568" r="2.4123" gradientUnits="userSpaceOnUse">
				<stop  offset="0" style="stop-color:#FFFFFF"/>
				<stop  offset="0.3703" style="stop-color:#A3A3A3"/>
				<stop  offset="1" style="stop-color:#000000"/>
			</radialGradient>
			<circle class="st32" cx="385" cy="366.3" r="2.4"/>
		</g>
		<g>
			<radialGradient id="SVGID_34_" cx="335.571" cy="382.6505" r="1.0143" gradientUnits="userSpaceOnUse">
				<stop  offset="0" style="stop-color:#FFFFFF"/>
				<stop  offset="0.3703" style="stop-color:#A3A3A3"/>
				<stop  offset="1" style="stop-color:#000000"/>
			</radialGradient>
			<path class="st33" d="M336.6,382.7c0,0.6-0.5,1-1,1c-0.6,0-1-0.5-1-1c0-0.6,0.5-1,1-1C336.1,381.6,336.6,382.1,336.6,382.7z"/>
		</g>
	</g>
</g>
<g>
	<g>
		<g>
			<linearGradient id="SVGID_35_" gradientUnits="userSpaceOnUse" x1="37.1029" y1="137.0709" x2="273.2929" y2="137.0709">
				<stop  offset="0" style="stop-color:#00FFD5"/>
				<stop  offset="0.4426" style="stop-color:#C74D8A"/>
				<stop  offset="0.5276" style="stop-color:#EE2A7B"/>
				<stop  offset="1" style="stop-color:#41B7FF"/>
			</linearGradient>
			<path class="st34" d="M155.2,258c-1.8,0-2.8-8.4-6.5-40.6c-2.2-19.6-5.2-46.4-9.6-80.4c-4.4-33.7-7.4-60.3-9.6-79.8
				c-2.6-23.3-4.4-38.8-5.7-40.1c-1.3,1.3-3,16.8-5.7,40.1c-2.2,19.5-5.2,46.1-9.6,79.8c-8.3,64.2-11.8,85.6-16.1,85.6l0,0
				c-4.3,0-7.8-21.4-16.1-85.5c-3.6-27.5-9.3-43.9-15.2-43.9S49.6,109.5,46,137l-8.1,25l-0.8-0.3l8.1-24.9
				c3.7-28.3,9.5-44.6,16.1-44.6s12.4,16.3,16.1,44.6c6.4,49.7,11.3,84.8,15.2,84.8c3.9,0,8.8-35.1,15.2-84.8
				c4.4-33.7,7.4-60.3,9.6-79.8c3.7-32.4,4.7-40.9,6.5-40.9c1.8,0,2.9,8.5,6.5,40.9c2.2,19.5,5.2,46.1,9.6,79.8
				c4.4,34,7.4,60.8,9.6,80.4c2.6,23.1,4.3,38.4,5.6,39.8c1.3-1.3,3-16.7,5.6-39.8c2.2-19.6,5.2-46.4,9.6-80.4
				c8.3-64.2,11.8-85.6,16.1-85.6c4.3,0,7.8,21.4,16.1,85.5c4.9,37.8,10.5,78.1,15.2,78.1c4.7,0,10.3-40.3,15.2-78.1
				c5.4-41.6,11.7-50.3,16.1-50.3c4.4,0,10.7,8.7,16.1,50.3l8.1,24.8l-0.8,0.3l-8.1-24.9c-5.8-44.8-12.6-49.7-15.2-49.7
				c-2.6,0-9.4,4.8-15.2,49.6c-7.7,59.7-11.7,78.8-16.1,78.8c-4.4,0-8.3-19.1-16.1-78.8c-6.4-49.7-11.3-84.8-15.2-84.8
				c-3.9,0-8.8,35.1-15.2,84.8c-4.4,34-7.4,60.8-9.6,80.4C158,249.6,157,258,155.2,258z"/>
			<linearGradient id="SVGID_36_" gradientUnits="userSpaceOnUse" x1="37.2275" y1="136.8418" x2="273.1674" y2="136.8418">
				<stop  offset="0" style="stop-color:#00FFD5"/>
				<stop  offset="0.4426" style="stop-color:#C74D8A"/>
				<stop  offset="0.5276" style="stop-color:#EE2A7B"/>
				<stop  offset="1" style="stop-color:#41B7FF"/>
			</linearGradient>
			<path class="st35" d="M155.2,248.2L155.2,248.2c-2.1,0-3.2-8.8-7.3-42.5c-2.1-17-4.9-40.4-8.8-68.7c-3.8-27.8-6.5-49.9-8.6-67.7
				c-3.1-25.3-5.1-42-6.6-42.8c-1.4,0.8-3.4,17.5-6.5,42.8c-2.2,17.8-4.9,39.9-8.6,67.7c-8.5,58.3-11.9,76.5-16.1,76.5l0,0
				c-4.2,0-7.6-18.2-16.1-76.5c-3.6-24.5-9.3-39.1-15.2-39.1s-11.6,14.6-15.2,39.1l-8,21.7l-0.9-0.3l7.9-21.6
				c3.7-25.3,9.6-39.8,16.1-39.8s12.4,14.6,16.1,39.9c5.7,38.9,11.1,75.7,15.2,75.7c4.1,0,9.5-36.8,15.2-75.7
				c3.8-27.8,6.5-49.9,8.6-67.6c4.2-34.6,5.4-43.6,7.5-43.6c2.1,0,3.3,9,7.5,43.6c2.2,17.8,4.9,39.9,8.6,67.6
				c3.9,28.3,6.7,51.7,8.8,68.7c3,24.6,5,40.9,6.4,41.7c1.3-0.8,3.3-17.1,6.3-41.7c2.1-17,4.9-40.4,8.8-68.7
				c7.6-55.2,11.6-78.3,16.1-78.3c4.6,0,8.5,23.1,16.1,78.3c5.1,37,10.5,71.2,15.2,71.2c4.7,0,10-34.2,15.2-71.2
				c3-20.7,8.2-45.3,16.1-45.3c7.9,0,13.1,24.6,16.1,45.3l7.9,21.5l-0.9,0.3l-7.9-21.6c-5.8-40.2-12.6-44.6-15.2-44.6
				c-2.6,0-9.4,4.3-15.2,44.5c-7.5,53.8-11.5,72-16.1,72c-4.6,0-8.6-18.2-16.1-72c-5.9-42.4-11-77.5-15.2-77.5
				c-4.1,0-9.3,35.1-15.2,77.5c-3.9,28.3-6.7,51.7-8.8,68.7C158.4,239.3,157.2,248.2,155.2,248.2z"/>
			<linearGradient id="SVGID_37_" gradientUnits="userSpaceOnUse" x1="37.355" y1="136.6126" x2="273.0386" y2="136.6126">
				<stop  offset="0" style="stop-color:#00FFD5"/>
				<stop  offset="0.4426" style="stop-color:#C74D8A"/>
				<stop  offset="0.5276" style="stop-color:#EE2A7B"/>
				<stop  offset="1" style="stop-color:#41B7FF"/>
			</linearGradient>
			<path class="st36" d="M155.2,238.3c-2.3,0-3.6-9.2-8.3-44.3c-2-15.2-4.6-34.2-7.9-57.2c-3.2-22.2-5.6-40.7-7.6-55.6
				c-3.6-26.9-5.9-44.6-7.6-45.4c-1.6,0.7-4,18.5-7.5,45.4c-2,14.9-4.4,33.4-7.6,55.6c-8,47.9-11.7,67.5-16.2,67.5l0,0
				c-4.4,0-8.1-19.5-16.2-67.5c-3.6-21.5-9.3-34.4-15.1-34.4c-5.9,0-11.5,12.9-15.1,34.4l-7.8,18.5l-1-0.4l7.8-18.3
				c3.7-22.3,9.6-35.1,16.1-35.1s12.4,12.8,16.2,35.2c5.7,34.2,11.2,66.6,15.1,66.6c4,0,9.4-32.4,15.1-66.6
				c3.2-22.1,5.6-40.7,7.6-55.6c4.8-36.7,6.2-46.2,8.6-46.2c2.4,0,3.7,9.6,8.6,46.2c2,14.9,4.4,33.4,7.6,55.6
				c3.3,23,5.9,42,7.9,57.2c3.4,25.7,5.7,42.6,7.3,43.4c1.6-0.7,3.8-17.7,7.2-43.4c2-15.2,4.6-34.2,7.9-57.2
				c8.2-55.1,11.8-71.1,16.2-71.1c4.4,0,8,15.9,16.2,71.1c4.8,31.8,10.3,64.3,15.1,64.3c4.8,0,10.4-32.5,15.1-64.3
				c3-18.4,8.2-40.3,16.2-40.3s13.2,21.9,16.2,40.2l7.7,18.2l-1,0.4l-7.8-18.3c-4.1-25.1-9.6-39.5-15.2-39.5
				c-5.6,0-11.1,14.4-15.1,39.4c-7.2,48.1-11.5,65.1-16.2,65.1l0,0c-4.7,0-8.9-17-16.2-65.1c-5.5-37-10.8-70.2-15.1-70.2
				c-4.4,0-9.7,33.2-15.1,70.2c-3.3,23-5.9,42-7.9,57.2C158.8,229.2,157.5,238.3,155.2,238.3z"/>
			<linearGradient id="SVGID_38_" gradientUnits="userSpaceOnUse" x1="37.4917" y1="136.3812" x2="272.9019" y2="136.3812">
				<stop  offset="0" style="stop-color:#00FFD5"/>
				<stop  offset="0.4426" style="stop-color:#C74D8A"/>
				<stop  offset="0.5276" style="stop-color:#EE2A7B"/>
				<stop  offset="1" style="stop-color:#41B7FF"/>
			</linearGradient>
			<path class="st37" d="M155.2,228.5c-2.6,0-4.2-10.2-9.3-45.7c-1.8-12.5-4.1-28-6.9-46c-2.6-16.9-4.7-31.7-6.4-43.6
				c-4.1-28.5-6.8-47.3-8.7-47.8c-1.9,0.5-4.6,19.3-8.7,47.8c-1.7,11.9-3.8,26.8-6.4,43.6c-8.3,42.4-11.8,58.4-16.2,58.4l0,0
				c-4.4,0-7.9-16-16.2-58.4c-3.6-18.6-9.3-29.6-15.1-29.6c-5.8,0-11.5,11.1-15.1,29.6l0,0.1L38.5,152l-1-0.5l7.6-15
				c3.8-19.4,9.7-30.5,16.2-30.5c6.5,0,12.4,11.1,16.2,30.5c6,30.9,11.2,57.5,15.1,57.5c3.9,0,9.1-26.6,15.1-57.5
				c2.5-16.8,4.7-31.7,6.4-43.6c5.4-37.9,7.1-48.8,9.8-48.8c2.7,0,4.4,10.9,9.8,48.8c1.7,11.9,3.8,26.7,6.4,43.6
				c2.8,18,5,33.5,6.9,46c3.9,26.6,6.4,44.2,8.3,44.8c1.8-0.6,4.3-18.2,8.2-44.8c1.8-12.5,4.1-28,6.9-46
				c7.8-48.3,11.7-63.8,16.2-63.8c4.5,0,8.4,15.5,16.2,63.8c4.4,26.7,10.1,57.4,15.1,57.4c5,0,10.7-30.7,15.1-57.4
				c4.2-22.7,10-35.2,16.2-35.2c6.2,0,12,12.5,16.2,35.1l7.6,15l-1,0.5l-7.7-15.2c-4.1-21.8-9.6-34.3-15.1-34.3
				c-5.5,0-11,12.5-15.1,34.3c-7,42.5-11.4,58.3-16.2,58.3c-4.8,0-9.2-15.8-16.2-58.3c-4.9-30.4-10.5-62.9-15.1-62.9
				c-4.6,0-10.2,32.5-15.1,62.9c-2.8,18-5,33.5-6.9,46C159.4,218.3,157.8,228.5,155.2,228.5z"/>
			<linearGradient id="SVGID_39_" gradientUnits="userSpaceOnUse" x1="37.6419" y1="136.1523" x2="272.7536" y2="136.1523">
				<stop  offset="0" style="stop-color:#00FFD5"/>
				<stop  offset="0.4426" style="stop-color:#C74D8A"/>
				<stop  offset="0.5276" style="stop-color:#EE2A7B"/>
				<stop  offset="1" style="stop-color:#41B7FF"/>
			</linearGradient>
			<path class="st38" d="M155.2,218.7c-2.9,0-4.7-10.5-10.5-46.9c-1.6-10.2-3.5-21.8-5.7-35.1c-1.9-11.9-3.6-22.5-5-31.8
				c-4.6-29.1-7.9-50.2-10-50.2c-2.1,0-5.4,21-10,50.2c-1.5,9.3-3.1,19.9-5,31.8c-8.5,36.6-11.9,49.4-16.2,49.4s-7.7-12.8-16.2-49.3
				c-3.6-15.6-9.3-24.9-15.1-24.9c-5.8,0-11.4,9.3-15.1,24.9l-0.1,0.2l-7.5,11.8l-1-0.6l7.4-11.7c3.8-16.4,9.7-25.7,16.2-25.7
				c6.5,0,12.4,9.4,16.2,25.8c6.3,27.1,11.3,48.4,15.1,48.4c3.8,0,8.8-21.4,15.1-48.4c1.9-11.8,3.6-22.4,5-31.7
				c6.2-39.7,8.2-51.2,11.2-51.2c3,0,5,11.5,11.2,51.2c1.5,9.3,3.1,19.9,5,31.8c2.2,13.3,4.1,24.9,5.7,35.1
				c4.3,26.6,7.4,45.9,9.3,45.9s5.1-19.2,9.3-45.9c1.6-10.2,3.5-21.8,5.7-35.1c7.5-42.3,11.6-56.6,16.2-56.6
				c4.7,0,8.8,14.3,16.2,56.6c4.3,23.5,9.8,50.5,15.1,50.5c5.2,0,10.8-27,15.1-50.5c4.3-19.4,10-30.1,16.2-30.1
				c6.2,0,12,10.7,16.2,30l7.4,11.7l-1,0.6l-7.5-12c-4.1-18.6-9.6-29.2-15.1-29.2c-5.5,0-11,10.6-15.1,29.2
				c-6.7,37-11.3,51.5-16.2,51.5c-5,0-9.5-14.4-16.2-51.5c-5.1-28.9-10.5-55.6-15.1-55.6c-4.6,0-10,26.7-15.1,55.6
				c-2.2,13.3-4.1,24.9-5.7,35.1C159.9,208.2,158.1,218.7,155.2,218.7z"/>
			<linearGradient id="SVGID_40_" gradientUnits="userSpaceOnUse" x1="37.8207" y1="135.9232" x2="272.5742" y2="135.9232">
				<stop  offset="0" style="stop-color:#00FFD5"/>
				<stop  offset="0.4426" style="stop-color:#C74D8A"/>
				<stop  offset="0.5276" style="stop-color:#EE2A7B"/>
				<stop  offset="1" style="stop-color:#41B7FF"/>
			</linearGradient>
			<path class="st39" d="M155.2,208.9c-3.2,0-5.2-10.6-11.8-47.6c-1.3-7.3-2.8-15.5-4.4-24.6c-1.3-7.2-2.4-14-3.5-20.1
				c-5.4-31.5-9-52.3-11.5-52.3c-2.5,0-6.1,20.8-11.5,52.3c-1.1,6.2-2.2,12.9-3.5,20.1c-8.1,28-11.8,40.3-16.3,40.3
				c-4.5,0-8.2-12.3-16.3-40.3c-3.7-12.8-9.2-20.2-15-20.2c-5.8,0-11.3,7.4-15,20.2l-0.1,0.2l-7.3,8.5l-1-0.8l7.2-8.4
				c3.9-13.3,9.8-21,16.2-21c6.5,0,12.4,7.7,16.3,21.1c6.6,22.8,11.4,39.3,15,39.3c3.7,0,8.5-16.5,15-39.3c1.3-7.2,2.4-13.9,3.5-20
				c7.2-41.4,9.4-53.4,12.8-53.4c3.4,0,5.6,11.9,12.8,53.4c1.1,6.2,2.2,12.9,3.5,20.1c1.7,9.1,3.1,17.3,4.4,24.6
				c4.8,27,8.3,46.5,10.6,46.5s5.8-19.5,10.6-46.5c1.3-7.3,2.8-15.5,4.4-24.6c7.1-35.9,11.5-49.3,16.3-49.3
				c4.8,0,9.2,13.4,16.3,49.3c3.8,18.7,9.6,43.6,15,43.6s11.2-24.9,15-43.6c4.3-16.2,10-25.1,16.3-25.1c6.2,0,12,8.8,16.2,24.9
				l7.2,8.4l-1,0.8l-7.4-8.7c-4-15.3-9.5-24.1-15-24.1c-5.5,0-11,8.8-15,24.1c-6.5,31.7-11.2,44.6-16.3,44.6
				c-5.1,0-9.8-12.9-16.3-44.7c-4.7-23.9-10.2-48.3-15-48.3c-4.9,0-10.3,24.4-15,48.3c-1.7,9.1-3.1,17.3-4.4,24.6
				C160.4,198.2,158.4,208.9,155.2,208.9z"/>
			<linearGradient id="SVGID_41_" gradientUnits="userSpaceOnUse" x1="38.0635" y1="135.692" x2="272.3317" y2="135.692">
				<stop  offset="0" style="stop-color:#00FFD5"/>
				<stop  offset="0.4426" style="stop-color:#C74D8A"/>
				<stop  offset="0.5276" style="stop-color:#EE2A7B"/>
				<stop  offset="1" style="stop-color:#41B7FF"/>
			</linearGradient>
			<path class="st40" d="M155.2,199c-3.6,0-5.9-10.7-13.4-47.7c-0.9-4.6-1.9-9.4-3-14.7l-1.7-8.7c-6.3-32.6-10.4-54.2-13.3-54.2
				c-2.9,0-7.1,21.6-13.3,54.2l-1.7,8.7c-8.4,22.3-11.9,31.3-16.3,31.3c-4.4,0-7.9-9-16.3-31.2c-3.7-9.8-9.2-15.5-15-15.5
				c-5.8,0-11.3,5.6-15,15.5l-0.1,0.2l-7.3,5.3l-0.8-1.1l7-5.1c3.9-10.3,9.8-16.2,16.2-16.2c6.4,0,12.4,6,16.3,16.4
				c6.9,18.2,11.4,30.3,15,30.3c3.6,0,8.2-12.1,15-30.3l1.6-8.6c8-42,10.8-55.3,14.7-55.3c3.9,0,6.6,13.3,14.6,55.3l1.7,8.7
				c1.1,5.2,2,10.1,3,14.7c5.7,28.1,9.4,46.7,12,46.7s6.4-18.6,12-46.7c0.9-4.6,1.9-9.4,3-14.7c6.8-30.3,11.4-42,16.3-42
				c4.9,0,9.5,11.8,16.3,42c2.1,9.1,8.7,36.8,15,36.8c6.3,0,12.9-27.7,15-36.8c4.3-12.9,10.1-20,16.3-20c6.2,0,12,7,16.2,19.8l7,5.1
				l-0.8,1.1l-7.3-5.3l-0.1-0.2c-4-12.1-9.5-19-15-19c-5.5,0-11,6.9-15,19c-6.2,26.4-11.1,37.7-16.3,37.7
				c-5.2,0-10.1-11.3-16.3-37.8c-4.3-19.1-9.9-41-15-41c-5.1,0-10.7,21.9-15,41c-1.1,5.2-2,10.1-3,14.7
				C161.1,188.4,158.8,199,155.2,199z"/>
			<linearGradient id="SVGID_42_" gradientUnits="userSpaceOnUse" x1="38.4296" y1="135.4628" x2="271.9659" y2="135.4628">
				<stop  offset="0" style="stop-color:#00FFD5"/>
				<stop  offset="0.4426" style="stop-color:#C74D8A"/>
				<stop  offset="0.5276" style="stop-color:#EE2A7B"/>
				<stop  offset="1" style="stop-color:#41B7FF"/>
			</linearGradient>
			<path class="st41" d="M155.2,189.2c-4,0-6.8-11.3-15.1-47.2l-1.3-5.5c-6.7-31-11.5-53.4-15-53.4c-3.5,0-8.3,22.4-15,53.4
				l-0.1,0.2c-7.9,14.7-11.9,22-16.3,22c-4.4,0-8.4-7.4-16.3-22c-3.7-6.9-9.2-10.8-15-10.8c-5.8,0-11.3,3.9-15,10.8l-0.1,0.3l-7.3,2
				l-0.4-1.4l6.7-1.8c4-7.2,9.9-11.3,16.1-11.3c6.4,0,12.3,4.2,16.3,11.6c7.1,13.3,11.5,21.3,15,21.3c3.6,0,7.9-8,15-21.2
				c8.7-40.5,11.9-54.5,16.3-54.5c4.4,0,7.6,14,16.4,54.6l1.3,5.5c6.4,27.7,10.7,46,13.7,46c3,0,7.3-18.3,13.7-46l1.3-5.5
				c6.5-24.7,11.3-34.8,16.4-34.8c5.1,0,9.8,10.1,16.4,34.8c5.7,20.1,10.6,29.9,15,29.9c4.4,0,9.3-9.8,15-29.9
				c4.3-9.7,10.1-14.9,16.3-14.9c6.1,0,11.9,5.2,16.2,14.5l6.7,1.8l-0.4,1.4l-7.3-2l-0.1-0.3c-4.1-9-9.4-14-15-14
				c-5.6,0-10.9,5-15,14c-6,21.3-11,30.9-16.3,30.9c-5.3,0-10.3-9.5-16.3-31c-3.8-14.5-9.5-33.7-15-33.7c-5.4,0-11.1,19.2-15,33.7
				l-1.3,5.5C162,177.9,159.2,189.2,155.2,189.2z"/>
			<linearGradient id="SVGID_43_" gradientUnits="userSpaceOnUse" x1="38.6278" y1="135.2354" x2="271.7677" y2="135.2354">
				<stop  offset="0" style="stop-color:#00FFD5"/>
				<stop  offset="0.4426" style="stop-color:#C74D8A"/>
				<stop  offset="0.5276" style="stop-color:#EE2A7B"/>
				<stop  offset="1" style="stop-color:#41B7FF"/>
			</linearGradient>
			<path class="st42" d="M155.2,179.4L155.2,179.4c-4.5,0-8.1-12.4-16.4-42.8c-6.4-25.7-11.2-44-14.9-44c-3.7,0-8.5,18.2-14.9,43.9
				l0,0.2l-0.1,0.1c-8,8.5-12,12.8-16.2,12.8c-4.2,0-8.2-4.3-16.2-12.8c-3.8-4-9.3-6.3-15.1-6.3s-11.4,2.3-15.1,6.2l-0.3,0.3
				l-7.2-1.4l0.3-1.5l6.4,1.3c4-4.1,9.8-6.4,15.9-6.4c6.3,0,12.2,2.5,16.2,6.7c7.7,8.2,11.5,12.3,15.1,12.3c3.6,0,7.4-4.1,15-12.2
				c8.4-33.7,11.9-44.9,16.3-44.9c4.4,0,8,11.3,16.4,45.1c6.6,24.2,11.4,41.7,14.9,41.7s8.3-17.5,14.9-41.7
				c6.3-19.3,11.2-27.5,16.4-27.5c5.2,0,10.1,8.2,16.4,27.5c5.5,15.5,10.4,23,14.9,23c4.6,0,9.5-7.5,14.9-23.1l0.1-0.2
				c4.3-6.2,10.1-9.7,16.3-9.7c6,0,11.7,3.3,16,9.3l6.3-1.3l0.3,1.5l-7.3,1.5l-0.3-0.4c-4-5.8-9.4-9-15-9c-5.6,0-10.9,3.2-15,8.9
				c-5.8,16.4-11,24-16.3,24c-5.4,0-10.6-7.6-16.4-24.1c-5.9-18-10.6-26.4-14.9-26.4c-4.3,0-9.1,8.4-14.9,26.4
				C163.2,167,159.7,179.4,155.2,179.4z"/>
			<linearGradient id="SVGID_44_" gradientUnits="userSpaceOnUse" x1="38.4759" y1="135.0024" x2="271.9176" y2="135.0024">
				<stop  offset="0" style="stop-color:#00FFD5"/>
				<stop  offset="0.4426" style="stop-color:#C74D8A"/>
				<stop  offset="0.5276" style="stop-color:#EE2A7B"/>
				<stop  offset="1" style="stop-color:#41B7FF"/>
			</linearGradient>
			<path class="st43" d="M155.2,169.6L155.2,169.6c-4.7,0-8.6-10.1-16.4-33c-5.4-18.2-10.7-34.5-14.9-34.5
				c-4.2,0-9.5,16.3-14.9,34.5l-0.1,0.4l-0.8,0.2c-15.4,4.6-15.7,4.6-31,0l-0.4-0.1c-8.1-2.3-22.8-2.3-30.9,0l-0.4,0.1l-7-4.9
				l0.9-1.3l6.4,4.4c8.4-2.3,23.2-2.2,31.4,0.1l0.4,0.1c15,4.5,15.1,4.5,30.1,0c7.1-23.9,11.4-35.2,16.3-35.2
				c4.9,0,9.2,11.5,16.4,35.6c6.4,18.7,11.1,31.9,14.9,31.9s8.5-13.2,14.9-31.9c6-14,11.1-20.2,16.4-20.2c5.3,0,10.4,6.2,16.4,20.2
				c5.3,10.9,10.2,16.2,14.9,16.2c4.7,0,9.6-5.3,14.9-16.3l0.1-0.2l0.2-0.1c8.7-5.7,22.8-5.8,31.7-0.3l6.2-4.4l0.9,1.3l-7.1,5
				l-0.5-0.3c-8.3-5.5-21.8-5.5-30.2-0.1c-5.6,11.4-10.9,17-16.3,17c-5.4,0-10.8-5.6-16.4-17.2c-5.6-12.9-10.5-19.2-14.9-19.2
				c-4.5,0-9.4,6.3-14.9,19.2C163.8,159.5,159.9,169.6,155.2,169.6z"/>
			<linearGradient id="SVGID_45_" gradientUnits="userSpaceOnUse" x1="38.4411" y1="134.7735" x2="271.9544" y2="134.7735">
				<stop  offset="0" style="stop-color:#00FFD5"/>
				<stop  offset="0.4426" style="stop-color:#C74D8A"/>
				<stop  offset="0.5276" style="stop-color:#EE2A7B"/>
				<stop  offset="1" style="stop-color:#41B7FF"/>
			</linearGradient>
			<path class="st44" d="M155.2,159.8L155.2,159.8c-4.8,0-9.1-7.5-16.4-23.2c-5.1-13.1-10.3-25.1-14.9-25.1c-4.5,0-9.8,12-14.9,25
				l-0.3,0.8l-1.5-0.7c-14.6-6.8-14.6-6.8-29.2,0l-0.7,0.3c-8.5,4.1-23.5,4.1-32,0l-0.3-0.2l-6.5-7.9l1.3-1.1l6.4,7.8
				c8,3.7,22.5,3.7,30.4-0.1l0.7-0.3c15.1-7.1,15.5-7.1,30.5-0.1c7.3-18.6,11.5-25.3,16.1-25.3c4.7,0,9,6.8,16.4,26.1
				c6.7,14.4,11,22.2,14.9,22.2c3.8,0,8.2-7.8,14.9-22.2c5.7-8.7,11.1-12.9,16.4-12.9c5.3,0,10.7,4.2,16.4,12.8
				c10,12.5,19.8,12.6,30-0.1l0.3-0.4l0.5,0.1c8.5,1.1,22.2,1.1,30.8,0l6.3-7.7l1.3,1.1l-6.7,8.2l-0.3,0c-8.5,1.1-22.3,1.1-31.1,0.1
				c-10.7,13.1-21.7,13-32.3-0.4c-5.4-8.1-10.3-12.1-15-12.1c-4.7,0-9.6,3.9-15,12C164.3,152.3,160,159.8,155.2,159.8z"/>
			<linearGradient id="SVGID_46_" gradientUnits="userSpaceOnUse" x1="38.4815" y1="134.5461" x2="271.914" y2="134.5461">
				<stop  offset="0" style="stop-color:#00FFD5"/>
				<stop  offset="0.4426" style="stop-color:#C74D8A"/>
				<stop  offset="0.5276" style="stop-color:#EE2A7B"/>
				<stop  offset="1" style="stop-color:#41B7FF"/>
			</linearGradient>
			<path class="st45" d="M155.2,149.9c-5.1,0-9.8-4.9-16.4-13.2c-6.4-11.1-10.9-15.8-15-15.8c-4.1,0-8.5,4.7-14.9,15.7l-0.6,1.1
				l-1.8-2.2c-6.9-8.4-10.7-13.1-14-13.1c-3.2,0-7.1,4.6-14,13.1l-1,1.2c-4.1,5.1-10.1,8-16.3,8s-12.2-2.9-16.3-8l-6.4-11.3l1.5-0.9
				l6.4,11.2c3.7,4.5,9.2,7.2,14.9,7.2s11.2-2.7,15-7.4l1-1.2c7.5-9.1,11.2-13.7,15.3-13.7c4.1,0,7.8,4.6,15.3,13.7l0.2,0.3
				c6.5-10.9,11.1-15.4,15.8-15.4c4.8,0,9.6,4.8,16.4,16.5c6,7.7,10.6,12.5,14.9,12.5c4.3,0,8.9-4.8,15-12.6l0.2-0.2
				c10.9-7,21.4-7,32.3,0c9.9,3.9,20.5,3.9,30.5-0.1l0.5-0.2l0.4,0.4c8.3,7.5,21.7,7.5,30,0.1l6.3-11.1l1.5,0.9l-6.5,11.4
				c-8.8,8-23.1,8.1-32.1,0.4c-10.3,3.9-21.2,3.9-31.5-0.2c-10.3-6.6-20.2-6.7-30.4-0.2C165,145.1,160.2,149.9,155.2,149.9z"/>
			<linearGradient id="SVGID_47_" gradientUnits="userSpaceOnUse" x1="38.5587" y1="130.4207" x2="271.8368" y2="130.4207">
				<stop  offset="0" style="stop-color:#00FFD5"/>
				<stop  offset="0.4426" style="stop-color:#C74D8A"/>
				<stop  offset="0.5276" style="stop-color:#EE2A7B"/>
				<stop  offset="1" style="stop-color:#41B7FF"/>
			</linearGradient>
			<path class="st46" d="M61.3,149.4c-6.3,0-12.3-4.7-16.5-12.9l-6.2-14.6l1.7-0.7l6.2,14.5c3.8,7.5,9.2,11.8,14.8,11.8
				c5.6,0,11-4.3,14.8-11.9l1.3-2.6c7.6-14.8,11-21.6,15.2-21.6c4.1,0,7.6,6.8,15.2,21.6l0.8,1.6c11.5-8.4,19.8-8.2,31.4,0.6
				c12.4,4,18.1,4,30.6,0l0.3-0.1l0.3,0.1c9.9,2.8,20.9,2.8,30.8,0c9.9-5.2,21.9-5.2,32,0.1l0.2,0.1l0.1,0.2
				c4,6.8,9.3,10.5,14.9,10.5c5.6,0,10.9-3.7,14.9-10.5l6.1-14.4l1.7,0.7l-6.2,14.5c-4.4,7.5-10.3,11.5-16.5,11.5c0,0,0,0,0,0
				c-6.2,0-12-4-16.3-11.2c-9.6-4.9-20.6-4.9-30.2,0.1c-10.5,3-21.4,3-31.7,0.1c-12.6,4.1-18.9,4.1-31.6-0.1l-0.3-0.1
				c-11.4-8.6-18.8-8.6-30.2,0l-0.9,0.7l-1.8-3.6c-6.5-12.8-10.5-20.6-13.5-20.6c-3,0-7,7.8-13.5,20.6l-1.3,2.6
				C73.6,144.7,67.6,149.4,61.3,149.4z"/>
			<linearGradient id="SVGID_48_" gradientUnits="userSpaceOnUse" x1="38.653" y1="128.1712" x2="271.7425" y2="128.1712">
				<stop  offset="0" style="stop-color:#00FFD5"/>
				<stop  offset="0.4426" style="stop-color:#C74D8A"/>
				<stop  offset="0.5276" style="stop-color:#EE2A7B"/>
				<stop  offset="1" style="stop-color:#41B7FF"/>
			</linearGradient>
			<path class="st47" d="M61.3,154.1c-6.4,0-12.3-6.3-16.6-17.7l-6.1-17.8l1.8-0.6l6,17.8c3.9,10.5,9.3,16.5,14.7,16.5
				c5.5,0,10.9-6,14.8-16.5l1.6-4.4c7.6-20.5,10.8-29,14.9-29c4.2,0,7.3,8.5,14.9,29l1.5,4c10.5,3.6,19.6,3.5,30.1-0.1
				c12.2-9,20.1-9,32.3,0.1l0.2,0.2c4.6,5.9,9.8,9.1,14.9,9.1h0c5.1,0,10.3-3.1,14.9-9.1c4.8-7.2,10.5-11.1,16.4-11.1
				c5.9,0,11.6,3.8,16.5,11.1c4.1,10,9.4,15.6,14.9,15.6c5.4,0,10.8-5.6,14.8-15.4l6-17.7l1.8,0.6l-6,17.8
				c-4.4,10.8-10.2,16.7-16.6,16.7c0,0,0,0,0,0c-6.3,0-12.2-5.9-16.5-16.6c-4.4-6.6-9.6-10.1-14.8-10.1c-5.2,0-10.3,3.6-14.9,10.3
				c-5,6.5-10.7,9.9-16.5,9.9c-5.7,0-11.4-3.4-16.3-9.7c-11.6-8.6-18.4-8.6-30.1,0.1l-0.3,0.1c-11.2,3.9-20.7,3.9-31.9,0l-0.4-0.1
				l-1.8-4.8c-6.2-16.7-10.3-27.8-13.1-27.8c-2.8,0-6.9,11-13.1,27.8l-1.6,4.4C73.6,147.8,67.7,154.1,61.3,154.1z"/>
			<linearGradient id="SVGID_49_" gradientUnits="userSpaceOnUse" x1="38.7552" y1="125.9257" x2="271.6383" y2="125.9257">
				<stop  offset="0" style="stop-color:#00FFD5"/>
				<stop  offset="0.4426" style="stop-color:#C74D8A"/>
				<stop  offset="0.5276" style="stop-color:#EE2A7B"/>
				<stop  offset="1" style="stop-color:#41B7FF"/>
			</linearGradient>
			<path class="st48" d="M61.3,158.8C61.3,158.8,61.3,158.8,61.3,158.8c-6.5,0-12.4-8-16.6-22.6l-5.9-21.1l1.9-0.5l5.9,21.1
				c3.9,13.4,9.3,21.1,14.7,21.1c5.4,0,10.8-7.7,14.7-21.1l1.9-6.6c7.6-26.2,10.5-36,14.7-36c4.2,0,7,9.8,14.7,36l1.9,6.5
				c9.7,15.6,19.8,15.6,29.5-0.1c6-11.5,11.2-17,16.5-17s10.6,5.4,16.5,17c4.4,10.5,9.6,16.2,14.8,16.2c5.1,0,10.3-5.7,14.7-16.1
				c4.7-11.9,10.4-18.2,16.6-18.2c6.1,0,11.9,6.3,16.6,18.2c4,13,9.4,20.5,14.7,20.5c5.4,0,10.7-7.4,14.7-20.4l5.9-21.1l1.9,0.5
				l-5.9,21.1c-4.3,14.1-10.2,21.9-16.6,21.9c0,0,0,0,0,0c-6.4,0-12.3-7.8-16.6-21.8c-4.3-10.8-9.5-16.9-14.7-16.9
				c-5.2,0-10.4,6-14.7,16.9c-4.8,11.4-10.5,17.4-16.6,17.4s-11.8-6-16.6-17.3c-5.5-10.7-10.3-15.9-14.7-15.9s-9.2,5.2-14.8,15.9
				c-5.3,8.6-10.9,12.9-16.5,12.9h0c-5.7,0-11.3-4.3-16.5-12.8l-0.1-0.2l-1.9-6.6c-5.9-20.1-10.1-34.5-12.8-34.5
				c-2.7,0-6.9,14.5-12.8,34.5l-1.9,6.6C73.6,150.8,67.7,158.8,61.3,158.8z"/>
			<linearGradient id="SVGID_50_" gradientUnits="userSpaceOnUse" x1="38.863" y1="123.6779" x2="271.5308" y2="123.6779">
				<stop  offset="0" style="stop-color:#00FFD5"/>
				<stop  offset="0.4426" style="stop-color:#C74D8A"/>
				<stop  offset="0.5276" style="stop-color:#EE2A7B"/>
				<stop  offset="1" style="stop-color:#41B7FF"/>
			</linearGradient>
			<path class="st49" d="M61.3,163.5C61.3,163.5,61.3,163.5,61.3,163.5c-6.5,0-12.4-9.7-16.7-27.4l-5.7-24.4l2-0.5l5.7,24.4
				c4,16.4,9.3,25.7,14.6,25.7c5.3,0,10.7-9.4,14.6-25.8l2.2-9.2c8-33,10.5-42.6,14.5-42.6c4,0,6.5,9.5,14.5,42.6l2.2,9.2
				c4.4,13.5,9.6,21,14.6,21c5.1,0,10.3-7.5,14.7-21.1c5.6-18.4,10.9-27,16.6-27c5.8,0,11.1,8.6,16.7,27
				c4.2,14.8,9.5,23.3,14.7,23.3c5.1,0,10.5-8.5,14.7-23.2c4.5-16.5,10.3-25.2,16.7-25.2c6.4,0,12.1,8.7,16.7,25.2
				c4,16.2,9.3,25.4,14.6,25.4c5.3,0,10.6-9.3,14.6-25.4l5.7-24.4l2,0.5l-5.7,24.4c-4.4,17.7-10.1,27-16.7,27c0,0,0,0,0,0
				c-6.5,0-12.3-9.3-16.7-27c-4.1-15-9.5-23.6-14.6-23.6c-5.2,0-10.5,8.6-14.6,23.7c-4.6,16.2-10.3,24.8-16.7,24.8
				c-6.3,0-12.1-8.6-16.7-24.8c-6.4-21.1-11.5-25.5-14.7-25.5c-3.1,0-8.2,4.4-14.7,25.5c-4.8,14.8-10.5,22.5-16.7,22.5l0,0
				c-6.1,0-11.9-7.8-16.6-22.5l-2.2-9.2c-5.5-22.9-9.9-41-12.4-41c-2.5,0-6.9,18.1-12.4,41l-2.2,9.2
				C73.7,153.7,67.7,163.5,61.3,163.5z"/>
			<linearGradient id="SVGID_51_" gradientUnits="userSpaceOnUse" x1="38.9725" y1="121.4326" x2="271.423" y2="121.4326">
				<stop  offset="0" style="stop-color:#00FFD5"/>
				<stop  offset="0.4426" style="stop-color:#C74D8A"/>
				<stop  offset="0.5276" style="stop-color:#EE2A7B"/>
				<stop  offset="1" style="stop-color:#41B7FF"/>
			</linearGradient>
			<path class="st50" d="M249.1,168.2C249.1,168.2,249.1,168.2,249.1,168.2c-8.3,0-13.7-17.5-16.7-32.1c-4-19-9.4-30.4-14.6-30.4
				c-5.2,0-10.6,11.4-14.6,30.4c-3,14.7-8.4,32.1-16.7,32.1l0,0c-8.3,0-13.7-17.5-16.7-32.1c-6.4-30.6-11.9-35.2-14.6-35.2
				c-2.7,0-8.2,4.6-14.6,35.2c-3,14.7-8.4,32.1-16.7,32.1l0,0c-8.3,0-13.7-17.5-16.7-32.1l-2.5-12.1c-5.6-27-9.6-46.5-12.1-47.1
				c-2.5,0.5-6.5,20-12.1,47.1L78,136c-3,14.7-8.4,32.1-16.7,32.1c0,0,0,0,0,0c-8.3,0-13.7-17.5-16.7-32.1L39,108.4l2.1-0.4
				l5.6,27.7c3.9,19,9.4,30.4,14.6,30.4c5.2,0,10.6-11.4,14.6-30.4l2.5-12.1c8-38.7,10.2-48.8,14.2-48.8c4,0,6.3,10.1,14.2,48.8
				l2.5,12.1c3.9,19,9.4,30.4,14.6,30.4c5.2,0,10.6-11.4,14.6-30.4c5.2-24.9,10.6-36.9,16.7-36.9c6.1,0,11.6,12.1,16.7,36.9
				c3.9,19,9.4,30.4,14.6,30.4c5.2,0,10.6-11.4,14.6-30.4c3-14.7,8.4-32.1,16.7-32.1c8.3,0,13.7,17.5,16.7,32.1
				c3.9,19,9.4,30.4,14.6,30.4c5.2,0,10.6-11.4,14.6-30.4l5.6-27.7l2.1,0.4l-5.6,27.7C262.8,150.7,257.4,168.2,249.1,168.2z"/>
		</g>
	</g>
	<g>
		<g>
			<radialGradient id="SVGID_52_" cx="203.6806" cy="185.3883" r="3.3444" gradientUnits="userSpaceOnUse">
				<stop  offset="0" style="stop-color:#FFFFFF"/>
				<stop  offset="0.3703" style="stop-color:#A3A3A3"/>
				<stop  offset="1" style="stop-color:#000000"/>
			</radialGradient>
			<path class="st51" d="M207,185.4c0,1.8-1.5,3.3-3.3,3.3c-1.8,0-3.3-1.5-3.3-3.3c0-1.8,1.5-3.3,3.3-3.3
				C205.5,182,207,183.5,207,185.4z"/>
		</g>
		<g>
			<radialGradient id="SVGID_53_" cx="62.9383" cy="230.295" r="3.4756" gradientUnits="userSpaceOnUse">
				<stop  offset="0" style="stop-color:#FFFFFF"/>
				<stop  offset="0.3703" style="stop-color:#A3A3A3"/>
				<stop  offset="1" style="stop-color:#000000"/>
			</radialGradient>
			<circle class="st52" cx="62.9" cy="230.3" r="3.5"/>
		</g>
		<g>
			<radialGradient id="SVGID_54_" cx="71.7745" cy="215.3293" r="3.0505" gradientUnits="userSpaceOnUse">
				<stop  offset="0" style="stop-color:#FFFFFF"/>
				<stop  offset="0.3703" style="stop-color:#A3A3A3"/>
				<stop  offset="1" style="stop-color:#000000"/>
			</radialGradient>
			<path class="st53" d="M74.8,215.3c0,1.7-1.4,3.1-3.1,3.1c-1.7,0-3.1-1.4-3.1-3.1c0-1.7,1.4-3.1,3.1-3.1
				C73.5,212.3,74.8,213.6,74.8,215.3z"/>
		</g>
		<g>
			<radialGradient id="SVGID_55_" cx="122.3114" cy="270.9828" r="6.7718" gradientUnits="userSpaceOnUse">
				<stop  offset="0" style="stop-color:#FFFFFF"/>
				<stop  offset="0.3703" style="stop-color:#A3A3A3"/>
				<stop  offset="1" style="stop-color:#000000"/>
			</radialGradient>
			<path class="st54" d="M129.1,271c0,3.7-3,6.8-6.8,6.8s-6.8-3-6.8-6.8c0-3.7,3-6.8,6.8-6.8S129.1,267.2,129.1,271z"/>
		</g>
		<g>
			<radialGradient id="SVGID_56_" cx="213.7967" cy="248.1616" r="6.7718" gradientUnits="userSpaceOnUse">
				<stop  offset="0" style="stop-color:#FFFFFF"/>
				<stop  offset="0.3703" style="stop-color:#A3A3A3"/>
				<stop  offset="1" style="stop-color:#000000"/>
			</radialGradient>
			<path class="st55" d="M220.6,248.2c0,3.7-3,6.8-6.8,6.8c-3.7,0-6.8-3-6.8-6.8s3-6.8,6.8-6.8C217.5,241.4,220.6,244.4,220.6,248.2
				z"/>
		</g>
		<g>
			<radialGradient id="SVGID_57_" cx="194.1732" cy="23.109" r="6.7719" gradientUnits="userSpaceOnUse">
				<stop  offset="0" style="stop-color:#FFFFFF"/>
				<stop  offset="0.3703" style="stop-color:#A3A3A3"/>
				<stop  offset="1" style="stop-color:#000000"/>
			</radialGradient>
			<circle class="st56" cx="194.2" cy="23.1" r="6.8"/>
		</g>
		<g>
			<radialGradient id="SVGID_58_" cx="80.7846" cy="56.1063" r="6.7717" gradientUnits="userSpaceOnUse">
				<stop  offset="0" style="stop-color:#FFFFFF"/>
				<stop  offset="0.3703" style="stop-color:#A3A3A3"/>
				<stop  offset="1" style="stop-color:#000000"/>
			</radialGradient>
			<path class="st57" d="M87.6,56.1c0,3.7-3,6.8-6.8,6.8c-3.7,0-6.8-3-6.8-6.8c0-3.7,3-6.8,6.8-6.8C84.5,49.3,87.6,52.4,87.6,56.1z"
				/>
		</g>
		<g>
			<radialGradient id="SVGID_59_" cx="20.3463" cy="196.932" r="6.7719" gradientUnits="userSpaceOnUse">
				<stop  offset="0" style="stop-color:#FFFFFF"/>
				<stop  offset="0.3703" style="stop-color:#A3A3A3"/>
				<stop  offset="1" style="stop-color:#000000"/>
			</radialGradient>
			<circle class="st58" cx="20.3" cy="196.9" r="6.8"/>
		</g>
		<g>
			<radialGradient id="SVGID_60_" cx="289.3077" cy="96.429" r="3.704" gradientUnits="userSpaceOnUse">
				<stop  offset="0" style="stop-color:#FFFFFF"/>
				<stop  offset="0.3703" style="stop-color:#A3A3A3"/>
				<stop  offset="1" style="stop-color:#000000"/>
			</radialGradient>
			<path class="st59" d="M293,96.4c0,2-1.7,3.7-3.7,3.7c-2,0-3.7-1.7-3.7-3.7c0-2,1.7-3.7,3.7-3.7C291.4,92.7,293,94.4,293,96.4z"/>
		</g>
		<g>
			<radialGradient id="SVGID_61_" cx="45.3864" cy="72.3411" r="3.2093" gradientUnits="userSpaceOnUse">
				<stop  offset="0" style="stop-color:#FFFFFF"/>
				<stop  offset="0.3703" style="stop-color:#A3A3A3"/>
				<stop  offset="1" style="stop-color:#000000"/>
			</radialGradient>
			<path class="st60" d="M48.6,72.3c0,1.8-1.4,3.2-3.2,3.2c-1.8,0-3.2-1.4-3.2-3.2c0-1.8,1.4-3.2,3.2-3.2
				C47.2,69.1,48.6,70.6,48.6,72.3z"/>
		</g>
		<g>
			<radialGradient id="SVGID_62_" cx="234.2321" cy="44.2455" r="6.7718" gradientUnits="userSpaceOnUse">
				<stop  offset="0" style="stop-color:#FFFFFF"/>
				<stop  offset="0.3703" style="stop-color:#A3A3A3"/>
				<stop  offset="1" style="stop-color:#000000"/>
			</radialGradient>
			<path class="st61" d="M241,44.2c0,3.7-3,6.8-6.8,6.8s-6.8-3-6.8-6.8c0-3.7,3-6.8,6.8-6.8S241,40.5,241,44.2z"/>
		</g>
		<g>
			<radialGradient id="SVGID_63_" cx="140.335" cy="73.7903" r="6.7718" gradientUnits="userSpaceOnUse">
				<stop  offset="0" style="stop-color:#FFFFFF"/>
				<stop  offset="0.3703" style="stop-color:#A3A3A3"/>
				<stop  offset="1" style="stop-color:#000000"/>
			</radialGradient>
			<path class="st62" d="M147.1,73.8c0,3.7-3,6.8-6.8,6.8c-3.7,0-6.8-3-6.8-6.8c0-3.7,3-6.8,6.8-6.8C144.1,67,147.1,70.1,147.1,73.8
				z"/>
		</g>
		<g>
			<radialGradient id="SVGID_64_" cx="122.3114" cy="220.8712" r="3.9899" gradientUnits="userSpaceOnUse">
				<stop  offset="0" style="stop-color:#FFFFFF"/>
				<stop  offset="0.3703" style="stop-color:#A3A3A3"/>
				<stop  offset="1" style="stop-color:#000000"/>
			</radialGradient>
			<circle class="st63" cx="122.3" cy="220.9" r="4"/>
		</g>
		<g>
			<radialGradient id="SVGID_65_" cx="289.3078" cy="205.2453" r="4.1974" gradientUnits="userSpaceOnUse">
				<stop  offset="0" style="stop-color:#FFFFFF"/>
				<stop  offset="0.3703" style="stop-color:#A3A3A3"/>
				<stop  offset="1" style="stop-color:#000000"/>
			</radialGradient>
			<circle class="st64" cx="289.3" cy="205.2" r="4.2"/>
		</g>
		<g>
			<radialGradient id="SVGID_66_" cx="241.0038" cy="80.562" r="6.7717" gradientUnits="userSpaceOnUse">
				<stop  offset="0" style="stop-color:#FFFFFF"/>
				<stop  offset="0.3703" style="stop-color:#A3A3A3"/>
				<stop  offset="1" style="stop-color:#000000"/>
			</radialGradient>
			<path class="st65" d="M247.8,80.6c0,3.7-3,6.8-6.8,6.8c-3.7,0-6.8-3-6.8-6.8c0-3.7,3-6.8,6.8-6.8
				C244.7,73.8,247.8,76.8,247.8,80.6z"/>
		</g>
		<g>
			<radialGradient id="SVGID_67_" cx="155.8311" cy="108.0598" r="6.7719" gradientUnits="userSpaceOnUse">
				<stop  offset="0" style="stop-color:#FFFFFF"/>
				<stop  offset="0.3703" style="stop-color:#A3A3A3"/>
				<stop  offset="1" style="stop-color:#000000"/>
			</radialGradient>
			<circle class="st66" cx="155.8" cy="108.1" r="6.8"/>
		</g>
		<g>
			<radialGradient id="SVGID_68_" cx="17.1369" cy="154.0804" r="2.8475" gradientUnits="userSpaceOnUse">
				<stop  offset="0" style="stop-color:#FFFFFF"/>
				<stop  offset="0.3703" style="stop-color:#A3A3A3"/>
				<stop  offset="1" style="stop-color:#000000"/>
			</radialGradient>
			<path class="st67" d="M20,154.1c0,1.6-1.3,2.8-2.8,2.8c-1.6,0-2.8-1.3-2.8-2.8c0-1.6,1.3-2.8,2.8-2.8
				C18.7,151.2,20,152.5,20,154.1z"/>
		</g>
	</g>
</g>
</svg>
