<?xml version="1.0" encoding="utf-8"?>
<!-- Generator: Adobe Illustrator 22.0.1, SVG Export Plug-In . SVG Version: 6.00 Build 0)  -->
<svg version="1.1" id="Layer_1" xmlns="http://www.w3.org/2000/svg" xmlns:xlink="http://www.w3.org/1999/xlink" x="0px" y="0px"
	 viewBox="0 0 300 300" style="enable-background:new 0 0 300 300;" xml:space="preserve">
<style type="text/css">
	.st0{filter:url(#Adobe_OpacityMaskFilter);}
	.st1{fill:#FFFFFF;}
	.st2{mask:url(#SVGID_1_);fill:url(#SVGID_2_);}
</style>
<g>
	<defs>
		<filter id="Adobe_OpacityMaskFilter" filterUnits="userSpaceOnUse" x="5.2" y="61.6" width="286.9" height="178.9">
			<feColorMatrix  type="matrix" values="1 0 0 0 0  0 1 0 0 0  0 0 1 0 0  0 0 0 1 0"/>
		</filter>
	</defs>
	<mask maskUnits="userSpaceOnUse" x="5.2" y="61.6" width="286.9" height="178.9" id="SVGID_1_">
		<g class="st0">
			<g>
				<g>
					<g>
						<rect x="285.7" y="141.8" class="st1" width="4.3" height="18.4"/>
					</g>
					<g>
						<rect x="279.3" y="130.4" class="st1" width="4.3" height="41.1"/>
					</g>
					<g>
						<rect x="273" y="105.7" class="st1" width="4.3" height="90.6"/>
					</g>
					<g>
						<rect x="266.7" y="118.2" class="st1" width="4.3" height="65.6"/>
					</g>
					<g>
						<rect x="260.4" y="83" class="st1" width="4.3" height="136"/>
					</g>
					<g>
						<rect x="254" y="130.4" class="st1" width="4.3" height="41.1"/>
					</g>
					<g>
						<rect x="247.7" y="105.7" class="st1" width="4.3" height="90.6"/>
					</g>
					<g>
						<rect x="241.4" y="139.2" class="st1" width="4.3" height="23.5"/>
					</g>
					<g>
						<rect x="235" y="112.3" class="st1" width="4.3" height="77.5"/>
					</g>
					<g>
						<rect x="57.9" y="112.3" class="st1" width="4.3" height="77.5"/>
					</g>
					<g>
						<rect x="51.6" y="130.4" class="st1" width="4.3" height="41.1"/>
					</g>
					<g>
						<rect x="45.2" y="118.2" class="st1" width="4.3" height="65.6"/>
					</g>
					<g>
						<rect x="38.9" y="133.6" class="st1" width="4.3" height="34.7"/>
					</g>
					<g>
						<rect x="32.6" y="98.7" class="st1" width="4.3" height="104.6"/>
					</g>
					<g>
						<rect x="26.3" y="112.3" class="st1" width="4.3" height="77.5"/>
					</g>
					<g>
						<rect x="13.6" y="112.3" class="st1" width="4.3" height="77.5"/>
					</g>
					<g>
						<rect x="7.3" y="141.8" class="st1" width="4.3" height="18.4"/>
					</g>
					<g>
						<rect x="19.9" y="89.8" class="st1" width="4.3" height="122.4"/>
					</g>
				</g>
				<g>
					<path class="st1" d="M233.1,168.5c1.2-5.6,1.8-11.5,1.8-17.5c0-6-0.6-11.8-1.8-17.5V168.5z"/>
					<path class="st1" d="M76.9,103.3c-9.1,13.7-14.4,30.1-14.4,47.7s5.3,34.1,14.4,47.7V103.3z M68.6,162.8h-4.3v-23.5h4.3V162.8z
						 M70.6,181.4v-60.7h4.3v60.7H70.6z"/>
					<path class="st1" d="M197.1,79.7c-13.8-9.4-30.5-14.9-48.4-14.9c-29.3,0-55.2,14.7-70.8,37.1h3.4v98.2h-3.4
						c15.6,22.4,41.5,37.1,70.8,37.1c18,0,34.6-5.5,48.4-14.9V79.7z M87.5,171.6h-4.3v-41.1h4.3V171.6z M93.9,176.7h-4.3v-51.5h4.3
						V176.7z M100.2,162.8h-4.3v-23.5h4.3V162.8z M106.5,189.7h-4.3v-77.5h4.3V189.7z M112.8,179h-4.3V123h4.3V179z M119.2,160.2
						h-4.3v-18.4h4.3V160.2z M125.5,179h-4.3V123h4.3V179z M131.8,162.8h-4.3v-23.5h4.3V162.8z M138.2,189.7h-4.3v-77.5h4.3V189.7z
						 M144.5,207.6h-4.3V94.4h4.3V207.6z M150.8,219h-4.3V83h4.3V219z M157.1,181.4h-4.3v-60.7h4.3V181.4z M163.5,196.3h-4.3v-90.6
						h4.3V196.3z M169.8,189.7h-4.3v-77.5h4.3V189.7z M176.1,171.6h-4.3v-41.1h4.3V171.6z M182.4,189.7h-4.3v-77.5h4.3V189.7z
						 M188.8,212.2h-4.3V89.8h4.3V212.2z M190.8,196.3v-90.6h4.3v90.6H190.8z"/>
					<path class="st1" d="M228.7,171.6v-41.1h3.6c-4.7-19.2-15.8-35.8-30.9-47.6v136.2c15.1-11.7,26.2-28.4,30.9-47.6H228.7z
						 M207.7,189.7h-4.3v-77.5h4.3V189.7z M214.1,203.3h-4.3V98.7h4.3V203.3z M220.4,168.4h-4.3v-34.7h4.3V168.4z M226.7,183.8h-4.3
						v-65.6h4.3V183.8z"/>
				</g>
			</g>
		</g>
	</mask>
	
		<linearGradient id="SVGID_2_" gradientUnits="userSpaceOnUse" x1="22.6615" y1="158.665" x2="294.3875" y2="158.665" gradientTransform="matrix(1.0557 -2.000000e-04 2.000000e-04 1.1128 -18.7459 -25.5344)">
		<stop  offset="0" style="stop-color:#00E66E"/>
		<stop  offset="9.966597e-02" style="stop-color:#00DB8B"/>
		<stop  offset="0.3146" style="stop-color:#00C0D5"/>
		<stop  offset="0.4305" style="stop-color:#00B1FF"/>
		<stop  offset="0.5176" style="stop-color:#2EA8F0"/>
		<stop  offset="0.6955" style="stop-color:#8697D4"/>
		<stop  offset="0.8408" style="stop-color:#C78BBF"/>
		<stop  offset="0.9458" style="stop-color:#F083B2"/>
		<stop  offset="1" style="stop-color:#FF80AD"/>
	</linearGradient>
	<rect x="5.2" y="61.6" class="st2" width="286.9" height="178.8"/>
</g>
</svg>
