<?xml version="1.0" encoding="iso-8859-1"?>
<!-- Uploaded to: SVG Repo, www.svgrepo.com, Generator: SVG Repo Mixer Tools -->
<svg height="800px" width="800px" version="1.1" id="Layer_1" xmlns="http://www.w3.org/2000/svg" xmlns:xlink="http://www.w3.org/1999/xlink" 
	 viewBox="0 0 512 512" xml:space="preserve">
<g transform="translate(0 1)">
	<polygon style="fill:#FCC309;" points="34.133,442.733 477.867,442.733 477.867,67.267 34.133,67.267 	"/>
	<polygon style="fill:#FFFFFF;" points="8.533,442.733 34.133,442.733 34.133,67.267 8.533,67.267 	"/>
	<polygon style="fill:#FD9808;" points="477.867,442.733 503.467,442.733 503.467,67.267 477.867,67.267 	"/>
	<path style="fill:#FFDD09;" d="M435.2,408.6c0-18.773,15.36-34.133,34.133-34.133V135.533c-18.773,0-34.133-15.36-34.133-34.133
		H76.8c0,18.773-15.36,34.133-34.133,34.133v238.933c18.773,0,34.133,15.36,34.133,34.133H435.2z"/>
	<polygon style="fill:#54C9FD;" points="255.147,135.533 274.773,179.053 323.413,173.08 294.4,212.333 323.413,251.587 
		274.773,246.467 255.147,289.133 236.373,246.467 187.733,251.587 216.747,212.333 187.733,173.08 236.373,179.053 	"/>
	<path d="M503.467,451.267H8.533c-5.12,0-8.533-3.413-8.533-8.533v-230.4c0-5.12,3.413-8.533,8.533-8.533s8.533,3.413,8.533,8.533
		V434.2h477.867V75.8H17.067v68.267c0,5.12-3.413,8.533-8.533,8.533S0,149.187,0,144.067v-76.8c0-5.12,3.413-8.533,8.533-8.533
		h494.933c5.12,0,8.533,3.413,8.533,8.533v375.467C512,447.853,508.587,451.267,503.467,451.267z"/>
	<path d="M17.067,178.2c0-5.12-3.413-8.533-8.533-8.533S0,173.08,0,178.2c0,5.12,3.413,8.533,8.533,8.533
		S17.067,183.32,17.067,178.2"/>
	<path d="M196.267,331.8h-76.8c-5.12,0-8.533-3.413-8.533-8.533c0-5.12,3.413-8.533,8.533-8.533h76.8
		c5.12,0,8.533,3.413,8.533,8.533C204.8,328.387,201.387,331.8,196.267,331.8z"/>
	<path d="M170.667,374.467h-51.2c-5.12,0-8.533-3.413-8.533-8.533s3.413-8.533,8.533-8.533h51.2c5.12,0,8.533,3.413,8.533,8.533
		S175.787,374.467,170.667,374.467z"/>
	<path d="M435.2,417.133H76.8c-5.12,0-8.533-3.413-8.533-8.533c0-14.507-11.093-25.6-25.6-25.6c-5.12,0-8.533-3.413-8.533-8.533
		V135.533c0-5.12,3.413-8.533,8.533-8.533c14.507,0,25.6-11.093,25.6-25.6c0-5.12,3.413-8.533,8.533-8.533h358.4
		c5.12,0,8.533,3.413,8.533,8.533c0,14.507,11.093,25.6,25.6,25.6c5.12,0,8.533,3.413,8.533,8.533v238.933
		c0,5.12-3.413,8.533-8.533,8.533c-14.507,0-25.6,11.093-25.6,25.6C443.733,413.72,440.32,417.133,435.2,417.133z M84.48,400.067
		h343.04c3.413-17.067,16.213-29.867,33.28-33.28V143.213c-17.067-3.413-29.867-16.213-33.28-33.28H84.48
		C81.067,127,68.267,139.8,51.2,143.213v223.573C68.267,370.2,81.067,383.853,84.48,400.067z"/>
	<path d="M392.533,374.467h-76.8c-5.12,0-8.533-3.413-8.533-8.533s3.413-8.533,8.533-8.533h76.8c5.12,0,8.533,3.413,8.533,8.533
		S397.653,374.467,392.533,374.467z"/>
	<path d="M392.533,348.867c-2.56,0-4.267-0.853-5.973-2.56l-13.653-13.653c-8.533,1.707-21.333,1.707-32.427-7.68l-19.627,13.653
		c-4.267,2.56-9.387,1.707-11.947-2.56c-2.56-4.267-1.707-9.387,2.56-11.947l25.6-17.067c3.413-2.56,8.533-1.707,11.093,1.707
		c11.947,12.8,23.893,6.827,23.893,6.827c3.413-1.707,7.68-0.853,10.24,1.707l17.067,17.067c3.413,3.413,3.413,8.533,0,11.947
		C396.8,348.013,395.093,348.867,392.533,348.867z"/>
	<path d="M255.147,297.667c-3.413,0-5.973-1.707-7.68-5.12L230.4,255l-41.813,4.267c-3.413,0-6.827-1.707-8.533-4.267
		c-1.707-2.56-1.707-6.827,0.853-9.387l24.747-34.133l-24.747-34.133c-1.707-2.56-2.56-5.973-0.853-9.387
		c1.707-2.56,5.12-4.267,8.533-4.267l41.813,5.973l17.067-37.547c1.707-2.56,5.12-5.12,7.68-5.12l0,0c3.413,0,5.973,1.707,7.68,5.12
		l17.067,37.547l41.813-4.267c3.413,0,6.827,1.707,8.533,4.267c1.707,2.56,1.707,6.827-0.853,9.387l-24.747,34.133l24.747,34.133
		c1.707,2.56,2.56,5.973,0.853,9.387c-1.707,2.56-5.12,4.267-8.533,4.267l-41.813-4.267l-17.067,37.547
		C261.973,295.96,258.56,297.667,255.147,297.667z M236.373,237.933c3.413,0,5.973,1.707,7.68,5.12l11.947,25.6l11.947-25.6
		c1.707-3.413,5.12-5.12,8.533-5.12l29.013,3.413l-17.067-23.893c-2.56-3.413-2.56-6.827,0-10.24l17.067-23.893l-29.013,3.413
		c-3.413,0-6.827-1.707-8.533-5.12L256,156.013l-11.947,25.6c-1.707,3.413-5.12,5.12-8.533,5.12l-29.013-3.413l17.067,23.893
		c2.56,3.413,2.56,6.827,0,10.24l-17.067,23.893l29.013-3.413C235.52,237.933,235.52,237.933,236.373,237.933z"/>
</g>
</svg>