<?xml version="1.0" encoding="utf-8"?>
<!-- Generator: Adobe Illustrator 22.0.1, SVG Export Plug-In . SVG Version: 6.00 Build 0)  -->
<svg version="1.1" id="Layer_1" xmlns="http://www.w3.org/2000/svg" xmlns:xlink="http://www.w3.org/1999/xlink" x="0px" y="0px"
	 viewBox="0 0 300 100" style="enable-background:new 0 0 300 100;" xml:space="preserve">
<style type="text/css">
	.st0{opacity:0.39;}
	.st1{filter:url(#Adobe_OpacityMaskFilter);}
	.st2{filter:url(#Adobe_OpacityMaskFilter_1_);}
	.st3{mask:url(#SVGID_1_);fill:url(#SVGID_2_);}
	.st4{fill:url(#SVGID_3_);}
	.st5{filter:url(#Adobe_OpacityMaskFilter_2_);}
	.st6{filter:url(#Adobe_OpacityMaskFilter_3_);}
	.st7{mask:url(#SVGID_4_);fill:url(#SVGID_5_);}
	.st8{fill:url(#SVGID_6_);}
	.st9{filter:url(#Adobe_OpacityMaskFilter_4_);}
	.st10{filter:url(#Adobe_OpacityMaskFilter_5_);}
	.st11{mask:url(#SVGID_7_);fill:url(#SVGID_8_);}
	.st12{fill:url(#SVGID_9_);}
	.st13{filter:url(#Adobe_OpacityMaskFilter_6_);}
	.st14{filter:url(#Adobe_OpacityMaskFilter_7_);}
	.st15{mask:url(#SVGID_10_);fill:url(#SVGID_11_);}
	.st16{fill:url(#SVGID_12_);}
	.st17{fill:url(#SVGID_13_);}
	.st18{fill:url(#SVGID_14_);}
	.st19{fill:url(#SVGID_15_);}
	.st20{fill:url(#SVGID_16_);}
	.st21{fill:url(#SVGID_17_);}
	.st22{fill:url(#SVGID_18_);}
	.st23{fill:url(#SVGID_19_);}
	.st24{fill:url(#SVGID_20_);}
</style>
<g>
	<g class="st0">
		<defs>
			<filter id="Adobe_OpacityMaskFilter" filterUnits="userSpaceOnUse" x="24.9" y="11.4" width="63.7" height="46.4">
				<feFlood  style="flood-color:white;flood-opacity:1" result="back"/>
				<feBlend  in="SourceGraphic" in2="back" mode="normal"/>
			</filter>
		</defs>
		<mask maskUnits="userSpaceOnUse" x="24.9" y="11.4" width="63.7" height="46.4" id="SVGID_1_">
			<g class="st1">
				<defs>
					<filter id="Adobe_OpacityMaskFilter_1_" filterUnits="userSpaceOnUse" x="24.9" y="11.4" width="63.7" height="46.4">
						<feFlood  style="flood-color:white;flood-opacity:1" result="back"/>
						<feBlend  in="SourceGraphic" in2="back" mode="normal"/>
					</filter>
				</defs>
				<mask maskUnits="userSpaceOnUse" x="24.9" y="11.4" width="63.7" height="46.4" id="SVGID_1_">
					<g class="st2">
					</g>
				</mask>
				
					<linearGradient id="SVGID_2_" gradientUnits="userSpaceOnUse" x1="24.8525" y1="-19.6143" x2="88.5699" y2="-19.6143" gradientTransform="matrix(1 0 0 -1.0123 0 14.706)">
					<stop  offset="0" style="stop-color:#FFFFFF"/>
					<stop  offset="1" style="stop-color:#1A1A1A"/>
				</linearGradient>
				<path class="st3" d="M56.7,57.7c-16.8,0-16.9-46.4-31.9-46.4h63.7C73.6,11.4,73.6,57.7,56.7,57.7z"/>
			</g>
		</mask>
		
			<linearGradient id="SVGID_3_" gradientUnits="userSpaceOnUse" x1="24.8525" y1="-19.6143" x2="88.5699" y2="-19.6143" gradientTransform="matrix(1 0 0 -1.0123 0 14.706)">
			<stop  offset="0" style="stop-color:#CF005B"/>
			<stop  offset="1" style="stop-color:#FF3C97"/>
		</linearGradient>
		<path class="st4" d="M56.7,57.7c-16.8,0-16.9-46.4-31.9-46.4h63.7C73.6,11.4,73.6,57.7,56.7,57.7z"/>
		<defs>
			<filter id="Adobe_OpacityMaskFilter_2_" filterUnits="userSpaceOnUse" x="88.6" y="11.4" width="63.7" height="11.1">
				<feFlood  style="flood-color:white;flood-opacity:1" result="back"/>
				<feBlend  in="SourceGraphic" in2="back" mode="normal"/>
			</filter>
		</defs>
		<mask maskUnits="userSpaceOnUse" x="88.6" y="11.4" width="63.7" height="11.1" id="SVGID_4_">
			<g class="st5">
				<defs>
					<filter id="Adobe_OpacityMaskFilter_3_" filterUnits="userSpaceOnUse" x="88.6" y="11.4" width="63.7" height="11.1">
						<feFlood  style="flood-color:white;flood-opacity:1" result="back"/>
						<feBlend  in="SourceGraphic" in2="back" mode="normal"/>
					</filter>
				</defs>
				<mask maskUnits="userSpaceOnUse" x="88.6" y="11.4" width="63.7" height="11.1" id="SVGID_4_">
					<g class="st6">
					</g>
				</mask>
				
					<linearGradient id="SVGID_5_" gradientUnits="userSpaceOnUse" x1="88.5699" y1="-2.1881" x2="152.2745" y2="-2.1881" gradientTransform="matrix(1 0 0 -1.0123 0 14.706)">
					<stop  offset="0" style="stop-color:#FFFFFF"/>
					<stop  offset="1" style="stop-color:#1A1A1A"/>
				</linearGradient>
				<path class="st7" d="M103.9,16.7c-4-2.8-7.7-5.4-15.3-5.4h63.7c-15.4,0-15.5,11.1-31.9,11.1C112.1,22.5,107.9,19.6,103.9,16.7z"
					/>
			</g>
		</mask>
		
			<linearGradient id="SVGID_6_" gradientUnits="userSpaceOnUse" x1="88.5699" y1="-2.1881" x2="152.2745" y2="-2.1881" gradientTransform="matrix(1 0 0 -1.0123 0 14.706)">
			<stop  offset="0" style="stop-color:#CF005B"/>
			<stop  offset="1" style="stop-color:#FF3C97"/>
		</linearGradient>
		<path class="st8" d="M103.9,16.7c-4-2.8-7.7-5.4-15.3-5.4h63.7c-15.4,0-15.5,11.1-31.9,11.1C112.1,22.5,107.9,19.6,103.9,16.7z"/>
		<defs>
			<filter id="Adobe_OpacityMaskFilter_4_" filterUnits="userSpaceOnUse" x="152.3" y="11.4" width="63.7" height="83.6">
				<feFlood  style="flood-color:white;flood-opacity:1" result="back"/>
				<feBlend  in="SourceGraphic" in2="back" mode="normal"/>
			</filter>
		</defs>
		<mask maskUnits="userSpaceOnUse" x="152.3" y="11.4" width="63.7" height="83.6" id="SVGID_7_">
			<g class="st9">
				<defs>
					<filter id="Adobe_OpacityMaskFilter_5_" filterUnits="userSpaceOnUse" x="152.3" y="11.4" width="63.7" height="83.6">
						<feFlood  style="flood-color:white;flood-opacity:1" result="back"/>
						<feBlend  in="SourceGraphic" in2="back" mode="normal"/>
					</filter>
				</defs>
				<mask maskUnits="userSpaceOnUse" x="152.3" y="11.4" width="63.7" height="83.6" id="SVGID_7_">
					<g class="st10">
					</g>
				</mask>
				
					<linearGradient id="SVGID_8_" gradientUnits="userSpaceOnUse" x1="152.2745" y1="-38.0169" x2="215.9935" y2="-38.0169" gradientTransform="matrix(1 0 0 -1.0123 0 14.706)">
					<stop  offset="0" style="stop-color:#FFFFFF"/>
					<stop  offset="1" style="stop-color:#1A1A1A"/>
				</linearGradient>
				<path class="st11" d="M200.9,52.8c-5,26.3-8.6,42.2-16.8,42.2c-8.1,0-11.7-16-16.7-42.2c-3.7-19.4-7.9-41.4-15.1-41.4H216
					C208.8,11.4,204.6,33.4,200.9,52.8z"/>
			</g>
		</mask>
		
			<linearGradient id="SVGID_9_" gradientUnits="userSpaceOnUse" x1="152.2745" y1="-38.0169" x2="215.9935" y2="-38.0169" gradientTransform="matrix(1 0 0 -1.0123 0 14.706)">
			<stop  offset="0" style="stop-color:#CF005B"/>
			<stop  offset="1" style="stop-color:#FF3C97"/>
		</linearGradient>
		<path class="st12" d="M200.9,52.8c-5,26.3-8.6,42.2-16.8,42.2c-8.1,0-11.7-16-16.7-42.2c-3.7-19.4-7.9-41.4-15.1-41.4H216
			C208.8,11.4,204.6,33.4,200.9,52.8z"/>
		<defs>
			<filter id="Adobe_OpacityMaskFilter_6_" filterUnits="userSpaceOnUse" x="216" y="11.4" width="63.7" height="34.2">
				<feFlood  style="flood-color:white;flood-opacity:1" result="back"/>
				<feBlend  in="SourceGraphic" in2="back" mode="normal"/>
			</filter>
		</defs>
		<mask maskUnits="userSpaceOnUse" x="216" y="11.4" width="63.7" height="34.2" id="SVGID_10_">
			<g class="st13">
				<defs>
					<filter id="Adobe_OpacityMaskFilter_7_" filterUnits="userSpaceOnUse" x="216" y="11.4" width="63.7" height="34.2">
						<feFlood  style="flood-color:white;flood-opacity:1" result="back"/>
						<feBlend  in="SourceGraphic" in2="back" mode="normal"/>
					</filter>
				</defs>
				<mask maskUnits="userSpaceOnUse" x="216" y="11.4" width="63.7" height="34.2" id="SVGID_10_">
					<g class="st14">
					</g>
				</mask>
				
					<linearGradient id="SVGID_11_" gradientUnits="userSpaceOnUse" x1="215.9935" y1="-13.6283" x2="279.7088" y2="-13.6283" gradientTransform="matrix(1 0 0 -1.0123 0 14.706)">
					<stop  offset="0" style="stop-color:#FFFFFF"/>
					<stop  offset="1" style="stop-color:#1A1A1A"/>
				</linearGradient>
				<path class="st15" d="M247.9,45.6c-16.8,0-16.9-34.2-31.9-34.2h63.7C264.7,11.4,264.7,45.6,247.9,45.6z"/>
			</g>
		</mask>
		
			<linearGradient id="SVGID_12_" gradientUnits="userSpaceOnUse" x1="215.9935" y1="-13.6283" x2="279.7088" y2="-13.6283" gradientTransform="matrix(1 0 0 -1.0123 0 14.706)">
			<stop  offset="0" style="stop-color:#CF005B"/>
			<stop  offset="1" style="stop-color:#FF3C97"/>
		</linearGradient>
		<path class="st16" d="M247.9,45.6c-16.8,0-16.9-34.2-31.9-34.2h63.7C264.7,11.4,264.7,45.6,247.9,45.6z"/>
	</g>
	<g>
		
			<linearGradient id="SVGID_13_" gradientUnits="userSpaceOnUse" x1="19.0815" y1="3.7488" x2="288" y2="3.7488" gradientTransform="matrix(1 0 0 -1.0123 0 14.706)">
			<stop  offset="0" style="stop-color:#D844FF"/>
			<stop  offset="1" style="stop-color:#28B7FF"/>
		</linearGradient>
		<rect x="19.1" y="10" class="st17" width="268.9" height="1.8"/>
	</g>
	<g>
		
			<linearGradient id="SVGID_14_" gradientUnits="userSpaceOnUse" x1="24.8525" y1="-37.5523" x2="279.7088" y2="-37.5523" gradientTransform="matrix(1 0 0 -1.0123 0 14.706)">
			<stop  offset="0" style="stop-color:#D844FF"/>
			<stop  offset="1" style="stop-color:#28B7FF"/>
		</linearGradient>
		<path class="st18" d="M279.7,10.4c-16.8,0-16.8,34.2-31.8,34.2c-15,0-15.1-34.2-31.9-34.2c-8.1,0-11.7,16-16.8,42.2
			c-3.7,19.4-7.9,41.4-15.1,41.4c-7.2,0-11.4-22-15.1-41.4c-5-26.3-8.6-42.2-16.8-42.2c-16.4,0-16.5,11.1-31.9,11.1
			c-15.4,0-15.5-11.1-31.9-11.1c-16.9,0-16.9,46.4-31.9,46.4c-15,0-15-46.4-31.9-46.4v0.9c14.9,0,15,46.4,31.9,46.4
			c16.9,0,16.9-46.4,31.9-46.4c7.6,0,11.3,2.6,15.3,5.4c4,2.8,8.2,5.7,16.6,5.7c16.4,0,16.5-11.1,31.9-11.1c7.2,0,11.4,22,15.1,41.4
			C172.4,79,176,95,184.1,95c8.1,0,11.7-16,16.8-42.2c3.7-19.4,7.9-41.4,15.1-41.4c15,0,15.1,34.2,31.9,34.2
			c16.8,0,16.8-34.2,31.8-34.2V10.4z"/>
	</g>
	<g>
		
			<linearGradient id="SVGID_15_" gradientUnits="userSpaceOnUse" x1="24.8525" y1="-31.4693" x2="279.7088" y2="-31.4693" gradientTransform="matrix(1 0 0 -1.0123 0 14.706)">
			<stop  offset="0" style="stop-color:#D844FF"/>
			<stop  offset="1" style="stop-color:#28B7FF"/>
		</linearGradient>
		<path class="st19" d="M279.7,10.4c-16.7,0-16.7,29.2-31.8,29.2c-15.1,0-15.3-29.2-31.9-29.2c-8.1,0-11.7,13.6-16.7,36.1
			c-3.7,16.6-7.9,35.3-15.2,35.3c-7.3,0-11.5-18.8-15.2-35.3c-5-22.5-8.6-36.1-16.7-36.1c-16.3,0-16.4,9.5-31.9,9.5
			c-15.5,0-15.5-9.5-31.9-9.5C71.8,10.4,71.8,50,56.7,50c-15,0-15.1-39.6-31.9-39.6v0.9c15,0,15.1,39.6,31.9,39.6
			c16.8,0,16.8-39.6,31.9-39.6c7.6,0,11.4,2.2,15.4,4.6c4,2.4,8.2,4.9,16.5,4.9c16.3,0,16.4-9.5,31.9-9.5c7.3,0,11.5,18.8,15.2,35.3
			c5,22.5,8.6,36.1,16.7,36.1c8.1,0,11.7-13.6,16.7-36.1c3.7-16.6,7.9-35.3,15.2-35.3c15.1,0,15.3,29.2,31.9,29.2
			c16.7,0,16.7-29.2,31.8-29.2V10.4z"/>
	</g>
	<g>
		<g>
			
				<linearGradient id="SVGID_16_" gradientUnits="userSpaceOnUse" x1="26.1165" y1="-25.6276" x2="280.9744" y2="-25.6276" gradientTransform="matrix(1 0 0 -1.0123 0 14.706)">
				<stop  offset="0" style="stop-color:#D844FF"/>
				<stop  offset="1" style="stop-color:#28B7FF"/>
			</linearGradient>
			<path class="st20" d="M281,10.2c-16.3,0-16.4,24.4-31.8,24.4c-15.4,0-15.6-24.4-31.9-24.4c-16.6,0-16.7,59.6-31.9,59.6
				c-15.3,0-15.2-59.6-31.9-59.6c-16.1,0-16.1,7.9-31.9,7.9c-15.7,0-15.8-7.9-31.9-7.9c-16.4,0-16.5,33-31.9,33
				c-15.4,0-15.4-33-31.9-33v1.3c15.4,0,15.4,33,31.9,33c16.4,0,16.5-33,31.9-33c15.7,0,15.8,7.9,31.9,7.9c16.1,0,16.1-7.9,31.9-7.9
				c15.3,0,15.2,59.6,31.9,59.6c16.6,0,16.7-59.6,31.9-59.6c15.4,0,15.6,24.4,31.9,24.4c16.3,0,16.4-24.4,31.8-24.4V10.2z"/>
		</g>
		<g>
			
				<linearGradient id="SVGID_17_" gradientUnits="userSpaceOnUse" x1="26.1165" y1="-19.0857" x2="280.9744" y2="-19.0857" gradientTransform="matrix(1 0 0 -1.0123 0 14.706)">
				<stop  offset="0" style="stop-color:#D844FF"/>
				<stop  offset="1" style="stop-color:#28B7FF"/>
			</linearGradient>
			<path class="st21" d="M281,10.2c-16.2,0-16.4,19-31.8,19c-15.5,0-15.6-19-31.9-19c-16.5,0-16.6,46.4-31.9,46.4
				c-15.3,0-15.3-46.4-31.9-46.4c-16.1,0-16.1,6.1-31.9,6.1c-15.8,0-15.8-6.1-31.9-6.1c-16.4,0-16.4,25.7-31.9,25.7
				c-15.4,0-15.5-25.7-31.9-25.7v1.3c15.4,0,15.5,25.7,31.9,25.7c16.4,0,16.4-25.7,31.9-25.7c15.8,0,15.8,6.1,31.9,6.1
				c16.1,0,16.1-6.1,31.9-6.1c15.3,0,15.3,46.4,31.9,46.4c16.5,0,16.6-46.4,31.9-46.4c15.5,0,15.6,19,31.9,19
				c16.2,0,16.4-19,31.8-19V10.2z"/>
		</g>
		<g>
			
				<linearGradient id="SVGID_18_" gradientUnits="userSpaceOnUse" x1="26.1165" y1="-12.544" x2="280.9744" y2="-12.544" gradientTransform="matrix(1 0 0 -1.0123 0 14.706)">
				<stop  offset="0" style="stop-color:#D844FF"/>
				<stop  offset="1" style="stop-color:#28B7FF"/>
			</linearGradient>
			<path class="st22" d="M281,10.2c-16.2,0-16.2,13.6-31.8,13.6c-15.5,0-15.7-13.6-31.9-13.6c-16.4,0-16.5,33.1-31.9,33.1
				c-15.4,0-15.4-33.1-31.9-33.1c-16,0-16.1,4.4-31.9,4.4c-15.7,0-15.9-4.4-31.9-4.4c-16.3,0-16.4,18.4-31.9,18.4
				c-15.5,0-15.6-18.4-31.9-18.4v1.3c15.5,0,15.6,18.4,31.9,18.4c16.3,0,16.4-18.4,31.9-18.4c15.7,0,15.9,4.4,31.9,4.4
				c16,0,16.1-4.4,31.9-4.4c15.4,0,15.4,33.1,31.9,33.1c16.4,0,16.5-33.1,31.9-33.1c15.5,0,15.7,13.6,31.9,13.6
				c16.2,0,16.2-13.6,31.8-13.6V10.2z"/>
		</g>
		<g>
			
				<linearGradient id="SVGID_19_" gradientUnits="userSpaceOnUse" x1="26.1165" y1="-6.0021" x2="280.9744" y2="-6.0021" gradientTransform="matrix(1 0 0 -1.0123 0 14.706)">
				<stop  offset="0" style="stop-color:#D844FF"/>
				<stop  offset="1" style="stop-color:#28B7FF"/>
			</linearGradient>
			<path class="st23" d="M281,10.2c-16.1,0-16.1,8.1-31.8,8.1c-15.7,0-15.8-8.1-31.9-8.1c-16.3,0-16.4,19.9-31.9,19.9
				c-15.5,0-15.5-19.9-31.9-19.9c-15.9,0-16.1,2.6-31.9,2.6c-15.7,0-16-2.6-31.9-2.6c-16.1,0-16.3,11-31.9,11
				c-15.6,0-15.7-11-31.9-11v1.3c15.6,0,15.7,11,31.9,11c16.1,0,16.3-11,31.9-11c7.9,0,11.9,0.7,15.8,1.3c10.9,1.8,21.2,1.8,32.1,0
				c3.9-0.6,7.9-1.3,15.8-1.3c15.5,0,15.5,19.9,31.9,19.9c16.3,0,16.4-19.9,31.9-19.9c15.7,0,15.8,8.1,31.9,8.1
				c16.1,0,16.1-8.1,31.8-8.1V10.2z"/>
		</g>
		<g>
			
				<linearGradient id="SVGID_20_" gradientUnits="userSpaceOnUse" x1="26.1165" y1="0.5688" x2="280.9744" y2="0.5688" gradientTransform="matrix(1 0 0 -1.0123 0 14.706)">
				<stop  offset="0" style="stop-color:#D844FF"/>
				<stop  offset="1" style="stop-color:#28B7FF"/>
			</linearGradient>
			<path class="st24" d="M281,10.2c-15.9,0-16.1,2.7-31.8,2.7c-15.7,0-16-2.7-31.9-2.7c-16.1,0-16.1,6.6-31.9,6.6
				c-15.8,0-15.8-6.6-31.9-6.6c-15.9,0-16,0.9-31.9,0.9c-21.7,0-32.2-2.7-47.9,1c-10.7,2.5-20.9,2.5-31.6,0c-4-0.9-8-1.9-16.1-1.9
				v1.3c15.7,0,16,3.7,31.9,3.7c20.6,0,12-5.2,47.8-3.2c10.8,0.6,21,0.6,31.9,0c20.6-1.1,23.9-0.4,31.6,2.8c4,1.7,8.1,3.4,16.2,3.4
				c16.1,0,16.1-6.6,31.9-6.6c7.9,0,11.9,0.7,15.8,1.3c11,1.9,21.3,1.8,32.1,0c3.9-0.7,7.9-1.3,15.8-1.3V10.2z"/>
		</g>
	</g>
</g>
</svg>
