<?xml version="1.0" encoding="utf-8"?>
<!-- Generator: Adobe Illustrator 22.0.1, SVG Export Plug-In . SVG Version: 6.00 Build 0)  -->
<svg version="1.1" id="Layer_1" xmlns="http://www.w3.org/2000/svg" xmlns:xlink="http://www.w3.org/1999/xlink" x="0px" y="0px"
	 viewBox="0 0 280 120" style="enable-background:new 0 0 280 120;" xml:space="preserve">
<style type="text/css">
	.st0{fill:url(#SVGID_1_);}
</style>
<linearGradient id="SVGID_1_" gradientUnits="userSpaceOnUse" x1="-237.5987" y1="504.4561" x2="-237.5987" y2="-24.7972" gradientTransform="matrix(-0.2569 0 0 -0.2569 55.1798 129.9091)">
	<stop  offset="0.2126" style="stop-color:#00FFA6;stop-opacity:0.5"/>
	<stop  offset="0.2576" style="stop-color:#43FF7F;stop-opacity:0.5899"/>
	<stop  offset="0.3136" style="stop-color:#8FFF52;stop-opacity:0.7019"/>
	<stop  offset="0.36" style="stop-color:#C7FF31;stop-opacity:0.7946"/>
	<stop  offset="0.3943" style="stop-color:#EAFF1D;stop-opacity:0.8631"/>
	<stop  offset="0.4128" style="stop-color:#F7FF15;stop-opacity:0.9"/>
	<stop  offset="0.4395" style="stop-color:#F7F918;stop-opacity:0.8591"/>
	<stop  offset="0.5913" style="stop-color:#F9D92A;stop-opacity:0.6264"/>
	<stop  offset="0.7384" style="stop-color:#FAC236;stop-opacity:0.4009"/>
	<stop  offset="0.8775" style="stop-color:#FBB53D;stop-opacity:0.1878"/>
	<stop  offset="1" style="stop-color:#FBB040;stop-opacity:0"/>
</linearGradient>
<path class="st0" d="M14.3,14.5c0,0,0,0.1,0,0.1c0,0.5,0.2,0.9,0.6,1.1c0,1.1,0.1,2.3,0.1,3.3c0.4,14.4,0.5,15.2,1.8,15.3
	c0.3,3.3,0.7,3.3,1.7,3.3c0.4,0,0.8-0.2,1.1-0.4c0.5-0.5,0.7-1.1,0.7-6.6c0.3-0.1,0.5-0.2,0.7-0.4c0.2,4.1,0.5,5,1.2,5.2
	C22.2,50,22.6,50,24.1,50c0.4,0,0.8-0.2,1-0.4c0.4-0.4,0.6-0.9,0.7-4.3c0.5,0.7,1.5,0.5,2.1-0.1c0.3-0.3,0.5-0.7,0.6-1.8
	c0.5,0.8,1.6,0.6,2.2,0c0.4-0.4,0.6-1.2,0.8-4.3c0.1,0,0.2-0.1,0.3-0.1c0,0.2,0,0.3,0,0.5c0.2,11.8,0.3,12.2,2,12.2
	c0.4,0,0.8-0.2,1.1-0.5c0.5-0.5,0.7-1.5,0.8-5.5c0,0,0.1,0,0.1,0.1c0.1,12.4,0.4,14.6,1.1,15.3c0.5,0.5,1.6,0.5,2.1,0c0,0,0,0,0,0
	c0.2,1.5,0.4,2,0.7,2.3c0.2,0.2,0.4,0.3,0.6,0.4c0.2,2.1,0.4,2.9,0.8,3.2c0.5,0.5,1.6,0.5,2.1,0c0.8-0.8,1.1-3.7,1-17.8
	c0.1,0.1,0.2,0.1,0.3,0.2c0.2,2.9,0.4,3.7,0.8,4.1c0.1,0.1,0.2,0.2,0.4,0.3c0.2,5.5,0.5,6.9,1,7.4c0.5,0.5,1.6,0.5,2.1,0
	c0.7-0.7,1-2.8,0.9-14.8c0.1,0.1,0.3,0.1,0.4,0.1c0.2,2,0.4,2.7,0.7,3c0.1,0.1,0.3,0.3,0.6,0.3c0.2,3.6,0.5,4.5,0.9,4.9
	c0.5,0.5,1.6,0.5,2.1,0c0.5-0.5,0.8-1.7,0.8-6.9c0.2-0.1,0.4-0.2,0.5-0.3c0.2,4,0.4,4.9,0.9,5.3c0.5,0.5,1.6,0.5,2.1,0
	c0.6-0.6,0.8-1.9,0.8-9.1c0.3,0.3,0.8,0.3,1.3,0.2c0.5,0.7,1.5,0.5,2.1-0.1c0.5-0.5,0.8-1.7,0.8-8c0.5,0.6,1.5,0.5,2.1-0.1
	c0.5-0.5,0.7-1.1,0.7-6.9c0.2-0.1,0.4-0.2,0.6-0.3c0.2,6.4,0.6,6.4,1.8,6.4c0.4,0,0.8-0.2,1.1-0.5c0.6-0.6,0.8-1.7,0.6-9.6
	c0.2-0.1,0.4-0.2,0.6-0.3c0.2,7.5,0.6,7.5,1.8,7.5c0,0,0,0,0,0c0.1,4.4,0,7.7-0.2,8.8c-0.2,0.3-0.3,0.6-0.3,1c0,1,0.8,1.8,1.8,1.8
	c0.5,0,1-0.2,1.4-0.6c0.4-0.4,0.6-1,0.8-2.7c0.2,0.3,0.3,0.4,0.6,0.5c0,2.1,0,4.2,0.1,6.1c0.2,16.4,0.5,16.4,2.6,16.4
	c0.4,0,0.8-0.2,1.2-0.4c0.2,6.1,0.6,6.9,1.1,7.5c0.2,0.2,0.4,0.3,0.6,0.4c0.2,6,0.6,7.5,1.2,8.1c0.7,0.7,2,0.7,2.7,0
	c0.7-0.7,1.1-2.6,1.1-11.5c0.1,0.1,0.2,0.1,0.4,0.2c0.2,8.9,0.6,10.6,1.2,11.3c0.1,0.1,0.2,0.2,0.3,0.2c0.2,11.8,0.7,14.7,1.5,15.5
	c0.7,0.7,2.1,0.7,2.8,0c0.6-0.6,1-2.3,1.2-7.8c0,0,0.1,0,0.1,0c0.3,7.3,0.7,9.4,1.4,10.1c0.1,0.1,0.2,0.2,0.4,0.3
	c0.2,8.6,0.7,11.7,1.4,12.4c0.7,0.7,2.1,0.7,2.8,0c0.4-0.4,0.6-1.2,0.9-2.9c0.3-0.1,0.7-0.3,0.9-0.5c0.2,2.1,0.6,3.1,0.9,3.5
	c0.7,0.7,2.1,0.7,2.8,0c0.9-1,1.4-5,1.4-18.1c0.7,0.4,1.7,0.2,2.2-0.4c0.3-0.3,0.6-1,0.8-2.3c0.4-0.1,0.8-0.3,1-0.6
	c0.9-0.9,1.3-3.8,1.2-16.5c0.6,0.3,1.8,0.2,2.4-0.5c0.7-0.8,1.1-2.8,1.2-12.2c0.3-0.1,0.5-0.3,0.7-0.4c0.1-0.1,0.1-0.2,0.2-0.3
	c0.4,2.3,1,2.3,2,2.3c0.5,0,1-0.2,1.4-0.6c0.8-0.9,1.2-2.9,1-15.7c0.3-0.1,0.6-0.3,0.8-0.5c0,0,0,0,0.1-0.1c0.3,3.7,0.9,3.7,2.1,3.7
	c0.5,0,1-0.2,1.3-0.6c0.7-0.7,1-1.7,0.9-13.3c0.3-0.1,0.7-0.3,0.9-0.5c0.1-0.1,0.2-0.2,0.2-0.3c0.5,0,1.2-0.2,1.6-0.6
	c0.1-0.1,0.1-0.2,0.2-0.3c0.2,20.4,0.5,20.4,2.6,20.4c0.5,0,1-0.2,1.3-0.6c0.8-0.8,1.1-1.1,0.7-23.4c0.1,0,0.2,0,0.3-0.1
	c0.3,0.4,0.7,0.4,1.4,0.4c0.3,0,0.7-0.1,1-0.3c0.3,21.2,0.4,22.7,2.2,22.8c0.4,4.3,1,4.3,2.2,4.3c0.5,0,1-0.2,1.4-0.6
	c0.6-0.7,1-2,1-8.5c0.3-0.1,0.5-0.2,0.7-0.4c0.2,5.3,0.6,6.4,1.5,6.7c0.1,14.9,0.5,17.3,1.4,18.2c0.7,0.7,2,0.7,2.7,0
	c0.5-0.5,0.8-1.6,1-5.4c0.6,0.6,2,0.5,2.7-0.3c0.3-0.3,0.6-1,0.8-2.4c0,0,0.1,0.1,0.1,0.1c0.7,0.7,2,0.7,2.7,0
	c0.5-0.5,0.9-1.7,1-5.6c0.1,0,0.2-0.1,0.3-0.1c0.2,12.8,0.6,15.1,1.3,15.9c0.7,0.7,2.1,0.7,2.7,0c0.7-0.7,1.1-2.6,1.2-9.3
	c0.2,12.2,0.6,14.7,1.4,15.5c0.7,0.7,2.1,0.7,2.7,0c0.4-0.4,0.8-1.5,1-4.4c0.3,0.2,0.6,0.4,1,0.5c0.2,1.2,0.4,1.7,0.7,2
	c0.7,0.7,2.1,0.7,2.7,0c1-1,1.4-4.2,1.1-23.4c0.2,0.1,0.4,0.2,0.6,0.2c0.3,4.3,0.7,5.3,1.5,5.5c0.2,7,0.6,8.6,1.2,9.2
	c0.7,0.7,2.1,0.7,2.7,0c0.9-0.9,1.3-3.5,1-19.6c0.2,0.2,0.5,0.2,0.7,0.2c0.2,2.8,0.5,3.3,0.9,3.8c0.2,0.2,0.5,0.4,0.7,0.5
	c0.3,6.7,0.9,6.7,2.4,6.7c0.5,0,1-0.2,1.4-0.6c0.6-0.6,1-1.6,1-9.1c0.3-0.1,0.5-0.2,0.7-0.4c0.3,7.2,1,7.2,2.4,7.2
	c0.5,0,1-0.2,1.4-0.6c0.7-0.7,1.1-1.7,0.9-12.2c0.4,0.6,1.1,0.6,1.9,0.3c0.6,0.6,1.9,0.5,2.6-0.2c0.7-0.7,1-1.5,0.9-10.9
	c0.3,0.6,0.8,0.6,1.4,0.6c0.5,0,1-0.2,1.4-0.6c0.6-0.7,0.9-1.4,0.8-9.1c0.3-0.1,0.7-0.2,0.9-0.4c0.4,7.9,0.7,7.9,2.3,7.9
	c0.5,0,1-0.2,1.4-0.6c0.8-0.9,1-1.9,0.5-12.6c0.4,0,0.9-0.2,1.2-0.5c0.4,6.4,0.8,6.4,2.3,6.4c0.5,0,1-0.2,1.3-0.6c0,0,0,0,0,0
	c0.3,6,0.8,6,2.2,6c0.5,0,1-0.2,1.3-0.5c0.7-0.7,0.8-0.8,0.5-15.1H14.3z"/>
</svg>
