<?xml version="1.0" encoding="utf-8"?>
<!-- Generator: Adobe Illustrator 22.0.1, SVG Export Plug-In . SVG Version: 6.00 Build 0)  -->
<svg version="1.1" id="Layer_1" xmlns="http://www.w3.org/2000/svg" xmlns:xlink="http://www.w3.org/1999/xlink" x="0px" y="0px"
	 viewBox="0 0 300 200" style="enable-background:new 0 0 300 200;" xml:space="preserve">
<style type="text/css">
	.st0{fill:url(#SVGID_1_);}
	.st1{fill:url(#SVGID_2_);}
	.st2{fill:url(#SVGID_3_);}
	.st3{fill:url(#SVGID_4_);}
	.st4{fill:url(#SVGID_5_);}
	.st5{fill:url(#SVGID_6_);}
	.st6{fill:url(#SVGID_7_);}
	.st7{fill:url(#SVGID_8_);}
	.st8{fill:url(#SVGID_9_);}
	.st9{fill:url(#SVGID_10_);}
	.st10{fill:url(#SVGID_11_);}
	.st11{fill:url(#SVGID_12_);}
	.st12{fill:url(#SVGID_13_);}
	.st13{fill:url(#SVGID_14_);}
	.st14{fill:url(#SVGID_15_);}
	.st15{fill:url(#SVGID_16_);}
	.st16{fill:url(#SVGID_17_);}
	.st17{fill:url(#SVGID_18_);}
	.st18{fill:url(#SVGID_19_);}
	.st19{fill:url(#SVGID_20_);}
	.st20{fill:url(#SVGID_21_);}
	.st21{fill:url(#SVGID_22_);}
	.st22{fill:url(#SVGID_23_);}
	.st23{fill:url(#SVGID_24_);}
	.st24{fill:url(#SVGID_25_);}
	.st25{fill:url(#SVGID_26_);}
	.st26{fill:url(#SVGID_27_);}
	.st27{fill:url(#SVGID_28_);}
	.st28{fill:url(#SVGID_29_);}
	.st29{fill:url(#SVGID_30_);}
	.st30{fill:url(#SVGID_31_);}
	.st31{fill:url(#SVGID_32_);}
	.st32{fill:url(#SVGID_33_);}
	.st33{fill:url(#SVGID_34_);}
	.st34{fill:url(#SVGID_35_);}
	.st35{fill:url(#SVGID_36_);}
	.st36{fill:url(#SVGID_37_);}
	.st37{fill:url(#SVGID_38_);}
	.st38{fill:url(#SVGID_39_);}
	.st39{fill:url(#SVGID_40_);}
	.st40{fill:url(#SVGID_41_);}
	.st41{fill:url(#SVGID_42_);}
	.st42{fill:url(#SVGID_43_);}
	.st43{fill:url(#SVGID_44_);}
	.st44{fill:url(#SVGID_45_);}
	.st45{fill:url(#SVGID_46_);}
	.st46{fill:url(#SVGID_47_);}
	.st47{fill:url(#SVGID_48_);}
	.st48{fill:url(#SVGID_49_);}
	.st49{fill:url(#SVGID_50_);}
	.st50{fill:url(#SVGID_51_);}
	.st51{fill:url(#SVGID_52_);}
	.st52{fill:url(#SVGID_53_);}
	.st53{fill:url(#SVGID_54_);}
	.st54{fill:url(#SVGID_55_);}
	.st55{fill:url(#SVGID_56_);}
	.st56{fill:url(#SVGID_57_);}
	.st57{fill:url(#SVGID_58_);}
	.st58{fill:url(#SVGID_59_);}
	.st59{fill:url(#SVGID_60_);}
	.st60{fill:url(#SVGID_61_);}
	.st61{fill:url(#SVGID_62_);}
	.st62{fill:url(#SVGID_63_);}
</style>
<g>
	<g>
		<g>
			<g>
				
					<linearGradient id="SVGID_1_" gradientUnits="userSpaceOnUse" x1="146.7102" y1="73.4863" x2="146.7102" y2="64.3051" gradientTransform="matrix(2.1403 4.590990e-03 -3.944495e-03 1.8389 -256.5391 -118.4326)">
					<stop  offset="0" style="stop-color:#00FFD5"/>
					<stop  offset="1" style="stop-color:#41B7FF"/>
				</linearGradient>
				<polygon class="st0" points="53.6,8.9 53.6,17.4 60.8,17.4 60.8,8.9 60.8,0.5 53.6,0.5 				"/>
			</g>
			<g>
				
					<linearGradient id="SVGID_2_" gradientUnits="userSpaceOnUse" x1="151.7511" y1="80.165" x2="151.7511" y2="57.6264" gradientTransform="matrix(2.1403 4.590990e-03 -3.944495e-03 1.8389 -256.5391 -118.4326)">
					<stop  offset="0" style="stop-color:#00FFD5"/>
					<stop  offset="1" style="stop-color:#41B7FF"/>
				</linearGradient>
				<polygon class="st1" points="64.4,9 64.3,29.7 71.5,29.7 71.6,9 71.6,-11.8 64.4,-11.8 				"/>
			</g>
			<g>
				
					<linearGradient id="SVGID_3_" gradientUnits="userSpaceOnUse" x1="156.7917" y1="100.7589" x2="156.7917" y2="37.0327" gradientTransform="matrix(2.1403 4.590990e-03 -3.944495e-03 1.8389 -256.5391 -118.4326)">
					<stop  offset="0" style="stop-color:#00FFD5"/>
					<stop  offset="1" style="stop-color:#41B7FF"/>
				</linearGradient>
				<polygon class="st2" points="75.2,9 75.1,67.6 82.2,67.6 82.4,9 82.5,-49.6 75.3,-49.6 				"/>
			</g>
			<g>
				
					<linearGradient id="SVGID_4_" gradientUnits="userSpaceOnUse" x1="136.6286" y1="70.4262" x2="136.6286" y2="67.3651" gradientTransform="matrix(2.1403 4.590990e-03 -3.944495e-03 1.8389 -256.5391 -118.4326)">
					<stop  offset="0" style="stop-color:#00FFD5"/>
					<stop  offset="1" style="stop-color:#41B7FF"/>
				</linearGradient>
				<polygon class="st3" points="32,8.9 32,11.7 39.2,11.7 39.2,8.9 39.2,6.1 32,6.1 				"/>
			</g>
			<g>
				
					<linearGradient id="SVGID_5_" gradientUnits="userSpaceOnUse" x1="141.6694" y1="72.4346" x2="141.6694" y2="65.3567" gradientTransform="matrix(2.1403 4.590990e-03 -3.944495e-03 1.8389 -256.5391 -118.4326)">
					<stop  offset="0" style="stop-color:#00FFD5"/>
					<stop  offset="1" style="stop-color:#41B7FF"/>
				</linearGradient>
				<polygon class="st4" points="42.8,8.9 42.8,15.4 50,15.4 50,8.9 50,2.4 42.8,2.4 				"/>
			</g>
			<g>
				
					<linearGradient id="SVGID_6_" gradientUnits="userSpaceOnUse" x1="161.8326" y1="119.085" x2="161.8326" y2="18.7066" gradientTransform="matrix(2.1403 4.590990e-03 -3.944495e-03 1.8389 -256.5391 -118.4326)">
					<stop  offset="0" style="stop-color:#00FFD5"/>
					<stop  offset="1" style="stop-color:#41B7FF"/>
				</linearGradient>
				<polygon class="st5" points="86,9 85.8,101.3 93,101.3 93.2,9 93.4,-83.3 86.2,-83.3 				"/>
			</g>
			<g>
				
					<linearGradient id="SVGID_7_" gradientUnits="userSpaceOnUse" x1="166.8734" y1="93.9903" x2="166.8734" y2="43.8012" gradientTransform="matrix(2.1403 4.590990e-03 -3.944495e-03 1.8389 -256.5391 -118.4326)">
					<stop  offset="0" style="stop-color:#00FFD5"/>
					<stop  offset="1" style="stop-color:#41B7FF"/>
				</linearGradient>
				<polygon class="st6" points="96.8,9 96.7,55.2 103.9,55.2 104,9 104.1,-37.1 96.9,-37.1 				"/>
			</g>
			<g>
				
					<linearGradient id="SVGID_8_" gradientUnits="userSpaceOnUse" x1="171.9142" y1="74.8994" x2="171.9142" y2="62.892" gradientTransform="matrix(2.1403 4.590990e-03 -3.944495e-03 1.8389 -256.5391 -118.4326)">
					<stop  offset="0" style="stop-color:#00FFD5"/>
					<stop  offset="1" style="stop-color:#41B7FF"/>
				</linearGradient>
				<polygon class="st7" points="107.5,9 107.5,20.1 114.7,20.1 114.7,9.1 114.8,-2 107.6,-2 				"/>
			</g>
			<g>
				
					<linearGradient id="SVGID_9_" gradientUnits="userSpaceOnUse" x1="176.9551" y1="98.3772" x2="176.9551" y2="39.4141" gradientTransform="matrix(2.1403 4.590990e-03 -3.944495e-03 1.8389 -256.5391 -118.4326)">
					<stop  offset="0" style="stop-color:#41B7FF"/>
					<stop  offset="0.6359" style="stop-color:#15E8E2"/>
					<stop  offset="1" style="stop-color:#00FFD5"/>
				</linearGradient>
				<polygon class="st8" points="118.3,9.1 118.2,63.3 125.4,63.3 125.5,9.1 125.6,-45.1 118.5,-45.1 				"/>
			</g>
			<g>
				
					<linearGradient id="SVGID_10_" gradientUnits="userSpaceOnUse" x1="181.9958" y1="115.858" x2="181.9958" y2="21.9333" gradientTransform="matrix(2.1403 4.590990e-03 -3.944495e-03 1.8389 -256.5391 -118.4326)">
					<stop  offset="0" style="stop-color:#41B7FF"/>
					<stop  offset="0.6359" style="stop-color:#15E8E2"/>
					<stop  offset="1" style="stop-color:#00FFD5"/>
				</linearGradient>
				<polygon class="st9" points="129.1,9.1 128.9,95.4 136.1,95.5 136.3,9.1 136.5,-77.3 129.3,-77.3 				"/>
			</g>
			<g>
				
					<linearGradient id="SVGID_11_" gradientUnits="userSpaceOnUse" x1="187.0367" y1="127.4354" x2="187.0367" y2="10.356" gradientTransform="matrix(2.1403 4.590990e-03 -3.944495e-03 1.8389 -256.5391 -118.4326)">
					<stop  offset="0" style="stop-color:#41B7FF"/>
					<stop  offset="0.6359" style="stop-color:#15E8E2"/>
					<stop  offset="1" style="stop-color:#00FFD5"/>
				</linearGradient>
				<polygon class="st10" points="139.9,9.1 139.7,116.8 146.9,116.8 147.1,9.1 147.3,-98.5 140.1,-98.5 				"/>
			</g>
			<g>
				
					<linearGradient id="SVGID_12_" gradientUnits="userSpaceOnUse" x1="192.0775" y1="87.4866" x2="192.0775" y2="50.3046" gradientTransform="matrix(2.1403 4.590990e-03 -3.944495e-03 1.8389 -256.5391 -118.4326)">
					<stop  offset="0" style="stop-color:#41B7FF"/>
					<stop  offset="0.6359" style="stop-color:#15E8E2"/>
					<stop  offset="1" style="stop-color:#00FFD5"/>
				</linearGradient>
				<polygon class="st11" points="150.7,9.1 150.6,43.3 157.8,43.3 157.9,9.2 158,-25 150.8,-25.1 				"/>
			</g>
			<g>
				
					<linearGradient id="SVGID_13_" gradientUnits="userSpaceOnUse" x1="197.1182" y1="78.1912" x2="197.1182" y2="59.6002" gradientTransform="matrix(2.1403 4.590990e-03 -3.944495e-03 1.8389 -256.5391 -118.4326)">
					<stop  offset="0" style="stop-color:#41B7FF"/>
					<stop  offset="0.6359" style="stop-color:#15E8E2"/>
					<stop  offset="1" style="stop-color:#00FFD5"/>
				</linearGradient>
				<polygon class="st12" points="161.5,9.2 161.5,26.3 168.6,26.3 168.7,9.2 168.7,-7.9 161.5,-7.9 				"/>
			</g>
			<g>
				
					<linearGradient id="SVGID_14_" gradientUnits="userSpaceOnUse" x1="202.1591" y1="71.2651" x2="202.1591" y2="66.5263" gradientTransform="matrix(2.1403 4.590990e-03 -3.944495e-03 1.8389 -256.5391 -118.4326)">
					<stop  offset="0" style="stop-color:#00FFD5"/>
					<stop  offset="1" style="stop-color:#41B7FF"/>
				</linearGradient>
				<polygon class="st13" points="172.3,9.2 172.3,13.5 179.5,13.6 179.5,9.2 179.5,4.8 172.3,4.8 				"/>
			</g>
			<g>
				
					<linearGradient id="SVGID_15_" gradientUnits="userSpaceOnUse" x1="207.1998" y1="87.4866" x2="207.1998" y2="50.3046" gradientTransform="matrix(2.1403 4.590990e-03 -3.944495e-03 1.8389 -256.5391 -118.4326)">
					<stop  offset="0" style="stop-color:#00FFD5"/>
					<stop  offset="1" style="stop-color:#41B7FF"/>
				</linearGradient>
				<polygon class="st14" points="183.1,9.2 183,43.4 190.2,43.4 190.3,9.2 190.3,-25 183.1,-25 				"/>
			</g>
			<g>
				
					<linearGradient id="SVGID_16_" gradientUnits="userSpaceOnUse" x1="212.2406" y1="99.5641" x2="212.2406" y2="38.2273" gradientTransform="matrix(2.1403 4.590990e-03 -3.944495e-03 1.8389 -256.5391 -118.4326)">
					<stop  offset="0" style="stop-color:#00FFD5"/>
					<stop  offset="1" style="stop-color:#41B7FF"/>
				</linearGradient>
				<polygon class="st15" points="193.9,9.2 193.7,65.6 200.9,65.6 201.1,9.2 201.2,-47.2 194,-47.2 				"/>
			</g>
			<g>
				
					<linearGradient id="SVGID_17_" gradientUnits="userSpaceOnUse" x1="217.2814" y1="115.858" x2="217.2814" y2="21.9333" gradientTransform="matrix(2.1403 4.590990e-03 -3.944495e-03 1.8389 -256.5391 -118.4326)">
					<stop  offset="0" style="stop-color:#00FFD5"/>
					<stop  offset="1" style="stop-color:#41B7FF"/>
				</linearGradient>
				<polygon class="st16" points="204.6,9.3 204.5,95.6 211.7,95.6 211.8,9.3 212,-77.1 204.8,-77.1 				"/>
			</g>
			<g>
				
					<linearGradient id="SVGID_18_" gradientUnits="userSpaceOnUse" x1="222.3222" y1="93.9902" x2="222.3222" y2="43.8012" gradientTransform="matrix(2.1403 4.590990e-03 -3.944495e-03 1.8389 -256.5391 -118.4326)">
					<stop  offset="0" style="stop-color:#00FFD5"/>
					<stop  offset="1" style="stop-color:#41B7FF"/>
				</linearGradient>
				<polygon class="st17" points="215.5,-36.9 215.4,9.3 215.3,55.4 222.5,55.4 222.6,9.3 222.7,-36.9 				"/>
			</g>
			<g>
				
					<linearGradient id="SVGID_19_" gradientUnits="userSpaceOnUse" x1="228.1258" y1="80.165" x2="228.1258" y2="57.6264" gradientTransform="matrix(2.1403 4.590990e-03 -3.944495e-03 1.8389 -256.5391 -118.4326)">
					<stop  offset="0" style="stop-color:#00FFD5"/>
					<stop  offset="1" style="stop-color:#41B7FF"/>
				</linearGradient>
				<polygon class="st18" points="227.9,9.3 227.8,30 235,30 235.1,9.3 235.1,-11.4 227.9,-11.4 				"/>
			</g>
			<g>
				
					<linearGradient id="SVGID_20_" gradientUnits="userSpaceOnUse" x1="233.1665" y1="76.2686" x2="233.1665" y2="61.5227" gradientTransform="matrix(2.1403 4.590990e-03 -3.944495e-03 1.8389 -256.5391 -118.4326)">
					<stop  offset="0" style="stop-color:#00FFD5"/>
					<stop  offset="1" style="stop-color:#41B7FF"/>
				</linearGradient>
				<polygon class="st19" points="238.7,-4.2 238.6,9.3 238.6,22.9 245.8,22.9 245.8,9.3 245.9,-4.2 				"/>
			</g>
			<g>
				
					<linearGradient id="SVGID_21_" gradientUnits="userSpaceOnUse" x1="238.97" y1="73.53" x2="238.97" y2="64.2613" gradientTransform="matrix(2.1403 4.590990e-03 -3.944495e-03 1.8389 -256.5391 -118.4326)">
					<stop  offset="0" style="stop-color:#00FFD5"/>
					<stop  offset="1" style="stop-color:#41B7FF"/>
				</linearGradient>
				<polygon class="st20" points="251.1,9.4 251.1,17.9 258.2,17.9 258.3,9.4 258.3,0.8 251.1,0.8 				"/>
			</g>
			<g>
				
					<linearGradient id="SVGID_22_" gradientUnits="userSpaceOnUse" x1="244.0109" y1="72.4346" x2="244.0109" y2="65.3567" gradientTransform="matrix(2.1403 4.590990e-03 -3.944495e-03 1.8389 -256.5391 -118.4326)">
					<stop  offset="0" style="stop-color:#00FFD5"/>
					<stop  offset="1" style="stop-color:#41B7FF"/>
				</linearGradient>
				<polygon class="st21" points="261.9,2.9 261.9,9.4 261.8,15.9 269,15.9 269.1,9.4 269.1,2.9 				"/>
			</g>
			<g>
				
					<linearGradient id="SVGID_23_" gradientUnits="userSpaceOnUse" x1="249.8144" y1="70.4262" x2="249.8144" y2="67.3651" gradientTransform="matrix(2.1403 4.590990e-03 -3.944495e-03 1.8389 -256.5391 -118.4326)">
					<stop  offset="0" style="stop-color:#00FFD5"/>
					<stop  offset="1" style="stop-color:#41B7FF"/>
				</linearGradient>
				<polygon class="st22" points="274.3,9.4 274.3,12.2 281.5,12.2 281.5,9.4 281.5,6.6 274.3,6.6 				"/>
			</g>
		</g>
		
			<radialGradient id="SVGID_24_" cx="166.0235" cy="99.9589" r="28.0886" gradientTransform="matrix(3.1051 6.660301e-03 -6.150715e-03 2.8675 -339.0107 -282.9656)" gradientUnits="userSpaceOnUse">
			<stop  offset="0" style="stop-color:#FFFFFF"/>
			<stop  offset="0.3703" style="stop-color:#A3A3A3"/>
			<stop  offset="1" style="stop-color:#000000"/>
		</radialGradient>
		<polygon class="st23" points="179.5,-109.1 172.7,-109.1 172.2,118.6 179.1,118.6 		"/>
		
			<radialGradient id="SVGID_25_" cx="145.1755" cy="112.5283" r="28.0887" gradientTransform="matrix(3.1051 6.660301e-03 -9.258671e-03 4.3164 -338.5919 -478.2293)" gradientUnits="userSpaceOnUse">
			<stop  offset="0" style="stop-color:#FFFFFF"/>
			<stop  offset="1" style="stop-color:#000000"/>
		</radialGradient>
		<polygon class="st24" points="114.9,-162.9 108.1,-162.9 107.4,179.8 114.2,179.9 		"/>
		
			<radialGradient id="SVGID_26_" cx="124.3276" cy="112.5283" r="14.0072" gradientTransform="matrix(3.1051 6.660301e-03 -9.258671e-03 4.3164 -338.5919 -478.2293)" gradientUnits="userSpaceOnUse">
			<stop  offset="0" style="stop-color:#FFFFFF"/>
			<stop  offset="1" style="stop-color:#000000"/>
		</radialGradient>
		<polygon class="st25" points="50,-77 43.2,-77.1 42.8,93.7 49.6,93.7 		"/>
		
			<radialGradient id="SVGID_27_" cx="191.3975" cy="113.1926" r="9.3207" gradientTransform="matrix(3.1051 6.660301e-03 -9.258671e-03 4.3164 -338.5919 -478.2293)" gradientUnits="userSpaceOnUse">
			<stop  offset="0" style="stop-color:#FFFFFF"/>
			<stop  offset="1" style="stop-color:#000000"/>
		</radialGradient>
		<polygon class="st26" points="258.2,-45.1 251.4,-45.1 251.1,68.3 258,68.3 		"/>
		<g>
			<g>
				
					<radialGradient id="SVGID_28_" cx="156.5399" cy="93.9394" r="0.5983" gradientTransform="matrix(3.1051 6.660301e-03 -6.150715e-03 2.8675 -339.0107 -282.9656)" gradientUnits="userSpaceOnUse">
					<stop  offset="0" style="stop-color:#FFFFFF"/>
					<stop  offset="0.3703" style="stop-color:#A3A3A3"/>
					<stop  offset="1" style="stop-color:#000000"/>
				</radialGradient>
				<path class="st27" d="M148.3-12.6c0,0.9-0.8,1.7-1.9,1.7c-1,0-1.9-0.8-1.9-1.7c0-0.9,0.8-1.7,1.9-1.7
					C147.5-14.3,148.3-13.5,148.3-12.6z"/>
			</g>
			<g>
				
					<radialGradient id="SVGID_29_" cx="131.3628" cy="101.9727" r="0.6217" gradientTransform="matrix(3.1051 6.660301e-03 -6.150715e-03 2.8675 -339.0107 -282.9656)" gradientUnits="userSpaceOnUse">
					<stop  offset="0" style="stop-color:#FFFFFF"/>
					<stop  offset="0.3703" style="stop-color:#A3A3A3"/>
					<stop  offset="1" style="stop-color:#000000"/>
				</radialGradient>
				<path class="st28" d="M70.2,10.3c0,1-0.9,1.8-1.9,1.8c-1.1,0-1.9-0.8-1.9-1.8c0-1,0.9-1.8,1.9-1.8S70.2,9.3,70.2,10.3z"/>
			</g>
			<g>
				
					<radialGradient id="SVGID_30_" cx="132.9435" cy="99.2955" r="0.5457" gradientTransform="matrix(3.1051 6.660301e-03 -6.150715e-03 2.8675 -339.0107 -282.9656)" gradientUnits="userSpaceOnUse">
					<stop  offset="0" style="stop-color:#FFFFFF"/>
					<stop  offset="0.3703" style="stop-color:#A3A3A3"/>
					<stop  offset="1" style="stop-color:#000000"/>
				</radialGradient>
				<path class="st29" d="M74.9,2.7c0,0.9-0.8,1.6-1.7,1.6c-0.9,0-1.7-0.7-1.7-1.6c0-0.9,0.8-1.6,1.7-1.6
					C74.1,1.1,74.9,1.8,74.9,2.7z"/>
			</g>
			<g>
				
					<radialGradient id="SVGID_31_" cx="141.9839" cy="109.2513" r="1.2114" gradientTransform="matrix(3.1051 6.660301e-03 -6.150715e-03 2.8675 -339.0107 -282.9656)" gradientUnits="userSpaceOnUse">
					<stop  offset="0" style="stop-color:#FFFFFF"/>
					<stop  offset="0.3703" style="stop-color:#A3A3A3"/>
					<stop  offset="1" style="stop-color:#000000"/>
				</radialGradient>
				<path class="st30" d="M104.9,31.3c0,1.9-1.7,3.5-3.8,3.5c-2.1,0-3.8-1.6-3.8-3.5c0-1.9,1.7-3.5,3.8-3.5
					C103.3,27.8,105,29.3,104.9,31.3z"/>
			</g>
			<g>
				
					<radialGradient id="SVGID_32_" cx="153.9893" cy="113.9674" r="0.8838" gradientTransform="matrix(3.1051 6.660301e-03 -6.150715e-03 2.8675 -339.0107 -282.9656)" gradientUnits="userSpaceOnUse">
					<stop  offset="0" style="stop-color:#FFFFFF"/>
					<stop  offset="0.3703" style="stop-color:#A3A3A3"/>
					<stop  offset="1" style="stop-color:#000000"/>
				</radialGradient>
				<path class="st31" d="M141.2,44.9c0,1.4-1.2,2.5-2.7,2.5s-2.7-1.1-2.7-2.5s1.2-2.5,2.7-2.5S141.2,43.5,141.2,44.9z"/>
			</g>
			<g>
				
					<radialGradient id="SVGID_33_" cx="162.6095" cy="114.89" r="1.2114" gradientTransform="matrix(3.1051 6.660301e-03 -6.150715e-03 2.8675 -339.0107 -282.9656)" gradientUnits="userSpaceOnUse">
					<stop  offset="0" style="stop-color:#FFFFFF"/>
					<stop  offset="0.3703" style="stop-color:#A3A3A3"/>
					<stop  offset="1" style="stop-color:#000000"/>
				</radialGradient>
				<path class="st32" d="M169,47.6c0,1.9-1.7,3.5-3.8,3.5c-2.1,0-3.8-1.6-3.8-3.5c0-1.9,1.7-3.5,3.8-3.5
					C167.3,44.1,169,45.7,169,47.6z"/>
			</g>
			<g>
				
					<radialGradient id="SVGID_34_" cx="172.6561" cy="111.866" r="1.2114" gradientTransform="matrix(3.1051 6.660301e-03 -6.150715e-03 2.8675 -339.0107 -282.9656)" gradientUnits="userSpaceOnUse">
					<stop  offset="0" style="stop-color:#FFFFFF"/>
					<stop  offset="0.3703" style="stop-color:#A3A3A3"/>
					<stop  offset="1" style="stop-color:#000000"/>
				</radialGradient>
				<path class="st33" d="M200.2,39c0,1.9-1.7,3.5-3.8,3.5c-2.1,0-3.8-1.6-3.8-3.5c0-1.9,1.7-3.5,3.8-3.5
					C198.5,35.5,200.2,37,200.2,39z"/>
			</g>
			<g>
				
					<radialGradient id="SVGID_35_" cx="185.4769" cy="100.3952" r="1.2114" gradientTransform="matrix(3.1051 6.660301e-03 -6.150715e-03 2.8675 -339.0107 -282.9656)" gradientUnits="userSpaceOnUse">
					<stop  offset="0" style="stop-color:#FFFFFF"/>
					<stop  offset="0.3703" style="stop-color:#A3A3A3"/>
					<stop  offset="1" style="stop-color:#000000"/>
				</radialGradient>
				<path class="st34" d="M240.1,6.2c0,1.9-1.7,3.5-3.8,3.5c-2.1,0-3.8-1.6-3.8-3.5c0-1.9,1.7-3.5,3.8-3.5
					C238.4,2.7,240.1,4.2,240.1,6.2z"/>
			</g>
			<g>
				
					<radialGradient id="SVGID_36_" cx="188.4329" cy="88.8029" r="1.2122" gradientTransform="matrix(3.1051 6.660301e-03 -6.150715e-03 2.8675 -339.0107 -282.9656)" gradientUnits="userSpaceOnUse">
					<stop  offset="0" style="stop-color:#FFFFFF"/>
					<stop  offset="0.3703" style="stop-color:#A3A3A3"/>
					<stop  offset="1" style="stop-color:#000000"/>
				</radialGradient>
				<path class="st35" d="M249.3-27.1c0,1.9-1.7,3.5-3.8,3.5c-2.1,0-3.8-1.6-3.8-3.5s1.7-3.5,3.8-3.5
					C247.6-30.5,249.3-29,249.3-27.1z"/>
			</g>
			<g>
				
					<radialGradient id="SVGID_37_" cx="188.2463" cy="72.6906" r="1.4355" gradientTransform="matrix(3.1051 6.660301e-03 -6.150715e-03 2.8675 -339.0107 -282.9656)" gradientUnits="userSpaceOnUse">
					<stop  offset="0" style="stop-color:#FFFFFF"/>
					<stop  offset="0.3703" style="stop-color:#A3A3A3"/>
					<stop  offset="1" style="stop-color:#000000"/>
				</radialGradient>
				<path class="st36" d="M249.5-73.3c0,2.3-2,4.1-4.5,4.1c-2.5,0-4.5-1.9-4.4-4.1c0-2.3,2-4.1,4.5-4.1S249.5-75.5,249.5-73.3z"/>
			</g>
			<g>
				
					<radialGradient id="SVGID_38_" cx="179.688" cy="70.5762" r="1.2114" gradientTransform="matrix(3.1051 6.660301e-03 -6.150715e-03 2.8675 -339.0107 -282.9656)" gradientUnits="userSpaceOnUse">
					<stop  offset="0" style="stop-color:#FFFFFF"/>
					<stop  offset="0.3703" style="stop-color:#A3A3A3"/>
					<stop  offset="1" style="stop-color:#000000"/>
				</radialGradient>
				<path class="st37" d="M222.3-79.4c0,1.9-1.7,3.5-3.8,3.5c-2.1,0-3.8-1.6-3.8-3.5c0-1.9,1.7-3.5,3.8-3.5
					C220.6-82.9,222.3-81.3,222.3-79.4z"/>
			</g>
			<g>
				
					<radialGradient id="SVGID_39_" cx="154.8391" cy="64.9095" r="1.2114" gradientTransform="matrix(3.1051 6.660301e-03 -6.150715e-03 2.8675 -339.0107 -282.9656)" gradientUnits="userSpaceOnUse">
					<stop  offset="0" style="stop-color:#FFFFFF"/>
					<stop  offset="0.3703" style="stop-color:#A3A3A3"/>
					<stop  offset="1" style="stop-color:#000000"/>
				</radialGradient>
				<path class="st38" d="M145.1-95.8c0,1.9-1.7,3.5-3.8,3.5c-2.1,0-3.8-1.6-3.8-3.5c0-1.9,1.7-3.5,3.8-3.5
					C143.5-99.3,145.1-97.7,145.1-95.8z"/>
			</g>
			<g>
				
					<radialGradient id="SVGID_40_" cx="134.5553" cy="70.8124" r="1.2114" gradientTransform="matrix(3.1051 6.660301e-03 -6.150715e-03 2.8675 -339.0107 -282.9656)" gradientUnits="userSpaceOnUse">
					<stop  offset="0" style="stop-color:#FFFFFF"/>
					<stop  offset="0.3703" style="stop-color:#A3A3A3"/>
					<stop  offset="1" style="stop-color:#000000"/>
				</radialGradient>
				<path class="st39" d="M82.1-79c0,1.9-1.7,3.5-3.8,3.5c-2.1,0-3.8-1.6-3.8-3.5c0-1.9,1.7-3.5,3.8-3.5
					C80.4-82.5,82.1-80.9,82.1-79z"/>
			</g>
			<g>
				
					<radialGradient id="SVGID_41_" cx="120.28" cy="85.7941" r="1.2114" gradientTransform="matrix(3.1051 6.660301e-03 -6.150715e-03 2.8675 -339.0107 -282.9656)" gradientUnits="userSpaceOnUse">
					<stop  offset="0" style="stop-color:#FFFFFF"/>
					<stop  offset="0.3703" style="stop-color:#A3A3A3"/>
					<stop  offset="1" style="stop-color:#000000"/>
				</radialGradient>
				<path class="st40" d="M37.7-36.1c0,1.9-1.7,3.5-3.8,3.5c-2.1,0-3.8-1.6-3.8-3.5c0-1.9,1.7-3.5,3.8-3.5
					C36-39.6,37.7-38.1,37.7-36.1z"/>
			</g>
			<g>
				
					<radialGradient id="SVGID_42_" cx="114.0694" cy="99.1814" r="0.6626" gradientTransform="matrix(3.1051 6.660301e-03 -6.150715e-03 2.8675 -339.0107 -282.9656)" gradientUnits="userSpaceOnUse">
					<stop  offset="0" style="stop-color:#FFFFFF"/>
					<stop  offset="0.3703" style="stop-color:#A3A3A3"/>
					<stop  offset="1" style="stop-color:#000000"/>
				</radialGradient>
				<path class="st41" d="M16.6,2.2c0,1-0.9,1.9-2.1,1.9c-1.1,0-2.1-0.9-2.1-1.9c0-1,0.9-1.9,2.1-1.9C15.7,0.3,16.6,1.1,16.6,2.2z"
					/>
			</g>
			<g>
				
					<radialGradient id="SVGID_43_" cx="111.7462" cy="114.2051" r="1.2114" gradientTransform="matrix(3.1051 6.660301e-03 -6.150715e-03 2.8675 -339.0107 -282.9656)" gradientUnits="userSpaceOnUse">
					<stop  offset="0" style="stop-color:#FFFFFF"/>
					<stop  offset="0.3703" style="stop-color:#A3A3A3"/>
					<stop  offset="1" style="stop-color:#000000"/>
				</radialGradient>
				<path class="st42" d="M11,45.3c0,1.9-1.7,3.5-3.8,3.5c-2.1,0-3.8-1.6-3.8-3.5c0-1.9,1.7-3.5,3.8-3.5C9.4,41.8,11,43.3,11,45.3z"
					/>
			</g>
			<g>
				
					<radialGradient id="SVGID_44_" cx="112.8258" cy="124.4906" r="0.5893" gradientTransform="matrix(3.1051 6.660301e-03 -6.150715e-03 2.8675 -339.0107 -282.9656)" gradientUnits="userSpaceOnUse">
					<stop  offset="0" style="stop-color:#FFFFFF"/>
					<stop  offset="0.3703" style="stop-color:#A3A3A3"/>
					<stop  offset="1" style="stop-color:#000000"/>
				</radialGradient>
				<path class="st43" d="M12.4,74.8c0,0.9-0.8,1.7-1.8,1.7s-1.8-0.8-1.8-1.7s0.8-1.7,1.8-1.7C11.6,73.1,12.4,73.8,12.4,74.8z"/>
			</g>
			<g>
				
					<radialGradient id="SVGID_45_" cx="126.2765" cy="123.4933" r="1.2114" gradientTransform="matrix(3.1051 6.660301e-03 -6.150715e-03 2.8675 -339.0107 -282.9656)" gradientUnits="userSpaceOnUse">
					<stop  offset="0" style="stop-color:#FFFFFF"/>
					<stop  offset="0.3703" style="stop-color:#A3A3A3"/>
					<stop  offset="1" style="stop-color:#000000"/>
				</radialGradient>
				<path class="st44" d="M56.1,72c0,1.9-1.7,3.5-3.8,3.5c-2.1,0-3.8-1.6-3.8-3.5c0-1.9,1.7-3.5,3.8-3.5
					C54.4,68.5,56.1,70.1,56.1,72z"/>
			</g>
			<g>
				
					<radialGradient id="SVGID_46_" cx="197.7144" cy="69.601" r="0.5741" gradientTransform="matrix(3.1051 6.660301e-03 -6.150715e-03 2.8675 -339.0107 -282.9656)" gradientUnits="userSpaceOnUse">
					<stop  offset="0" style="stop-color:#FFFFFF"/>
					<stop  offset="0.3703" style="stop-color:#A3A3A3"/>
					<stop  offset="1" style="stop-color:#000000"/>
				</radialGradient>
				<path class="st45" d="M276.3-82.1c0,0.9-0.8,1.6-1.8,1.6c-1,0-1.8-0.7-1.8-1.7c0-0.9,0.8-1.6,1.8-1.6
					C275.5-83.7,276.3-83,276.3-82.1z"/>
			</g>
			<g>
				
					<radialGradient id="SVGID_47_" cx="123.1694" cy="73.9758" r="0.5741" gradientTransform="matrix(3.1051 6.660301e-03 -6.150715e-03 2.8675 -339.0107 -282.9656)" gradientUnits="userSpaceOnUse">
					<stop  offset="0" style="stop-color:#FFFFFF"/>
					<stop  offset="0.3703" style="stop-color:#A3A3A3"/>
					<stop  offset="1" style="stop-color:#000000"/>
				</radialGradient>
				<path class="st46" d="M44.8-70c0,0.9-0.8,1.6-1.8,1.6c-1,0-1.8-0.7-1.8-1.7c0-0.9,0.8-1.6,1.8-1.6C44-71.7,44.8-70.9,44.8-70z"
					/>
			</g>
			<g>
				
					<radialGradient id="SVGID_48_" cx="168.9442" cy="62.8313" r="1.2114" gradientTransform="matrix(3.1051 6.660301e-03 -6.150715e-03 2.8675 -339.0107 -282.9656)" gradientUnits="userSpaceOnUse">
					<stop  offset="0" style="stop-color:#FFFFFF"/>
					<stop  offset="0.3703" style="stop-color:#A3A3A3"/>
					<stop  offset="1" style="stop-color:#000000"/>
				</radialGradient>
				<path class="st47" d="M188.9-101.7c0,1.9-1.7,3.5-3.8,3.5c-2.1,0-3.8-1.6-3.8-3.5c0-1.9,1.7-3.5,3.8-3.5
					C187.3-105.1,189-103.6,188.9-101.7z"/>
			</g>
			<g>
				
					<radialGradient id="SVGID_49_" cx="145.2081" cy="73.9758" r="1.2114" gradientTransform="matrix(3.1051 6.660301e-03 -6.150715e-03 2.8675 -339.0107 -282.9656)" gradientUnits="userSpaceOnUse">
					<stop  offset="0" style="stop-color:#FFFFFF"/>
					<stop  offset="0.3703" style="stop-color:#A3A3A3"/>
					<stop  offset="1" style="stop-color:#000000"/>
				</radialGradient>
				<path class="st48" d="M115.2-69.9c0,1.9-1.7,3.5-3.8,3.5c-2.1,0-3.8-1.6-3.8-3.5c0-1.9,1.7-3.5,3.8-3.5S115.2-71.8,115.2-69.9z"
					/>
			</g>
			<g>
				
					<radialGradient id="SVGID_50_" cx="125.5628" cy="106.9845" r="0.7137" gradientTransform="matrix(3.1051 6.660301e-03 -6.150715e-03 2.8675 -339.0107 -282.9656)" gradientUnits="userSpaceOnUse">
					<stop  offset="0" style="stop-color:#FFFFFF"/>
					<stop  offset="0.3703" style="stop-color:#A3A3A3"/>
					<stop  offset="1" style="stop-color:#000000"/>
				</radialGradient>
				<path class="st49" d="M52.4,24.7c0,1.1-1,2-2.2,2c-1.2,0-2.2-0.9-2.2-2.1c0-1.1,1-2,2.2-2C51.4,22.6,52.4,23.5,52.4,24.7z"/>
			</g>
			<g>
				
					<radialGradient id="SVGID_51_" cx="129.2163" cy="132.6443" r="1.2114" gradientTransform="matrix(3.1051 6.660301e-03 -6.150715e-03 2.8675 -339.0107 -282.9656)" gradientUnits="userSpaceOnUse">
					<stop  offset="0" style="stop-color:#FFFFFF"/>
					<stop  offset="0.3703" style="stop-color:#A3A3A3"/>
					<stop  offset="1" style="stop-color:#000000"/>
				</radialGradient>
				<path class="st50" d="M65.2,98.3c0,1.9-1.7,3.5-3.8,3.5c-2.1,0-3.8-1.6-3.8-3.5c0-1.9,1.7-3.5,3.8-3.5
					C63.5,94.8,65.2,96.3,65.2,98.3z"/>
			</g>
			<g>
				
					<radialGradient id="SVGID_52_" cx="193.5662" cy="79.6559" r="0.5685" gradientTransform="matrix(3.1051 6.660301e-03 -6.150715e-03 2.8675 -339.0107 -282.9656)" gradientUnits="userSpaceOnUse">
					<stop  offset="0" style="stop-color:#FFFFFF"/>
					<stop  offset="0.3703" style="stop-color:#A3A3A3"/>
					<stop  offset="1" style="stop-color:#000000"/>
				</radialGradient>
				<path class="st51" d="M263.3-53.3c0,0.9-0.8,1.6-1.8,1.6s-1.8-0.7-1.8-1.6c0-0.9,0.8-1.6,1.8-1.6
					C262.5-54.9,263.3-54.2,263.3-53.3z"/>
			</g>
			<g>
				
					<radialGradient id="SVGID_53_" cx="171.8576" cy="97.4916" r="0.7508" gradientTransform="matrix(3.1051 6.660301e-03 -6.150715e-03 2.8675 -339.0107 -282.9656)" gradientUnits="userSpaceOnUse">
					<stop  offset="0" style="stop-color:#FFFFFF"/>
					<stop  offset="0.3703" style="stop-color:#A3A3A3"/>
					<stop  offset="1" style="stop-color:#000000"/>
				</radialGradient>
				<path class="st52" d="M196.4-2.3c0,1.2-1,2.2-2.3,2.1c-1.3,0-2.3-1-2.3-2.2s1-2.2,2.3-2.1C195.3-4.4,196.4-3.5,196.4-2.3z"/>
			</g>
			<g>
				
					<radialGradient id="SVGID_54_" cx="159.8067" cy="126.739" r="0.7001" gradientTransform="matrix(3.1051 6.660301e-03 -6.150715e-03 2.8675 -339.0107 -282.9656)" gradientUnits="userSpaceOnUse">
					<stop  offset="0" style="stop-color:#FFFFFF"/>
					<stop  offset="0.3703" style="stop-color:#A3A3A3"/>
					<stop  offset="1" style="stop-color:#000000"/>
				</radialGradient>
				<path class="st53" d="M158.6,81.5c0,1.1-1,2-2.2,2c-1.2,0-2.2-0.9-2.2-2c0-1.1,1-2,2.2-2C157.6,79.5,158.6,80.4,158.6,81.5z"/>
			</g>
			<g>
				
					<radialGradient id="SVGID_55_" cx="185.5181" cy="109.5167" r="1.2645" gradientTransform="matrix(3.1051 6.660301e-03 -6.150715e-03 2.8675 -339.0107 -282.9656)" gradientUnits="userSpaceOnUse">
					<stop  offset="0" style="stop-color:#FFFFFF"/>
					<stop  offset="0.3703" style="stop-color:#A3A3A3"/>
					<stop  offset="1" style="stop-color:#000000"/>
				</radialGradient>
				<path class="st54" d="M240.3,32.3c0,2-1.8,3.6-3.9,3.6s-3.9-1.6-3.9-3.6c0-2,1.8-3.6,3.9-3.6C238.5,28.7,240.3,30.3,240.3,32.3z
					"/>
			</g>
			<g>
				
					<radialGradient id="SVGID_56_" cx="180.7041" cy="118.2138" r="0.5444" gradientTransform="matrix(3.1051 6.660301e-03 -6.150715e-03 2.8675 -339.0107 -282.9656)" gradientUnits="userSpaceOnUse">
					<stop  offset="0" style="stop-color:#FFFFFF"/>
					<stop  offset="0.3703" style="stop-color:#A3A3A3"/>
					<stop  offset="1" style="stop-color:#000000"/>
				</radialGradient>
				<path class="st55" d="M223.1,57.2c0,0.9-0.8,1.6-1.7,1.6c-0.9,0-1.7-0.7-1.7-1.6c0-0.9,0.8-1.6,1.7-1.6
					C222.3,55.7,223.1,56.4,223.1,57.2z"/>
			</g>
			<g>
				
					<radialGradient id="SVGID_57_" cx="198.2885" cy="115.4165" r="1.4418" gradientTransform="matrix(3.1051 6.660301e-03 -6.150715e-03 2.8675 -339.0107 -282.9656)" gradientUnits="userSpaceOnUse">
					<stop  offset="0" style="stop-color:#FFFFFF"/>
					<stop  offset="0.3703" style="stop-color:#A3A3A3"/>
					<stop  offset="1" style="stop-color:#000000"/>
				</radialGradient>
				<path class="st56" d="M280.5,49.3c0,2.3-2,4.1-4.5,4.1c-2.5,0-4.5-1.9-4.5-4.1c0-2.3,2-4.1,4.5-4.1
					C278.5,45.2,280.5,47,280.5,49.3z"/>
			</g>
			<g>
				
					<radialGradient id="SVGID_58_" cx="202.0558" cy="81.0666" r="0.5854" gradientTransform="matrix(3.1051 6.660301e-03 -6.150715e-03 2.8675 -339.0107 -282.9656)" gradientUnits="userSpaceOnUse">
					<stop  offset="0" style="stop-color:#FFFFFF"/>
					<stop  offset="0.3703" style="stop-color:#A3A3A3"/>
					<stop  offset="1" style="stop-color:#000000"/>
				</radialGradient>
				<path class="st57" d="M289.7-49.2c0,0.9-0.8,1.7-1.8,1.7c-1,0-1.8-0.8-1.8-1.7s0.8-1.7,1.8-1.7
					C288.9-50.8,289.7-50.1,289.7-49.2z"/>
			</g>
			<g>
				
					<radialGradient id="SVGID_59_" cx="163.2166" cy="75.1872" r="1.2114" gradientTransform="matrix(3.1051 6.660301e-03 -6.150715e-03 2.8675 -339.0107 -282.9656)" gradientUnits="userSpaceOnUse">
					<stop  offset="0" style="stop-color:#FFFFFF"/>
					<stop  offset="0.3703" style="stop-color:#A3A3A3"/>
					<stop  offset="1" style="stop-color:#000000"/>
				</radialGradient>
				<path class="st58" d="M171.1-66.3c0,1.9-1.7,3.5-3.8,3.5c-2.1,0-3.8-1.6-3.8-3.5c0-1.9,1.7-3.5,3.8-3.5
					C169.4-69.8,171.1-68.2,171.1-66.3z"/>
			</g>
			<g>
				
					<radialGradient id="SVGID_60_" cx="147.9802" cy="80.1063" r="1.2114" gradientTransform="matrix(3.1051 6.660301e-03 -6.150715e-03 2.8675 -339.0107 -282.9656)" gradientUnits="userSpaceOnUse">
					<stop  offset="0" style="stop-color:#FFFFFF"/>
					<stop  offset="0.3703" style="stop-color:#A3A3A3"/>
					<stop  offset="1" style="stop-color:#000000"/>
				</radialGradient>
				<path class="st59" d="M123.7-52.3c0,1.9-1.7,3.5-3.8,3.5c-2.1,0-3.8-1.6-3.8-3.5c0-1.9,1.7-3.5,3.8-3.5
					C122.1-55.7,123.8-54.2,123.7-52.3z"/>
			</g>
			<g>
				
					<radialGradient id="SVGID_61_" cx="134.2636" cy="110.5014" r="0.5094" gradientTransform="matrix(3.1051 6.660301e-03 -6.150715e-03 2.8675 -339.0107 -282.9656)" gradientUnits="userSpaceOnUse">
					<stop  offset="0" style="stop-color:#FFFFFF"/>
					<stop  offset="0.3703" style="stop-color:#A3A3A3"/>
					<stop  offset="1" style="stop-color:#000000"/>
				</radialGradient>
				<path class="st60" d="M78.8,34.8c0,0.8-0.7,1.5-1.6,1.5c-0.9,0-1.6-0.7-1.6-1.5c0-0.8,0.7-1.5,1.6-1.5S78.8,34,78.8,34.8z"/>
			</g>
			<g>
				
					<radialGradient id="SVGID_62_" cx="146.2929" cy="130.8888" r="0.6565" gradientTransform="matrix(3.1051 6.660301e-03 -6.150715e-03 2.8675 -339.0107 -282.9656)" gradientUnits="userSpaceOnUse">
					<stop  offset="0" style="stop-color:#FFFFFF"/>
					<stop  offset="0.3703" style="stop-color:#A3A3A3"/>
					<stop  offset="1" style="stop-color:#000000"/>
				</radialGradient>
				<path class="st61" d="M116.5,93.3c0,1-0.9,1.9-2,1.9c-1.1,0-2-0.8-2-1.9c0-1,0.9-1.9,2-1.9C115.6,91.4,116.5,92.3,116.5,93.3z"
					/>
			</g>
			<g>
				
					<radialGradient id="SVGID_63_" cx="187.2206" cy="127.4391" r="1.2114" gradientTransform="matrix(3.1051 6.660301e-03 -6.150715e-03 2.8675 -339.0107 -282.9656)" gradientUnits="userSpaceOnUse">
					<stop  offset="0" style="stop-color:#FFFFFF"/>
					<stop  offset="0.3703" style="stop-color:#A3A3A3"/>
					<stop  offset="1" style="stop-color:#000000"/>
				</radialGradient>
				<path class="st62" d="M245.3,83.7c0,1.9-1.7,3.5-3.8,3.5c-2.1,0-3.8-1.6-3.8-3.5c0-1.9,1.7-3.5,3.8-3.5
					C243.6,80.2,245.3,81.8,245.3,83.7z"/>
			</g>
		</g>
	</g>
</g>
</svg>
