<?xml version="1.0" encoding="utf-8"?>
<!-- Generator: Adobe Illustrator 22.0.1, SVG Export Plug-In . SVG Version: 6.00 Build 0)  -->
<svg version="1.1" id="Layer_1" xmlns="http://www.w3.org/2000/svg" xmlns:xlink="http://www.w3.org/1999/xlink" x="0px" y="0px"
	 viewBox="0 0 280 120" style="enable-background:new 0 0 280 120;" xml:space="preserve">
<style type="text/css">
	.st0{fill:url(#SVGID_1_);}
	.st1{fill:url(#SVGID_2_);}
	.st2{fill:url(#SVGID_3_);}
	.st3{fill:url(#SVGID_4_);}
	.st4{fill:url(#SVGID_5_);}
	.st5{fill:url(#SVGID_6_);}
	.st6{fill:url(#SVGID_7_);}
	.st7{fill:url(#SVGID_8_);}
	.st8{fill:url(#SVGID_9_);}
	.st9{fill:url(#SVGID_10_);}
	.st10{fill:url(#SVGID_11_);}
</style>
<g>
	
		<linearGradient id="SVGID_1_" gradientUnits="userSpaceOnUse" x1="12.7141" y1="63.3764" x2="272.8421" y2="63.3764" gradientTransform="matrix(1 0 0 -0.6412 0 129)">
		<stop  offset="0" style="stop-color:#662D91"/>
		<stop  offset="0.5336" style="stop-color:#27AAE1"/>
		<stop  offset="1" style="stop-color:#8DC63F"/>
	</linearGradient>
	<path class="st0" d="M169.2,62c-21.4,0-31.3,15-40,28.3c-7.3,11.1-14.1,21.5-26,21.5c-12.5,0-18.1-8.3-24.1-17
		c-6.5-9.5-13.9-20.4-31.8-20.7c-19.3-0.4-34,14.7-34.6,15.3l3.7,1.6c0.1-0.1,13.7-14,30.3-14c0.2,0,0.3,0,0.5,0
		c15.1,0.3,21.3,9.3,27.9,18.9c6.3,9.2,12.8,18.8,28.2,18.8c14.8,0,22.2-11.3,30-23.3c8.5-13.1,17.4-26.6,35.9-26.6
		c18.5,0,24.6,10.6,30.6,20.9c5.3,9.1,10.7,18.6,25.3,18.6c16.1,0,22.8-7.3,28.7-13.7c5.1-5.6,9.6-10.4,19.1-10.4v-2.9
		c-12,0-17.5,6-22.9,11.7c-5.8,6.3-11.3,12.3-24.9,12.3c-11.5,0-16-7.7-21.1-16.7C197.8,74.1,190.8,62,169.2,62z"/>
	
		<linearGradient id="SVGID_2_" gradientUnits="userSpaceOnUse" x1="12.6707" y1="78.6924" x2="272.8421" y2="78.6924" gradientTransform="matrix(1 0 0 -0.6412 0 129)">
		<stop  offset="0" style="stop-color:#662D91"/>
		<stop  offset="0.5336" style="stop-color:#27AAE1"/>
		<stop  offset="1" style="stop-color:#8DC63F"/>
	</linearGradient>
	<path class="st1" d="M169.6,54.2c-19.7,0-30.6,13.8-40.2,25.9c-8,10.2-15.6,19.8-26.5,19.8c-11.4,0-17.7-7.6-24.4-15.7
		c-7.6-9.1-15.4-18.6-31.8-18.9c-17.8-0.4-33.4,13.4-34,14l3.6,1.7c0.1-0.1,15-13.2,30.4-12.8c13.8,0.2,20.7,8.6,28,17.4
		c7,8.4,14.2,17.2,28.3,17.2c13.6,0,21.8-10.4,30.4-21.3c9.5-12,19.3-24.4,36.2-24.4c17,0,24,9.8,30.8,19.2c6.3,8.7,12.2,17,25.6,17
		c14.7,0,21.8-6.6,28.1-12.5c5.4-5.1,10.1-9.5,18.9-9.5v-2.9c-11,0-16.9,5.5-22.5,10.8c-6.2,5.8-12,11.3-24.4,11.3
		c-10.6,0-15.7-7.1-21.6-15.3C197.3,65.3,189.4,54.2,169.6,54.2z"/>
	
		<linearGradient id="SVGID_3_" gradientUnits="userSpaceOnUse" x1="12.6406" y1="94.0039" x2="272.8421" y2="94.0039" gradientTransform="matrix(1 0 0 -0.6412 0 129)">
		<stop  offset="0" style="stop-color:#662D91"/>
		<stop  offset="0.5336" style="stop-color:#27AAE1"/>
		<stop  offset="1" style="stop-color:#8DC63F"/>
	</linearGradient>
	<path class="st2" d="M170,46.5c-17.9,0-29.8,12.5-40.3,23.5c-8.8,9.3-17.1,18-27,18c-10.4,0-17.4-6.9-24.8-14.3
		C69.6,65.5,61,56.9,46.1,56.6c-0.2,0-0.3,0-0.5,0c-15.9,0-32.2,12.2-32.9,12.7l3.4,1.9c0.2-0.1,15.9-11.9,30-11.7
		c12.6,0.2,20.5,8.1,28.2,15.8c7.7,7.7,15.7,15.6,28.5,15.6c12.3,0,21.3-9.4,30.8-19.4c10.4-10.9,21.1-22.2,36.5-22.2
		c15.4,0,23.3,8.9,31,17.5c7,7.9,13.7,15.4,25.8,15.4c13.4,0,20.9-6,27.4-11.3c5.8-4.7,10.7-8.7,18.6-8.7v-2.9
		c-10,0-16.2,5-22.1,9.7c-6.2,5-12.7,10.3-24,10.3c-9.6,0-15.4-6.5-22-14C196.9,56.6,187.9,46.5,170,46.5z"/>
	
		<linearGradient id="SVGID_4_" gradientUnits="userSpaceOnUse" x1="12.6316" y1="109.3198" x2="272.8421" y2="109.3198" gradientTransform="matrix(1 0 0 -0.6412 0 129)">
		<stop  offset="0" style="stop-color:#662D91"/>
		<stop  offset="0.5336" style="stop-color:#27AAE1"/>
		<stop  offset="1" style="stop-color:#8DC63F"/>
	</linearGradient>
	<path class="st3" d="M170.3,38.8c-16.1,0-28.5,10.8-40.4,21.2c-9.6,8.3-18.7,16.2-27.6,16.2c-9.4,0-17-6.3-25.1-12.9
		c-9.1-7.4-18.4-15.1-31.8-15.3c-14.7-0.2-32,10.9-32.8,11.4l3.1,2.1c0.2-0.1,16.6-10.6,29.2-10.6c0.1,0,0.2,0,0.4,0
		c11.3,0.2,20,7.3,28.4,14.2c8.4,6.9,17.1,14,28.6,14c11.1,0,20.8-8.4,31.1-17.4c11.3-9.8,23-20,36.9-20c13.9,0,22.7,8,31.2,15.8
		c7.8,7.1,15.2,13.8,26.1,13.8c12.1,0,19.9-5.4,26.8-10.2c5.8-4,11.3-7.8,18.4-7.8v-2.9c-9,0-15.4,4.4-21.7,8.7
		c-6.6,4.6-13.4,9.3-23.6,9.3c-8.7,0-15.4-6.1-22.5-12.6C196.4,47.8,186.5,38.8,170.3,38.8z"/>
	
		<linearGradient id="SVGID_5_" gradientUnits="userSpaceOnUse" x1="12.6316" y1="124.6357" x2="272.8421" y2="124.6357" gradientTransform="matrix(1 0 0 -0.6412 0 129)">
		<stop  offset="0" style="stop-color:#662D91"/>
		<stop  offset="0.5336" style="stop-color:#27AAE1"/>
		<stop  offset="1" style="stop-color:#8DC63F"/>
	</linearGradient>
	<path class="st4" d="M170.7,31c-14.3,0-27.6,9.5-40.5,18.8c-10.4,7.4-20.2,14.5-28.1,14.5c-8.4,0-16.7-5.6-25.5-11.6
		c-9.8-6.6-19.9-13.4-31.7-13.6c-0.1,0-0.3,0-0.4,0c-12.8,0-30.9,9.7-31.7,10.1l2.8,2.2c0.2-0.1,18-9.6,29.2-9.4
		c10.1,0.2,19.5,6.5,28.7,12.7c9.5,6.4,18.5,12.4,28.7,12.4c9.9,0,20.3-7.5,31.4-15.4c11.7-8.4,24.9-17.8,37.3-17.8
		c12.4,0,22.1,7.2,31.5,14.1c8.5,6.3,16.6,12.3,26.3,12.3c10.7,0,18.9-4.8,26.1-9c6.1-3.6,11.9-7,18.3-7v-2.9
		c-8,0-14.4,3.8-21.2,7.7c-6.9,4.1-14.1,8.3-23.1,8.3c-7.7,0-15.1-5.5-23-11.3C195.9,39,185.1,31,170.7,31z"/>
	
		<linearGradient id="SVGID_6_" gradientUnits="userSpaceOnUse" x1="12.6446" y1="132.2903" x2="272.8421" y2="132.2903" gradientTransform="matrix(1 0 0 -0.6412 0 129)">
		<stop  offset="0" style="stop-color:#662D91"/>
		<stop  offset="0.5336" style="stop-color:#27AAE1"/>
		<stop  offset="1" style="stop-color:#8DC63F"/>
	</linearGradient>
	<path class="st5" d="M170.9,27.1c-13.4,0-27.2,8.9-40.6,17.6c-10.3,6.7-21,13.6-28.5,13.6c-7.9,0-16.5-5.3-25.7-10.9
		C66,41.3,55.6,34.9,44.5,34.7c-0.1,0-0.3,0-0.4,0c-12.1,0-30.6,9.1-31.4,9.5l2.7,2.3c0.2-0.1,18.2-8.9,28.7-8.9c0.1,0,0.2,0,0.3,0
		c9.4,0.2,19.3,6.1,28.8,11.9c9.8,6,19.2,11.6,28.7,11.6c9.2,0,20.1-7,31.6-14.4c12.1-7.8,25.9-16.7,37.5-16.7
		c11.6,0,21.8,6.7,31.6,13.2c8.9,5.9,17.3,11.5,26.4,11.5c10.1,0,18.4-4.5,25.7-8.4c6.3-3.4,12.2-6.6,18.2-6.6v-2.9
		c-7.5,0-14.1,3.5-21,7.2c-7.1,3.8-14.5,7.8-22.9,7.8c-7.2,0-15-5.1-23.2-10.6C195.7,34.6,184.4,27.1,170.9,27.1z"/>
	
		<linearGradient id="SVGID_7_" gradientUnits="userSpaceOnUse" x1="12.6577" y1="139.9474" x2="272.8421" y2="139.9474" gradientTransform="matrix(1 0 0 -0.6412 0 129)">
		<stop  offset="0" style="stop-color:#662D91"/>
		<stop  offset="0.5336" style="stop-color:#27AAE1"/>
		<stop  offset="1" style="stop-color:#8DC63F"/>
	</linearGradient>
	<path class="st6" d="M171.1,23.3c-12.5,0-26.8,8.3-40.6,16.4c-10.7,6.2-21.8,12.7-28.8,12.7c-7.3,0-16.8-5.2-26-10.2
		c-10.5-5.7-21.3-11.6-31.6-11.8c-0.1,0-0.2,0-0.4,0c-11.3,0-30.3,8.4-31.1,8.8l2.5,2.4c5.3-2.4,20.5-8.4,28.9-8.3
		c8.8,0.1,19,5.7,28.9,11.1c10.2,5.6,19.8,10.9,28.8,10.9c8.6,0,19.3-6.2,31.7-13.4c12.6-7.3,26.9-15.6,37.7-15.6
		c10.8,0,21.5,6.3,31.8,12.4c9.3,5.5,18,10.7,26.5,10.7c9.4,0,17.5-4,25.4-7.9c6.5-3.2,12.6-6.2,18.1-6.2v-2.9
		c-7,0-13.7,3.3-20.8,6.7c-7.3,3.6-14.8,7.3-22.7,7.3c-6.8,0-14.9-4.8-23.5-9.9C195.4,30.3,183.6,23.3,171.1,23.3z"/>
	
		<linearGradient id="SVGID_8_" gradientUnits="userSpaceOnUse" x1="12.6753" y1="147.6062" x2="272.8421" y2="147.6062" gradientTransform="matrix(1 0 0 -0.6412 0 129)">
		<stop  offset="0" style="stop-color:#662D91"/>
		<stop  offset="0.5336" style="stop-color:#27AAE1"/>
		<stop  offset="1" style="stop-color:#8DC63F"/>
	</linearGradient>
	<path class="st7" d="M171.3,19.4c-11.6,0-26.4,7.7-40.7,15.2c-11.1,5.8-22.6,11.8-29.1,11.8c-6.8,0-16.7-4.8-26.2-9.5
		c-10.8-5.3-22-10.8-31.6-10.9c-0.1,0-0.2,0-0.3,0c-10.5,0-30,7.8-30.8,8.2l2.3,2.5c5.4-2.2,20.8-7.7,28.4-7.7c0.1,0,0.2,0,0.3,0
		c8.2,0.1,18.8,5.3,29,10.3c10.6,5.2,20.5,10.1,28.8,10.1c8,0,19-5.8,31.8-12.5c13.1-6.8,27.8-14.5,37.9-14.5
		c10.1,0,21.7,6.1,31.9,11.5c9.6,5.1,18.7,9.9,26.6,9.9c8.7,0,17-3.7,25-7.3c6.6-2.9,12.9-5.7,18-5.7v-2.9c-6.5,0-13.3,3-20.5,6.2
		c-7.5,3.3-15.2,6.8-22.6,6.8c-6.3,0-14.8-4.5-23.8-9.2C194.6,25.6,182.9,19.4,171.3,19.4z"/>
	
		<linearGradient id="SVGID_9_" gradientUnits="userSpaceOnUse" x1="12.6924" y1="155.2631" x2="272.8421" y2="155.2631" gradientTransform="matrix(1 0 0 -0.6412 0 129)">
		<stop  offset="0" style="stop-color:#662D91"/>
		<stop  offset="0.5336" style="stop-color:#27AAE1"/>
		<stop  offset="1" style="stop-color:#8DC63F"/>
	</linearGradient>
	<path class="st8" d="M171.5,15.5c-10.7,0-25.9,7.1-40.7,14c-11.5,5.4-23.4,10.9-29.4,10.9c-6.3,0-16.6-4.5-26.4-8.8
		c-11.1-4.9-22.6-9.9-31.5-10c-0.1,0-0.2,0-0.3,0c-9.8,0-29.6,7.2-30.5,7.5l2.2,2.5c5.6-2,21.3-7.3,28.5-7.1
		c7.6,0.1,18.5,4.9,29.1,9.6c10.9,4.8,21.2,9.3,28.9,9.3c7.4,0,18.8-5.3,32-11.5c13.5-6.3,28.8-13.5,38.1-13.5
		c9.3,0,21.4,5.7,32.1,10.7c10.4,4.9,19.4,9.1,26.6,9.1c8,0,16.5-3.4,24.7-6.7c6.8-2.7,13.2-5.3,18-5.3v-2.9c-6,0-12.9,2.8-20.3,5.7
		c-7.7,3.1-15.6,6.3-22.4,6.3c-5.8,0-14.7-4.2-24.1-8.6C194.4,21.2,182.2,15.5,171.5,15.5z"/>
	
		<linearGradient id="SVGID_10_" gradientUnits="userSpaceOnUse" x1="12.7182" y1="162.9178" x2="272.8421" y2="162.9178" gradientTransform="matrix(1 0 0 -0.6412 0 129)">
		<stop  offset="0" style="stop-color:#662D91"/>
		<stop  offset="0.5336" style="stop-color:#27AAE1"/>
		<stop  offset="1" style="stop-color:#8DC63F"/>
	</linearGradient>
	<path class="st9" d="M171.7,11.7c-9.8,0-25.5,6.5-40.7,12.8c-11.9,4.9-24.2,10-29.7,10c-5.8,0-16.4-4.1-26.7-8.1
		c-11.4-4.4-23.3-9-31.4-9.2c-0.1,0-0.2,0-0.3,0c-9,0-29.3,6.6-30.2,6.9l2,2.6c5.6-1.8,21.6-6.6,28.2-6.6c0.1,0,0.1,0,0.2,0
		c6.9,0.1,18.3,4.5,29.2,8.8c11.3,4.4,21.9,8.5,29,8.5c6.7,0,18.5-4.9,32.1-10.5c14-5.8,29.8-12.4,38.3-12.4
		c8.5,0,21.1,5.2,32.2,9.8c10.8,4.5,20.1,8.3,26.7,8.3c7.4,0,16-3.1,24.3-6.1c6.7-2.4,13.5-4.9,17.9-4.9v-2.9
		c-5.5,0-12.6,2.5-20,5.2c-7.9,2.8-16,5.8-22.2,5.8c-5.3,0-15-4-24.4-7.9C194.1,16.9,181.5,11.7,171.7,11.7z"/>
	
		<linearGradient id="SVGID_11_" gradientUnits="userSpaceOnUse" x1="12.7399" y1="170.577" x2="272.8421" y2="170.577" gradientTransform="matrix(1 0 0 -0.6412 0 129)">
		<stop  offset="0" style="stop-color:#662D91"/>
		<stop  offset="0.5336" style="stop-color:#27AAE1"/>
		<stop  offset="1" style="stop-color:#8DC63F"/>
	</linearGradient>
	<path class="st10" d="M171.8,7.8c-8.9,0-25.1,5.9-40.7,11.6c-12.3,4.5-25.1,9.2-30,9.2c-5.3,0-16.3-3.8-27-7.4
		C61.8,17,50.2,13,42.8,12.9c-0.1,0-0.2,0-0.3,0c-8.1,0-27.6,5.6-29.8,6.2l1.8,2.7c5.9-1.7,22.5-6.2,28.2-6c6.3,0.1,18,4.1,29.3,8
		c11.6,4,22.6,7.7,29,7.7c6.1,0,18.2-4.4,32.2-9.5c14.4-5.3,30.8-11.3,38.6-11.3c7.8,0,20.9,4.7,32.4,8.9c11.2,4,20.8,7.5,26.8,7.5
		c6.7,0,15.5-2.8,24-5.5c6.8-2.2,13.9-4.5,17.8-4.5v-2.9c-5,0-12.2,2.3-19.8,4.8c-7.7,2.5-16.3,5.3-22,5.3c-4.9,0-14.9-3.6-24.6-7.2
		C193.8,12.5,180.8,7.8,171.8,7.8z"/>
</g>
</svg>
