<?xml version="1.0" encoding="utf-8"?>
<!-- Generator: Adobe Illustrator 22.0.1, SVG Export Plug-In . SVG Version: 6.00 Build 0)  -->
<svg version="1.1" id="Layer_1" xmlns="http://www.w3.org/2000/svg" xmlns:xlink="http://www.w3.org/1999/xlink" x="0px" y="0px"
	 viewBox="0 0 300 200" style="enable-background:new 0 0 300 200;" xml:space="preserve">
<style type="text/css">
	.st0{fill:url(#SVGID_1_);}
	.st1{fill:url(#SVGID_2_);}
	.st2{fill:url(#SVGID_3_);}
	.st3{fill:url(#SVGID_4_);}
	.st4{fill:url(#SVGID_5_);}
	.st5{fill:url(#SVGID_6_);}
	.st6{fill:url(#SVGID_7_);}
	.st7{fill:url(#SVGID_8_);}
	.st8{fill:url(#SVGID_9_);}
	.st9{fill:url(#SVGID_10_);}
	.st10{fill:url(#SVGID_11_);}
	.st11{fill:url(#SVGID_12_);}
	.st12{fill:url(#SVGID_13_);}
	.st13{fill:url(#SVGID_14_);}
	.st14{fill:url(#SVGID_15_);}
	.st15{fill:url(#SVGID_16_);}
	.st16{fill:url(#SVGID_17_);}
	.st17{fill:url(#SVGID_18_);}
	.st18{fill:url(#SVGID_19_);}
	.st19{fill:url(#SVGID_20_);}
	.st20{fill:url(#SVGID_21_);}
	.st21{fill:url(#SVGID_22_);}
	.st22{fill:url(#SVGID_23_);}
	.st23{fill:url(#SVGID_24_);}
	.st24{fill:url(#SVGID_25_);}
	.st25{fill:url(#SVGID_26_);}
	.st26{fill:url(#SVGID_27_);}
	.st27{fill:url(#SVGID_28_);}
	.st28{fill:url(#SVGID_29_);}
	.st29{fill:url(#SVGID_30_);}
	.st30{fill:url(#SVGID_31_);}
	.st31{fill:url(#SVGID_32_);}
	.st32{fill:url(#SVGID_33_);}
	.st33{fill:url(#SVGID_34_);}
	.st34{fill:url(#SVGID_35_);}
	.st35{fill:url(#SVGID_36_);}
	.st36{fill:url(#SVGID_37_);}
	.st37{fill:url(#SVGID_38_);}
	.st38{fill:url(#SVGID_39_);}
	.st39{fill:url(#SVGID_40_);}
	.st40{fill:url(#SVGID_41_);}
	.st41{fill:url(#SVGID_42_);}
	.st42{fill:url(#SVGID_43_);}
	.st43{fill:url(#SVGID_44_);}
	.st44{fill:url(#SVGID_45_);}
	.st45{fill:url(#SVGID_46_);}
	.st46{fill:url(#SVGID_47_);}
	.st47{fill:url(#SVGID_48_);}
	.st48{fill:url(#SVGID_49_);}
	.st49{fill:url(#SVGID_50_);}
	.st50{fill:url(#SVGID_51_);}
	.st51{fill:url(#SVGID_52_);}
	.st52{fill:url(#SVGID_53_);}
	.st53{fill:url(#SVGID_54_);}
	.st54{fill:url(#SVGID_55_);}
	.st55{fill:url(#SVGID_56_);}
	.st56{fill:url(#SVGID_57_);}
	.st57{fill:url(#SVGID_58_);}
	.st58{fill:url(#SVGID_59_);}
	.st59{fill:url(#SVGID_60_);}
	.st60{fill:url(#SVGID_61_);}
	.st61{fill:url(#SVGID_62_);}
	.st62{fill:url(#SVGID_63_);}
	.st63{fill:url(#SVGID_64_);}
	.st64{fill:url(#SVGID_65_);}
	.st65{fill:url(#SVGID_66_);}
	.st66{fill:url(#SVGID_67_);}
	.st67{fill:url(#SVGID_68_);}
	.st68{fill:url(#SVGID_69_);}
	.st69{fill:url(#SVGID_70_);}
	.st70{fill:url(#SVGID_71_);}
	.st71{fill:url(#SVGID_72_);}
	.st72{fill:url(#SVGID_73_);}
	.st73{fill:url(#SVGID_74_);}
	.st74{fill:url(#SVGID_75_);}
	.st75{fill:url(#SVGID_76_);}
	.st76{fill:url(#SVGID_77_);}
	.st77{fill:url(#SVGID_78_);}
	.st78{fill:url(#SVGID_79_);}
	.st79{fill:url(#SVGID_80_);}
	.st80{fill:url(#SVGID_81_);}
	.st81{fill:url(#SVGID_82_);}
	.st82{fill:url(#SVGID_83_);}
	.st83{fill:url(#SVGID_84_);}
	.st84{fill:url(#SVGID_85_);}
	.st85{fill:url(#SVGID_86_);}
	.st86{fill:url(#SVGID_87_);}
	.st87{fill:url(#SVGID_88_);}
	.st88{fill:url(#SVGID_89_);}
	.st89{fill:url(#SVGID_90_);}
	.st90{fill:url(#SVGID_91_);}
	.st91{fill:url(#SVGID_92_);}
	.st92{fill:url(#SVGID_93_);}
	.st93{fill:url(#SVGID_94_);}
	.st94{fill:url(#SVGID_95_);}
	.st95{fill:url(#SVGID_96_);}
	.st96{fill:url(#SVGID_97_);}
	.st97{fill:url(#SVGID_98_);}
	.st98{fill:url(#SVGID_99_);}
	.st99{fill:url(#SVGID_100_);}
	.st100{fill:url(#SVGID_101_);}
	.st101{fill:url(#SVGID_102_);}
	.st102{fill:url(#SVGID_103_);}
	.st103{fill:url(#SVGID_104_);}
	.st104{fill:url(#SVGID_105_);}
	.st105{fill:url(#SVGID_106_);}
	.st106{fill:url(#SVGID_107_);}
	.st107{fill:url(#SVGID_108_);}
	.st108{fill:url(#SVGID_109_);}
	.st109{fill:url(#SVGID_110_);}
	.st110{fill:url(#SVGID_111_);}
	.st111{fill:url(#SVGID_112_);}
	.st112{fill:url(#SVGID_113_);}
	.st113{fill:url(#SVGID_114_);}
	.st114{fill:url(#SVGID_115_);}
	.st115{fill:url(#SVGID_116_);}
	.st116{fill:url(#SVGID_117_);}
	.st117{fill:url(#SVGID_118_);}
	.st118{fill:url(#SVGID_119_);}
	.st119{fill:url(#SVGID_120_);}
	.st120{fill:url(#SVGID_121_);}
	.st121{fill:url(#SVGID_122_);}
	.st122{fill:url(#SVGID_123_);}
	.st123{fill:url(#SVGID_124_);}
	.st124{fill:url(#SVGID_125_);}
	.st125{fill:url(#SVGID_126_);}
	.st126{fill:url(#SVGID_127_);}
	.st127{fill:url(#SVGID_128_);}
	.st128{fill:url(#SVGID_129_);}
	.st129{fill:url(#SVGID_130_);}
	.st130{fill:url(#SVGID_131_);}
	.st131{fill:url(#SVGID_132_);}
	.st132{fill:url(#SVGID_133_);}
	.st133{fill:url(#SVGID_134_);}
	.st134{fill:url(#SVGID_135_);}
	.st135{fill:url(#SVGID_136_);}
	.st136{fill:url(#SVGID_137_);}
	.st137{fill:url(#SVGID_138_);}
	.st138{fill:url(#SVGID_139_);}
	.st139{fill:url(#SVGID_140_);}
	.st140{fill:url(#SVGID_141_);}
	.st141{fill:url(#SVGID_142_);}
	.st142{fill:url(#SVGID_143_);}
	.st143{fill:url(#SVGID_144_);}
	.st144{fill:url(#SVGID_145_);}
	.st145{fill:url(#SVGID_146_);}
	.st146{fill:url(#SVGID_147_);}
	.st147{fill:url(#SVGID_148_);}
	.st148{fill:url(#SVGID_149_);}
	.st149{fill:url(#SVGID_150_);}
	.st150{fill:url(#SVGID_151_);}
</style>
<g>
	<g>
		
			<linearGradient id="SVGID_1_" gradientUnits="userSpaceOnUse" x1="-116.1056" y1="351.0238" x2="-116.1056" y2="188.3184" gradientTransform="matrix(-0.8061 0 0 -0.8061 52.3033 316.8197)">
			<stop  offset="0" style="stop-color:#662D91"/>
			<stop  offset="1" style="stop-color:#48DBEF"/>
		</linearGradient>
		<path class="st0" d="M140.9,84.4h10c1.5,0,2.7,1.2,2.7,2.7c0,1.5-1.2,2.7-2.7,2.7h-10c-1.5,0-2.7-1.2-2.7-2.7
			C138.2,85.6,139.4,84.4,140.9,84.4z M150.9,88.6c0.8,0,1.5-0.7,1.5-1.5c0-0.8-0.7-1.5-1.5-1.5h-10c-0.8,0-1.5,0.7-1.5,1.5
			c0,0.8,0.7,1.5,1.5,1.5H150.9z"/>
	</g>
	<g>
		
			<linearGradient id="SVGID_2_" gradientUnits="userSpaceOnUse" x1="-116.1056" y1="351.0238" x2="-116.1056" y2="188.3184" gradientTransform="matrix(-0.8061 0 0 -0.8061 52.3033 316.8197)">
			<stop  offset="0" style="stop-color:#662D91"/>
			<stop  offset="1" style="stop-color:#48DBEF"/>
		</linearGradient>
		<path class="st1" d="M140.9,63.2h10c1.5,0,2.7,1.2,2.7,2.7c0,1.5-1.2,2.7-2.7,2.7h-10c-1.5,0-2.7-1.2-2.7-2.7
			C138.2,64.4,139.4,63.2,140.9,63.2z M150.9,67.3c0.8,0,1.5-0.7,1.5-1.5c0-0.8-0.7-1.5-1.5-1.5h-10c-0.8,0-1.5,0.7-1.5,1.5
			c0,0.8,0.7,1.5,1.5,1.5H150.9z"/>
	</g>
	<g>
		
			<linearGradient id="SVGID_3_" gradientUnits="userSpaceOnUse" x1="-116.1056" y1="351.0236" x2="-116.1056" y2="188.3203" gradientTransform="matrix(-0.8061 0 0 -0.8061 52.3033 316.8197)">
			<stop  offset="0" style="stop-color:#662D91"/>
			<stop  offset="1" style="stop-color:#48DBEF"/>
		</linearGradient>
		<path class="st2" d="M140.9,56.1h10c1.5,0,2.7,1.2,2.7,2.7c0,1.5-1.2,2.7-2.7,2.7h-10c-1.5,0-2.7-1.2-2.7-2.7
			C138.2,57.3,139.4,56.1,140.9,56.1z M150.9,60.2c0.8,0,1.5-0.7,1.5-1.5c0-0.8-0.7-1.5-1.5-1.5h-10c-0.8,0-1.5,0.7-1.5,1.5
			c0,0.8,0.7,1.5,1.5,1.5H150.9z"/>
	</g>
	<g>
		
			<linearGradient id="SVGID_4_" gradientUnits="userSpaceOnUse" x1="-116.1056" y1="351.0237" x2="-116.1056" y2="188.3205" gradientTransform="matrix(-0.8061 0 0 -0.8061 52.3033 316.8197)">
			<stop  offset="0" style="stop-color:#662D91"/>
			<stop  offset="1" style="stop-color:#48DBEF"/>
		</linearGradient>
		<path class="st3" d="M140.9,41.9h10c1.5,0,2.7,1.2,2.7,2.7c0,1.5-1.2,2.7-2.7,2.7h-10c-1.5,0-2.7-1.2-2.7-2.7
			C138.2,43.1,139.4,41.9,140.9,41.9z M150.9,46.1c0.8,0,1.5-0.7,1.5-1.5c0-0.8-0.7-1.5-1.5-1.5h-10c-0.8,0-1.5,0.7-1.5,1.5
			c0,0.8,0.7,1.5,1.5,1.5H150.9z"/>
	</g>
	<g>
		
			<linearGradient id="SVGID_5_" gradientUnits="userSpaceOnUse" x1="-116.1056" y1="351.024" x2="-116.1056" y2="188.3185" gradientTransform="matrix(-0.8061 0 0 -0.8061 52.3033 316.8197)">
			<stop  offset="0" style="stop-color:#662D91"/>
			<stop  offset="1" style="stop-color:#48DBEF"/>
		</linearGradient>
		<path class="st4" d="M140.9,34.8h10c1.5,0,2.7,1.2,2.7,2.7c0,1.5-1.2,2.7-2.7,2.7h-10c-1.5,0-2.7-1.2-2.7-2.7
			C138.2,36,139.4,34.8,140.9,34.8z M150.9,39c0.8,0,1.5-0.7,1.5-1.5c0-0.8-0.7-1.5-1.5-1.5h-10c-0.8,0-1.5,0.7-1.5,1.5
			c0,0.8,0.7,1.5,1.5,1.5H150.9z"/>
	</g>
	<g>
		
			<linearGradient id="SVGID_6_" gradientUnits="userSpaceOnUse" x1="-93.7636" y1="351.026" x2="-93.7636" y2="188.318" gradientTransform="matrix(-0.8061 0 0 -0.8061 52.3033 316.8197)">
			<stop  offset="0" style="stop-color:#662D91"/>
			<stop  offset="1" style="stop-color:#48DBEF"/>
		</linearGradient>
		<path class="st5" d="M122.9,141.1h10c1.5,0,2.7,1.2,2.7,2.7c0,1.5-1.2,2.7-2.7,2.7h-10c-1.5,0-2.7-1.2-2.7-2.7
			C120.2,142.3,121.4,141.1,122.9,141.1z M132.9,145.3c0.8,0,1.5-0.7,1.5-1.5c0-0.8-0.7-1.5-1.5-1.5h-10c-0.8,0-1.5,0.7-1.5,1.5
			c0,0.8,0.7,1.5,1.5,1.5H132.9z"/>
	</g>
	<g>
		
			<linearGradient id="SVGID_7_" gradientUnits="userSpaceOnUse" x1="-93.7636" y1="351.0241" x2="-93.7636" y2="188.3186" gradientTransform="matrix(-0.8061 0 0 -0.8061 52.3033 316.8197)">
			<stop  offset="0" style="stop-color:#662D91"/>
			<stop  offset="1" style="stop-color:#48DBEF"/>
		</linearGradient>
		<path class="st6" d="M122.9,134h10c1.5,0,2.7,1.2,2.7,2.7c0,1.5-1.2,2.7-2.7,2.7h-10c-1.5,0-2.7-1.2-2.7-2.7
			C120.2,135.2,121.4,134,122.9,134z M132.9,138.2c0.8,0,1.5-0.7,1.5-1.5c0-0.8-0.7-1.5-1.5-1.5h-10c-0.8,0-1.5,0.7-1.5,1.5
			c0,0.8,0.7,1.5,1.5,1.5H132.9z"/>
	</g>
	<g>
		
			<linearGradient id="SVGID_8_" gradientUnits="userSpaceOnUse" x1="-93.7636" y1="351.026" x2="-93.7636" y2="188.318" gradientTransform="matrix(-0.8061 0 0 -0.8061 52.3033 316.8197)">
			<stop  offset="0" style="stop-color:#662D91"/>
			<stop  offset="1" style="stop-color:#48DBEF"/>
		</linearGradient>
		<path class="st7" d="M122.9,127h10c1.5,0,2.7,1.2,2.7,2.7c0,1.5-1.2,2.7-2.7,2.7h-10c-1.5,0-2.7-1.2-2.7-2.7
			C120.2,128.1,121.4,127,122.9,127z M132.9,131.1c0.8,0,1.5-0.7,1.5-1.5c0-0.8-0.7-1.5-1.5-1.5h-10c-0.8,0-1.5,0.7-1.5,1.5
			c0,0.8,0.7,1.5,1.5,1.5H132.9z"/>
	</g>
	<g>
		
			<linearGradient id="SVGID_9_" gradientUnits="userSpaceOnUse" x1="-93.7636" y1="351.0224" x2="-93.7636" y2="188.3192" gradientTransform="matrix(-0.8061 0 0 -0.8061 52.3033 316.8197)">
			<stop  offset="0" style="stop-color:#662D91"/>
			<stop  offset="1" style="stop-color:#48DBEF"/>
		</linearGradient>
		<path class="st8" d="M122.9,112.8h10c1.5,0,2.7,1.2,2.7,2.7c0,1.5-1.2,2.7-2.7,2.7h-10c-1.5,0-2.7-1.2-2.7-2.7
			C120.2,114,121.4,112.8,122.9,112.8z M132.9,116.9c0.8,0,1.5-0.7,1.5-1.5c0-0.8-0.7-1.5-1.5-1.5h-10c-0.8,0-1.5,0.7-1.5,1.5
			c0,0.8,0.7,1.5,1.5,1.5H132.9z"/>
	</g>
	<g>
		
			<linearGradient id="SVGID_10_" gradientUnits="userSpaceOnUse" x1="-93.7636" y1="351.0237" x2="-93.7636" y2="188.3182" gradientTransform="matrix(-0.8061 0 0 -0.8061 52.3033 316.8197)">
			<stop  offset="0" style="stop-color:#662D91"/>
			<stop  offset="1" style="stop-color:#48DBEF"/>
		</linearGradient>
		<path class="st9" d="M122.9,105.7h10c1.5,0,2.7,1.2,2.7,2.7c0,1.5-1.2,2.7-2.7,2.7h-10c-1.5,0-2.7-1.2-2.7-2.7
			C120.2,106.9,121.4,105.7,122.9,105.7z M132.9,109.8c0.8,0,1.5-0.7,1.5-1.5c0-0.8-0.7-1.5-1.5-1.5h-10c-0.8,0-1.5,0.7-1.5,1.5
			c0,0.8,0.7,1.5,1.5,1.5H132.9z"/>
	</g>
	<g>
		
			<linearGradient id="SVGID_11_" gradientUnits="userSpaceOnUse" x1="-93.7636" y1="351.0236" x2="-93.7636" y2="188.3182" gradientTransform="matrix(-0.8061 0 0 -0.8061 52.3033 316.8197)">
			<stop  offset="0" style="stop-color:#662D91"/>
			<stop  offset="1" style="stop-color:#48DBEF"/>
		</linearGradient>
		<path class="st10" d="M122.9,98.6h10c1.5,0,2.7,1.2,2.7,2.7c0,1.5-1.2,2.7-2.7,2.7h-10c-1.5,0-2.7-1.2-2.7-2.7
			C120.2,99.8,121.4,98.6,122.9,98.6z M132.9,102.7c0.8,0,1.5-0.7,1.5-1.5c0-0.8-0.7-1.5-1.5-1.5h-10c-0.8,0-1.5,0.7-1.5,1.5
			c0,0.8,0.7,1.5,1.5,1.5H132.9z"/>
	</g>
	<g>
		
			<linearGradient id="SVGID_12_" gradientUnits="userSpaceOnUse" x1="-93.7636" y1="351.0227" x2="-93.7636" y2="188.3195" gradientTransform="matrix(-0.8061 0 0 -0.8061 52.3033 316.8197)">
			<stop  offset="0" style="stop-color:#662D91"/>
			<stop  offset="1" style="stop-color:#48DBEF"/>
		</linearGradient>
		<path class="st11" d="M122.9,91.5h10c1.5,0,2.7,1.2,2.7,2.7c0,1.5-1.2,2.7-2.7,2.7h-10c-1.5,0-2.7-1.2-2.7-2.7
			C120.2,92.7,121.4,91.5,122.9,91.5z M132.9,95.7c0.8,0,1.5-0.7,1.5-1.5c0-0.8-0.7-1.5-1.5-1.5h-10c-0.8,0-1.5,0.7-1.5,1.5
			c0,0.8,0.7,1.5,1.5,1.5H132.9z"/>
	</g>
	<g>
		
			<linearGradient id="SVGID_13_" gradientUnits="userSpaceOnUse" x1="-93.7636" y1="351.0238" x2="-93.7636" y2="188.3184" gradientTransform="matrix(-0.8061 0 0 -0.8061 52.3033 316.8197)">
			<stop  offset="0" style="stop-color:#662D91"/>
			<stop  offset="1" style="stop-color:#48DBEF"/>
		</linearGradient>
		<path class="st12" d="M122.9,84.4h10c1.5,0,2.7,1.2,2.7,2.7c0,1.5-1.2,2.7-2.7,2.7h-10c-1.5,0-2.7-1.2-2.7-2.7
			C120.2,85.6,121.4,84.4,122.9,84.4z M132.9,88.6c0.8,0,1.5-0.7,1.5-1.5c0-0.8-0.7-1.5-1.5-1.5h-10c-0.8,0-1.5,0.7-1.5,1.5
			c0,0.8,0.7,1.5,1.5,1.5H132.9z"/>
	</g>
	<g>
		
			<linearGradient id="SVGID_14_" gradientUnits="userSpaceOnUse" x1="-93.7636" y1="351.0232" x2="-93.7636" y2="188.32" gradientTransform="matrix(-0.8061 0 0 -0.8061 52.3033 316.8197)">
			<stop  offset="0" style="stop-color:#662D91"/>
			<stop  offset="1" style="stop-color:#48DBEF"/>
		</linearGradient>
		<path class="st13" d="M122.9,77.3h10c1.5,0,2.7,1.2,2.7,2.7c0,1.5-1.2,2.7-2.7,2.7h-10c-1.5,0-2.7-1.2-2.7-2.7
			C120.2,78.5,121.4,77.3,122.9,77.3z M132.9,81.5c0.8,0,1.5-0.7,1.5-1.5c0-0.8-0.7-1.5-1.5-1.5h-10c-0.8,0-1.5,0.7-1.5,1.5
			c0,0.8,0.7,1.5,1.5,1.5H132.9z"/>
	</g>
	<g>
		
			<linearGradient id="SVGID_15_" gradientUnits="userSpaceOnUse" x1="-93.7636" y1="351.024" x2="-93.7636" y2="188.3185" gradientTransform="matrix(-0.8061 0 0 -0.8061 52.3033 316.8197)">
			<stop  offset="0" style="stop-color:#662D91"/>
			<stop  offset="1" style="stop-color:#48DBEF"/>
		</linearGradient>
		<path class="st14" d="M122.9,70.3h10c1.5,0,2.7,1.2,2.7,2.7c0,1.5-1.2,2.7-2.7,2.7h-10c-1.5,0-2.7-1.2-2.7-2.7
			C120.2,71.5,121.4,70.3,122.9,70.3z M132.9,74.4c0.8,0,1.5-0.7,1.5-1.5c0-0.8-0.7-1.5-1.5-1.5h-10c-0.8,0-1.5,0.7-1.5,1.5
			c0,0.8,0.7,1.5,1.5,1.5H132.9z"/>
	</g>
	<g>
		
			<linearGradient id="SVGID_16_" gradientUnits="userSpaceOnUse" x1="-93.7636" y1="351.0238" x2="-93.7636" y2="188.3184" gradientTransform="matrix(-0.8061 0 0 -0.8061 52.3033 316.8197)">
			<stop  offset="0" style="stop-color:#662D91"/>
			<stop  offset="1" style="stop-color:#48DBEF"/>
		</linearGradient>
		<path class="st15" d="M122.9,63.2h10c1.5,0,2.7,1.2,2.7,2.7c0,1.5-1.2,2.7-2.7,2.7h-10c-1.5,0-2.7-1.2-2.7-2.7
			C120.2,64.4,121.4,63.2,122.9,63.2z M132.9,67.3c0.8,0,1.5-0.7,1.5-1.5c0-0.8-0.7-1.5-1.5-1.5h-10c-0.8,0-1.5,0.7-1.5,1.5
			c0,0.8,0.7,1.5,1.5,1.5H132.9z"/>
	</g>
	<g>
		
			<linearGradient id="SVGID_17_" gradientUnits="userSpaceOnUse" x1="-93.7636" y1="351.0236" x2="-93.7636" y2="188.3203" gradientTransform="matrix(-0.8061 0 0 -0.8061 52.3033 316.8197)">
			<stop  offset="0" style="stop-color:#662D91"/>
			<stop  offset="1" style="stop-color:#48DBEF"/>
		</linearGradient>
		<path class="st16" d="M122.9,56.1h10c1.5,0,2.7,1.2,2.7,2.7c0,1.5-1.2,2.7-2.7,2.7h-10c-1.5,0-2.7-1.2-2.7-2.7
			C120.2,57.3,121.4,56.1,122.9,56.1z M132.9,60.2c0.8,0,1.5-0.7,1.5-1.5c0-0.8-0.7-1.5-1.5-1.5h-10c-0.8,0-1.5,0.7-1.5,1.5
			c0,0.8,0.7,1.5,1.5,1.5H132.9z"/>
	</g>
	<g>
		
			<linearGradient id="SVGID_18_" gradientUnits="userSpaceOnUse" x1="-93.7636" y1="351.024" x2="-93.7636" y2="188.3186" gradientTransform="matrix(-0.8061 0 0 -0.8061 52.3033 316.8197)">
			<stop  offset="0" style="stop-color:#662D91"/>
			<stop  offset="1" style="stop-color:#48DBEF"/>
		</linearGradient>
		<path class="st17" d="M122.9,49h10c1.5,0,2.7,1.2,2.7,2.7c0,1.5-1.2,2.7-2.7,2.7h-10c-1.5,0-2.7-1.2-2.7-2.7
			C120.2,50.2,121.4,49,122.9,49z M132.9,53.1c0.8,0,1.5-0.7,1.5-1.5c0-0.8-0.7-1.5-1.5-1.5h-10c-0.8,0-1.5,0.7-1.5,1.5
			c0,0.8,0.7,1.5,1.5,1.5H132.9z"/>
	</g>
	<g>
		
			<linearGradient id="SVGID_19_" gradientUnits="userSpaceOnUse" x1="-93.7636" y1="351.0237" x2="-93.7636" y2="188.3205" gradientTransform="matrix(-0.8061 0 0 -0.8061 52.3033 316.8197)">
			<stop  offset="0" style="stop-color:#662D91"/>
			<stop  offset="1" style="stop-color:#48DBEF"/>
		</linearGradient>
		<path class="st18" d="M122.9,41.9h10c1.5,0,2.7,1.2,2.7,2.7c0,1.5-1.2,2.7-2.7,2.7h-10c-1.5,0-2.7-1.2-2.7-2.7
			C120.2,43.1,121.4,41.9,122.9,41.9z M132.9,46.1c0.8,0,1.5-0.7,1.5-1.5c0-0.8-0.7-1.5-1.5-1.5h-10c-0.8,0-1.5,0.7-1.5,1.5
			c0,0.8,0.7,1.5,1.5,1.5H132.9z"/>
	</g>
	<g>
		
			<linearGradient id="SVGID_20_" gradientUnits="userSpaceOnUse" x1="-93.7636" y1="351.024" x2="-93.7636" y2="188.3185" gradientTransform="matrix(-0.8061 0 0 -0.8061 52.3033 316.8197)">
			<stop  offset="0" style="stop-color:#662D91"/>
			<stop  offset="1" style="stop-color:#48DBEF"/>
		</linearGradient>
		<path class="st19" d="M122.9,34.8h10c1.5,0,2.7,1.2,2.7,2.7c0,1.5-1.2,2.7-2.7,2.7h-10c-1.5,0-2.7-1.2-2.7-2.7
			C120.2,36,121.4,34.8,122.9,34.8z M132.9,39c0.8,0,1.5-0.7,1.5-1.5c0-0.8-0.7-1.5-1.5-1.5h-10c-0.8,0-1.5,0.7-1.5,1.5
			c0,0.8,0.7,1.5,1.5,1.5H132.9z"/>
	</g>
	<g>
		
			<linearGradient id="SVGID_21_" gradientUnits="userSpaceOnUse" x1="-71.4219" y1="351.0235" x2="-71.4219" y2="188.3181" gradientTransform="matrix(-0.8061 0 0 -0.8061 52.3033 316.8197)">
			<stop  offset="0" style="stop-color:#662D91"/>
			<stop  offset="1" style="stop-color:#48DBEF"/>
		</linearGradient>
		<path class="st20" d="M104.9,119.9h10c1.5,0,2.7,1.2,2.7,2.7c0,1.5-1.2,2.7-2.7,2.7h-10c-1.5,0-2.7-1.2-2.7-2.7
			C102.2,121.1,103.4,119.9,104.9,119.9z M114.9,124c0.8,0,1.5-0.7,1.5-1.5c0-0.8-0.7-1.5-1.5-1.5h-10c-0.8,0-1.5,0.7-1.5,1.5
			c0,0.8,0.7,1.5,1.5,1.5H114.9z"/>
	</g>
	<g>
		
			<linearGradient id="SVGID_22_" gradientUnits="userSpaceOnUse" x1="-71.4219" y1="351.0237" x2="-71.4219" y2="188.3182" gradientTransform="matrix(-0.8061 0 0 -0.8061 52.3033 316.8197)">
			<stop  offset="0" style="stop-color:#662D91"/>
			<stop  offset="1" style="stop-color:#48DBEF"/>
		</linearGradient>
		<path class="st21" d="M104.9,105.7h10c1.5,0,2.7,1.2,2.7,2.7c0,1.5-1.2,2.7-2.7,2.7h-10c-1.5,0-2.7-1.2-2.7-2.7
			C102.2,106.9,103.4,105.7,104.9,105.7z M114.9,109.8c0.8,0,1.5-0.7,1.5-1.5c0-0.8-0.7-1.5-1.5-1.5h-10c-0.8,0-1.5,0.7-1.5,1.5
			c0,0.8,0.7,1.5,1.5,1.5H114.9z"/>
	</g>
	<g>
		
			<linearGradient id="SVGID_23_" gradientUnits="userSpaceOnUse" x1="-71.4219" y1="351.0236" x2="-71.4219" y2="188.3182" gradientTransform="matrix(-0.8061 0 0 -0.8061 52.3033 316.8197)">
			<stop  offset="0" style="stop-color:#662D91"/>
			<stop  offset="1" style="stop-color:#48DBEF"/>
		</linearGradient>
		<path class="st22" d="M104.9,98.6h10c1.5,0,2.7,1.2,2.7,2.7c0,1.5-1.2,2.7-2.7,2.7h-10c-1.5,0-2.7-1.2-2.7-2.7
			C102.2,99.8,103.4,98.6,104.9,98.6z M114.9,102.7c0.8,0,1.5-0.7,1.5-1.5c0-0.8-0.7-1.5-1.5-1.5h-10c-0.8,0-1.5,0.7-1.5,1.5
			c0,0.8,0.7,1.5,1.5,1.5H114.9z"/>
	</g>
	<g>
		
			<linearGradient id="SVGID_24_" gradientUnits="userSpaceOnUse" x1="-71.4219" y1="351.0227" x2="-71.4219" y2="188.3195" gradientTransform="matrix(-0.8061 0 0 -0.8061 52.3033 316.8197)">
			<stop  offset="0" style="stop-color:#662D91"/>
			<stop  offset="1" style="stop-color:#48DBEF"/>
		</linearGradient>
		<path class="st23" d="M104.9,91.5h10c1.5,0,2.7,1.2,2.7,2.7c0,1.5-1.2,2.7-2.7,2.7h-10c-1.5,0-2.7-1.2-2.7-2.7
			C102.2,92.7,103.4,91.5,104.9,91.5z M114.9,95.7c0.8,0,1.5-0.7,1.5-1.5c0-0.8-0.7-1.5-1.5-1.5h-10c-0.8,0-1.5,0.7-1.5,1.5
			c0,0.8,0.7,1.5,1.5,1.5H114.9z"/>
	</g>
	<g>
		
			<linearGradient id="SVGID_25_" gradientUnits="userSpaceOnUse" x1="-71.4219" y1="351.0238" x2="-71.4219" y2="188.3184" gradientTransform="matrix(-0.8061 0 0 -0.8061 52.3033 316.8197)">
			<stop  offset="0" style="stop-color:#662D91"/>
			<stop  offset="1" style="stop-color:#48DBEF"/>
		</linearGradient>
		<path class="st24" d="M104.9,84.4h10c1.5,0,2.7,1.2,2.7,2.7c0,1.5-1.2,2.7-2.7,2.7h-10c-1.5,0-2.7-1.2-2.7-2.7
			C102.2,85.6,103.4,84.4,104.9,84.4z M114.9,88.6c0.8,0,1.5-0.7,1.5-1.5c0-0.8-0.7-1.5-1.5-1.5h-10c-0.8,0-1.5,0.7-1.5,1.5
			c0,0.8,0.7,1.5,1.5,1.5H114.9z"/>
	</g>
	<g>
		
			<linearGradient id="SVGID_26_" gradientUnits="userSpaceOnUse" x1="-71.4219" y1="351.0232" x2="-71.4219" y2="188.32" gradientTransform="matrix(-0.8061 0 0 -0.8061 52.3033 316.8197)">
			<stop  offset="0" style="stop-color:#662D91"/>
			<stop  offset="1" style="stop-color:#48DBEF"/>
		</linearGradient>
		<path class="st25" d="M104.9,77.3h10c1.5,0,2.7,1.2,2.7,2.7c0,1.5-1.2,2.7-2.7,2.7h-10c-1.5,0-2.7-1.2-2.7-2.7
			C102.2,78.5,103.4,77.3,104.9,77.3z M114.9,81.5c0.8,0,1.5-0.7,1.5-1.5c0-0.8-0.7-1.5-1.5-1.5h-10c-0.8,0-1.5,0.7-1.5,1.5
			c0,0.8,0.7,1.5,1.5,1.5H114.9z"/>
	</g>
	<g>
		
			<linearGradient id="SVGID_27_" gradientUnits="userSpaceOnUse" x1="-71.4219" y1="351.024" x2="-71.4219" y2="188.3185" gradientTransform="matrix(-0.8061 0 0 -0.8061 52.3033 316.8197)">
			<stop  offset="0" style="stop-color:#662D91"/>
			<stop  offset="1" style="stop-color:#48DBEF"/>
		</linearGradient>
		<path class="st26" d="M104.9,70.3h10c1.5,0,2.7,1.2,2.7,2.7c0,1.5-1.2,2.7-2.7,2.7h-10c-1.5,0-2.7-1.2-2.7-2.7
			C102.2,71.5,103.4,70.3,104.9,70.3z M114.9,74.4c0.8,0,1.5-0.7,1.5-1.5c0-0.8-0.7-1.5-1.5-1.5h-10c-0.8,0-1.5,0.7-1.5,1.5
			c0,0.8,0.7,1.5,1.5,1.5H114.9z"/>
	</g>
	<g>
		
			<linearGradient id="SVGID_28_" gradientUnits="userSpaceOnUse" x1="-71.4219" y1="351.0238" x2="-71.4219" y2="188.3184" gradientTransform="matrix(-0.8061 0 0 -0.8061 52.3033 316.8197)">
			<stop  offset="0" style="stop-color:#662D91"/>
			<stop  offset="1" style="stop-color:#48DBEF"/>
		</linearGradient>
		<path class="st27" d="M104.9,63.2h10c1.5,0,2.7,1.2,2.7,2.7c0,1.5-1.2,2.7-2.7,2.7h-10c-1.5,0-2.7-1.2-2.7-2.7
			C102.2,64.4,103.4,63.2,104.9,63.2z M114.9,67.3c0.8,0,1.5-0.7,1.5-1.5c0-0.8-0.7-1.5-1.5-1.5h-10c-0.8,0-1.5,0.7-1.5,1.5
			c0,0.8,0.7,1.5,1.5,1.5H114.9z"/>
	</g>
	<g>
		
			<linearGradient id="SVGID_29_" gradientUnits="userSpaceOnUse" x1="-71.4219" y1="351.0236" x2="-71.4219" y2="188.3203" gradientTransform="matrix(-0.8061 0 0 -0.8061 52.3033 316.8197)">
			<stop  offset="0" style="stop-color:#662D91"/>
			<stop  offset="1" style="stop-color:#48DBEF"/>
		</linearGradient>
		<path class="st28" d="M104.9,56.1h10c1.5,0,2.7,1.2,2.7,2.7c0,1.5-1.2,2.7-2.7,2.7h-10c-1.5,0-2.7-1.2-2.7-2.7
			C102.2,57.3,103.4,56.1,104.9,56.1z M114.9,60.2c0.8,0,1.5-0.7,1.5-1.5c0-0.8-0.7-1.5-1.5-1.5h-10c-0.8,0-1.5,0.7-1.5,1.5
			c0,0.8,0.7,1.5,1.5,1.5H114.9z"/>
	</g>
	<g>
		
			<linearGradient id="SVGID_30_" gradientUnits="userSpaceOnUse" x1="-71.4219" y1="351.024" x2="-71.4219" y2="188.3186" gradientTransform="matrix(-0.8061 0 0 -0.8061 52.3033 316.8197)">
			<stop  offset="0" style="stop-color:#662D91"/>
			<stop  offset="1" style="stop-color:#48DBEF"/>
		</linearGradient>
		<path class="st29" d="M104.9,49h10c1.5,0,2.7,1.2,2.7,2.7c0,1.5-1.2,2.7-2.7,2.7h-10c-1.5,0-2.7-1.2-2.7-2.7
			C102.2,50.2,103.4,49,104.9,49z M114.9,53.1c0.8,0,1.5-0.7,1.5-1.5c0-0.8-0.7-1.5-1.5-1.5h-10c-0.8,0-1.5,0.7-1.5,1.5
			c0,0.8,0.7,1.5,1.5,1.5H114.9z"/>
	</g>
	<g>
		
			<linearGradient id="SVGID_31_" gradientUnits="userSpaceOnUse" x1="-71.4219" y1="351.0237" x2="-71.4219" y2="188.3205" gradientTransform="matrix(-0.8061 0 0 -0.8061 52.3033 316.8197)">
			<stop  offset="0" style="stop-color:#662D91"/>
			<stop  offset="1" style="stop-color:#48DBEF"/>
		</linearGradient>
		<path class="st30" d="M104.9,41.9h10c1.5,0,2.7,1.2,2.7,2.7c0,1.5-1.2,2.7-2.7,2.7h-10c-1.5,0-2.7-1.2-2.7-2.7
			C102.2,43.1,103.4,41.9,104.9,41.9z M114.9,46.1c0.8,0,1.5-0.7,1.5-1.5c0-0.8-0.7-1.5-1.5-1.5h-10c-0.8,0-1.5,0.7-1.5,1.5
			c0,0.8,0.7,1.5,1.5,1.5H114.9z"/>
	</g>
	<g>
		
			<linearGradient id="SVGID_32_" gradientUnits="userSpaceOnUse" x1="-71.4219" y1="351.024" x2="-71.4219" y2="188.3185" gradientTransform="matrix(-0.8061 0 0 -0.8061 52.3033 316.8197)">
			<stop  offset="0" style="stop-color:#662D91"/>
			<stop  offset="1" style="stop-color:#48DBEF"/>
		</linearGradient>
		<path class="st31" d="M104.9,34.8h10c1.5,0,2.7,1.2,2.7,2.7c0,1.5-1.2,2.7-2.7,2.7h-10c-1.5,0-2.7-1.2-2.7-2.7
			C102.2,36,103.4,34.8,104.9,34.8z M114.9,39c0.8,0,1.5-0.7,1.5-1.5c0-0.8-0.7-1.5-1.5-1.5h-10c-0.8,0-1.5,0.7-1.5,1.5
			c0,0.8,0.7,1.5,1.5,1.5H114.9z"/>
	</g>
	<g>
		
			<linearGradient id="SVGID_33_" gradientUnits="userSpaceOnUse" x1="-49.0802" y1="351.0264" x2="-49.0802" y2="188.3185" gradientTransform="matrix(-0.8061 0 0 -0.8061 52.3033 316.8197)">
			<stop  offset="0" style="stop-color:#662D91"/>
			<stop  offset="1" style="stop-color:#48DBEF"/>
		</linearGradient>
		<path class="st32" d="M86.8,148.2h10c1.5,0,2.7,1.2,2.7,2.7c0,1.5-1.2,2.7-2.7,2.7h-10c-1.5,0-2.7-1.2-2.7-2.7
			C84.2,149.4,85.4,148.2,86.8,148.2z M96.9,152.3c0.8,0,1.5-0.7,1.5-1.5c0-0.8-0.7-1.5-1.5-1.5h-10c-0.8,0-1.5,0.7-1.5,1.5
			c0,0.8,0.7,1.5,1.5,1.5H96.9z"/>
	</g>
	<g>
		
			<linearGradient id="SVGID_34_" gradientUnits="userSpaceOnUse" x1="-49.0802" y1="351.026" x2="-49.0802" y2="188.318" gradientTransform="matrix(-0.8061 0 0 -0.8061 52.3033 316.8197)">
			<stop  offset="0" style="stop-color:#662D91"/>
			<stop  offset="1" style="stop-color:#48DBEF"/>
		</linearGradient>
		<path class="st33" d="M86.8,141.1h10c1.5,0,2.7,1.2,2.7,2.7c0,1.5-1.2,2.7-2.7,2.7h-10c-1.5,0-2.7-1.2-2.7-2.7
			C84.2,142.3,85.4,141.1,86.8,141.1z M96.9,145.3c0.8,0,1.5-0.7,1.5-1.5c0-0.8-0.7-1.5-1.5-1.5h-10c-0.8,0-1.5,0.7-1.5,1.5
			c0,0.8,0.7,1.5,1.5,1.5H96.9z"/>
	</g>
	<g>
		
			<linearGradient id="SVGID_35_" gradientUnits="userSpaceOnUse" x1="-49.0802" y1="351.0241" x2="-49.0802" y2="188.3186" gradientTransform="matrix(-0.8061 0 0 -0.8061 52.3033 316.8197)">
			<stop  offset="0" style="stop-color:#662D91"/>
			<stop  offset="1" style="stop-color:#48DBEF"/>
		</linearGradient>
		<path class="st34" d="M86.8,134h10c1.5,0,2.7,1.2,2.7,2.7c0,1.5-1.2,2.7-2.7,2.7h-10c-1.5,0-2.7-1.2-2.7-2.7
			C84.2,135.2,85.4,134,86.8,134z M96.9,138.2c0.8,0,1.5-0.7,1.5-1.5c0-0.8-0.7-1.5-1.5-1.5h-10c-0.8,0-1.5,0.7-1.5,1.5
			c0,0.8,0.7,1.5,1.5,1.5H96.9z"/>
	</g>
	<g>
		
			<linearGradient id="SVGID_36_" gradientUnits="userSpaceOnUse" x1="-49.0802" y1="351.026" x2="-49.0802" y2="188.318" gradientTransform="matrix(-0.8061 0 0 -0.8061 52.3033 316.8197)">
			<stop  offset="0" style="stop-color:#662D91"/>
			<stop  offset="1" style="stop-color:#48DBEF"/>
		</linearGradient>
		<path class="st35" d="M86.8,127h10c1.5,0,2.7,1.2,2.7,2.7c0,1.5-1.2,2.7-2.7,2.7h-10c-1.5,0-2.7-1.2-2.7-2.7
			C84.2,128.1,85.4,127,86.8,127z M96.9,131.1c0.8,0,1.5-0.7,1.5-1.5c0-0.8-0.7-1.5-1.5-1.5h-10c-0.8,0-1.5,0.7-1.5,1.5
			c0,0.8,0.7,1.5,1.5,1.5H96.9z"/>
	</g>
	<g>
		
			<linearGradient id="SVGID_37_" gradientUnits="userSpaceOnUse" x1="-49.0802" y1="351.0235" x2="-49.0802" y2="188.3181" gradientTransform="matrix(-0.8061 0 0 -0.8061 52.3033 316.8197)">
			<stop  offset="0" style="stop-color:#662D91"/>
			<stop  offset="1" style="stop-color:#48DBEF"/>
		</linearGradient>
		<path class="st36" d="M86.8,119.9h10c1.5,0,2.7,1.2,2.7,2.7c0,1.5-1.2,2.7-2.7,2.7h-10c-1.5,0-2.7-1.2-2.7-2.7
			C84.2,121.1,85.4,119.9,86.8,119.9z M96.9,124c0.8,0,1.5-0.7,1.5-1.5c0-0.8-0.7-1.5-1.5-1.5h-10c-0.8,0-1.5,0.7-1.5,1.5
			c0,0.8,0.7,1.5,1.5,1.5H96.9z"/>
	</g>
	<g>
		
			<linearGradient id="SVGID_38_" gradientUnits="userSpaceOnUse" x1="-49.0802" y1="351.0224" x2="-49.0802" y2="188.3192" gradientTransform="matrix(-0.8061 0 0 -0.8061 52.3033 316.8197)">
			<stop  offset="0" style="stop-color:#662D91"/>
			<stop  offset="1" style="stop-color:#48DBEF"/>
		</linearGradient>
		<path class="st37" d="M86.8,112.8h10c1.5,0,2.7,1.2,2.7,2.7c0,1.5-1.2,2.7-2.7,2.7h-10c-1.5,0-2.7-1.2-2.7-2.7
			C84.2,114,85.4,112.8,86.8,112.8z M96.9,116.9c0.8,0,1.5-0.7,1.5-1.5c0-0.8-0.7-1.5-1.5-1.5h-10c-0.8,0-1.5,0.7-1.5,1.5
			c0,0.8,0.7,1.5,1.5,1.5H96.9z"/>
	</g>
	<g>
		
			<linearGradient id="SVGID_39_" gradientUnits="userSpaceOnUse" x1="-49.0802" y1="351.0237" x2="-49.0802" y2="188.3182" gradientTransform="matrix(-0.8061 0 0 -0.8061 52.3033 316.8197)">
			<stop  offset="0" style="stop-color:#662D91"/>
			<stop  offset="1" style="stop-color:#48DBEF"/>
		</linearGradient>
		<path class="st38" d="M86.8,105.7h10c1.5,0,2.7,1.2,2.7,2.7c0,1.5-1.2,2.7-2.7,2.7h-10c-1.5,0-2.7-1.2-2.7-2.7
			C84.2,106.9,85.4,105.7,86.8,105.7z M96.9,109.8c0.8,0,1.5-0.7,1.5-1.5c0-0.8-0.7-1.5-1.5-1.5h-10c-0.8,0-1.5,0.7-1.5,1.5
			c0,0.8,0.7,1.5,1.5,1.5H96.9z"/>
	</g>
	<g>
		
			<linearGradient id="SVGID_40_" gradientUnits="userSpaceOnUse" x1="-49.0802" y1="351.0236" x2="-49.0802" y2="188.3182" gradientTransform="matrix(-0.8061 0 0 -0.8061 52.3033 316.8197)">
			<stop  offset="0" style="stop-color:#662D91"/>
			<stop  offset="1" style="stop-color:#48DBEF"/>
		</linearGradient>
		<path class="st39" d="M86.8,98.6h10c1.5,0,2.7,1.2,2.7,2.7c0,1.5-1.2,2.7-2.7,2.7h-10c-1.5,0-2.7-1.2-2.7-2.7
			C84.2,99.8,85.4,98.6,86.8,98.6z M96.9,102.7c0.8,0,1.5-0.7,1.5-1.5c0-0.8-0.7-1.5-1.5-1.5h-10c-0.8,0-1.5,0.7-1.5,1.5
			c0,0.8,0.7,1.5,1.5,1.5H96.9z"/>
	</g>
	<g>
		
			<linearGradient id="SVGID_41_" gradientUnits="userSpaceOnUse" x1="-49.0802" y1="351.0227" x2="-49.0802" y2="188.3195" gradientTransform="matrix(-0.8061 0 0 -0.8061 52.3033 316.8197)">
			<stop  offset="0" style="stop-color:#662D91"/>
			<stop  offset="1" style="stop-color:#48DBEF"/>
		</linearGradient>
		<path class="st40" d="M86.8,91.5h10c1.5,0,2.7,1.2,2.7,2.7c0,1.5-1.2,2.7-2.7,2.7h-10c-1.5,0-2.7-1.2-2.7-2.7
			C84.2,92.7,85.4,91.5,86.8,91.5z M96.9,95.7c0.8,0,1.5-0.7,1.5-1.5c0-0.8-0.7-1.5-1.5-1.5h-10c-0.8,0-1.5,0.7-1.5,1.5
			c0,0.8,0.7,1.5,1.5,1.5H96.9z"/>
	</g>
	<g>
		
			<linearGradient id="SVGID_42_" gradientUnits="userSpaceOnUse" x1="-49.0802" y1="351.0238" x2="-49.0802" y2="188.3184" gradientTransform="matrix(-0.8061 0 0 -0.8061 52.3033 316.8197)">
			<stop  offset="0" style="stop-color:#662D91"/>
			<stop  offset="1" style="stop-color:#48DBEF"/>
		</linearGradient>
		<path class="st41" d="M86.8,84.4h10c1.5,0,2.7,1.2,2.7,2.7c0,1.5-1.2,2.7-2.7,2.7h-10c-1.5,0-2.7-1.2-2.7-2.7
			C84.2,85.6,85.4,84.4,86.8,84.4z M96.9,88.6c0.8,0,1.5-0.7,1.5-1.5c0-0.8-0.7-1.5-1.5-1.5h-10c-0.8,0-1.5,0.7-1.5,1.5
			c0,0.8,0.7,1.5,1.5,1.5H96.9z"/>
	</g>
	<g>
		
			<linearGradient id="SVGID_43_" gradientUnits="userSpaceOnUse" x1="-49.0802" y1="351.0232" x2="-49.0802" y2="188.32" gradientTransform="matrix(-0.8061 0 0 -0.8061 52.3033 316.8197)">
			<stop  offset="0" style="stop-color:#662D91"/>
			<stop  offset="1" style="stop-color:#48DBEF"/>
		</linearGradient>
		<path class="st42" d="M86.8,77.3h10c1.5,0,2.7,1.2,2.7,2.7c0,1.5-1.2,2.7-2.7,2.7h-10c-1.5,0-2.7-1.2-2.7-2.7
			C84.2,78.5,85.4,77.3,86.8,77.3z M96.9,81.5c0.8,0,1.5-0.7,1.5-1.5c0-0.8-0.7-1.5-1.5-1.5h-10c-0.8,0-1.5,0.7-1.5,1.5
			c0,0.8,0.7,1.5,1.5,1.5H96.9z"/>
	</g>
	<g>
		
			<linearGradient id="SVGID_44_" gradientUnits="userSpaceOnUse" x1="-49.0802" y1="351.024" x2="-49.0802" y2="188.3185" gradientTransform="matrix(-0.8061 0 0 -0.8061 52.3033 316.8197)">
			<stop  offset="0" style="stop-color:#662D91"/>
			<stop  offset="1" style="stop-color:#48DBEF"/>
		</linearGradient>
		<path class="st43" d="M86.8,70.3h10c1.5,0,2.7,1.2,2.7,2.7c0,1.5-1.2,2.7-2.7,2.7h-10c-1.5,0-2.7-1.2-2.7-2.7
			C84.2,71.5,85.4,70.3,86.8,70.3z M96.9,74.4c0.8,0,1.5-0.7,1.5-1.5c0-0.8-0.7-1.5-1.5-1.5h-10c-0.8,0-1.5,0.7-1.5,1.5
			c0,0.8,0.7,1.5,1.5,1.5H96.9z"/>
	</g>
	<g>
		
			<linearGradient id="SVGID_45_" gradientUnits="userSpaceOnUse" x1="-49.0802" y1="351.0238" x2="-49.0802" y2="188.3184" gradientTransform="matrix(-0.8061 0 0 -0.8061 52.3033 316.8197)">
			<stop  offset="0" style="stop-color:#662D91"/>
			<stop  offset="1" style="stop-color:#48DBEF"/>
		</linearGradient>
		<path class="st44" d="M86.8,63.2h10c1.5,0,2.7,1.2,2.7,2.7c0,1.5-1.2,2.7-2.7,2.7h-10c-1.5,0-2.7-1.2-2.7-2.7
			C84.2,64.4,85.4,63.2,86.8,63.2z M96.9,67.3c0.8,0,1.5-0.7,1.5-1.5c0-0.8-0.7-1.5-1.5-1.5h-10c-0.8,0-1.5,0.7-1.5,1.5
			c0,0.8,0.7,1.5,1.5,1.5H96.9z"/>
	</g>
	<g>
		
			<linearGradient id="SVGID_46_" gradientUnits="userSpaceOnUse" x1="-49.0802" y1="351.0236" x2="-49.0802" y2="188.3203" gradientTransform="matrix(-0.8061 0 0 -0.8061 52.3033 316.8197)">
			<stop  offset="0" style="stop-color:#662D91"/>
			<stop  offset="1" style="stop-color:#48DBEF"/>
		</linearGradient>
		<path class="st45" d="M86.8,56.1h10c1.5,0,2.7,1.2,2.7,2.7c0,1.5-1.2,2.7-2.7,2.7h-10c-1.5,0-2.7-1.2-2.7-2.7
			C84.2,57.3,85.4,56.1,86.8,56.1z M96.9,60.2c0.8,0,1.5-0.7,1.5-1.5c0-0.8-0.7-1.5-1.5-1.5h-10c-0.8,0-1.5,0.7-1.5,1.5
			c0,0.8,0.7,1.5,1.5,1.5H96.9z"/>
	</g>
	<g>
		
			<linearGradient id="SVGID_47_" gradientUnits="userSpaceOnUse" x1="-49.0802" y1="351.024" x2="-49.0802" y2="188.3186" gradientTransform="matrix(-0.8061 0 0 -0.8061 52.3033 316.8197)">
			<stop  offset="0" style="stop-color:#662D91"/>
			<stop  offset="1" style="stop-color:#48DBEF"/>
		</linearGradient>
		<path class="st46" d="M86.8,49h10c1.5,0,2.7,1.2,2.7,2.7c0,1.5-1.2,2.7-2.7,2.7h-10c-1.5,0-2.7-1.2-2.7-2.7
			C84.2,50.2,85.4,49,86.8,49z M96.9,53.1c0.8,0,1.5-0.7,1.5-1.5c0-0.8-0.7-1.5-1.5-1.5h-10c-0.8,0-1.5,0.7-1.5,1.5
			c0,0.8,0.7,1.5,1.5,1.5H96.9z"/>
	</g>
	<g>
		
			<linearGradient id="SVGID_48_" gradientUnits="userSpaceOnUse" x1="-49.0802" y1="351.0237" x2="-49.0802" y2="188.3205" gradientTransform="matrix(-0.8061 0 0 -0.8061 52.3033 316.8197)">
			<stop  offset="0" style="stop-color:#662D91"/>
			<stop  offset="1" style="stop-color:#48DBEF"/>
		</linearGradient>
		<path class="st47" d="M86.8,41.9h10c1.5,0,2.7,1.2,2.7,2.7c0,1.5-1.2,2.7-2.7,2.7h-10c-1.5,0-2.7-1.2-2.7-2.7
			C84.2,43.1,85.4,41.9,86.8,41.9z M96.9,46.1c0.8,0,1.5-0.7,1.5-1.5c0-0.8-0.7-1.5-1.5-1.5h-10c-0.8,0-1.5,0.7-1.5,1.5
			c0,0.8,0.7,1.5,1.5,1.5H96.9z"/>
	</g>
	<g>
		
			<linearGradient id="SVGID_49_" gradientUnits="userSpaceOnUse" x1="-49.0802" y1="351.024" x2="-49.0802" y2="188.3185" gradientTransform="matrix(-0.8061 0 0 -0.8061 52.3033 316.8197)">
			<stop  offset="0" style="stop-color:#662D91"/>
			<stop  offset="1" style="stop-color:#48DBEF"/>
		</linearGradient>
		<path class="st48" d="M86.8,34.8h10c1.5,0,2.7,1.2,2.7,2.7c0,1.5-1.2,2.7-2.7,2.7h-10c-1.5,0-2.7-1.2-2.7-2.7
			C84.2,36,85.4,34.8,86.8,34.8z M96.9,39c0.8,0,1.5-0.7,1.5-1.5c0-0.8-0.7-1.5-1.5-1.5h-10c-0.8,0-1.5,0.7-1.5,1.5
			c0,0.8,0.7,1.5,1.5,1.5H96.9z"/>
	</g>
	<g>
		
			<linearGradient id="SVGID_50_" gradientUnits="userSpaceOnUse" x1="-26.7384" y1="351.0232" x2="-26.7384" y2="188.32" gradientTransform="matrix(-0.8061 0 0 -0.8061 52.3033 316.8197)">
			<stop  offset="0" style="stop-color:#662D91"/>
			<stop  offset="1" style="stop-color:#48DBEF"/>
		</linearGradient>
		<path class="st49" d="M68.8,77.3h10c1.5,0,2.7,1.2,2.7,2.7c0,1.5-1.2,2.7-2.7,2.7h-10c-1.5,0-2.7-1.2-2.7-2.7
			C66.2,78.5,67.4,77.3,68.8,77.3z M78.9,81.5c0.8,0,1.5-0.7,1.5-1.5c0-0.8-0.7-1.5-1.5-1.5h-10c-0.8,0-1.5,0.7-1.5,1.5
			c0,0.8,0.7,1.5,1.5,1.5H78.9z"/>
	</g>
	<g>
		
			<linearGradient id="SVGID_51_" gradientUnits="userSpaceOnUse" x1="-26.7384" y1="351.0236" x2="-26.7384" y2="188.3203" gradientTransform="matrix(-0.8061 0 0 -0.8061 52.3033 316.8197)">
			<stop  offset="0" style="stop-color:#662D91"/>
			<stop  offset="1" style="stop-color:#48DBEF"/>
		</linearGradient>
		<path class="st50" d="M68.8,56.1h10c1.5,0,2.7,1.2,2.7,2.7c0,1.5-1.2,2.7-2.7,2.7h-10c-1.5,0-2.7-1.2-2.7-2.7
			C66.2,57.3,67.4,56.1,68.8,56.1z M78.9,60.2c0.8,0,1.5-0.7,1.5-1.5c0-0.8-0.7-1.5-1.5-1.5h-10c-0.8,0-1.5,0.7-1.5,1.5
			c0,0.8,0.7,1.5,1.5,1.5H78.9z"/>
	</g>
	<g>
		
			<linearGradient id="SVGID_52_" gradientUnits="userSpaceOnUse" x1="-26.7384" y1="351.024" x2="-26.7384" y2="188.3186" gradientTransform="matrix(-0.8061 0 0 -0.8061 52.3033 316.8197)">
			<stop  offset="0" style="stop-color:#662D91"/>
			<stop  offset="1" style="stop-color:#48DBEF"/>
		</linearGradient>
		<path class="st51" d="M68.8,49h10c1.5,0,2.7,1.2,2.7,2.7c0,1.5-1.2,2.7-2.7,2.7h-10c-1.5,0-2.7-1.2-2.7-2.7
			C66.2,50.2,67.4,49,68.8,49z M78.9,53.1c0.8,0,1.5-0.7,1.5-1.5c0-0.8-0.7-1.5-1.5-1.5h-10c-0.8,0-1.5,0.7-1.5,1.5
			c0,0.8,0.7,1.5,1.5,1.5H78.9z"/>
	</g>
	<g>
		
			<linearGradient id="SVGID_53_" gradientUnits="userSpaceOnUse" x1="-26.7384" y1="351.0237" x2="-26.7384" y2="188.3205" gradientTransform="matrix(-0.8061 0 0 -0.8061 52.3033 316.8197)">
			<stop  offset="0" style="stop-color:#662D91"/>
			<stop  offset="1" style="stop-color:#48DBEF"/>
		</linearGradient>
		<path class="st52" d="M68.8,41.9h10c1.5,0,2.7,1.2,2.7,2.7c0,1.5-1.2,2.7-2.7,2.7h-10c-1.5,0-2.7-1.2-2.7-2.7
			C66.2,43.1,67.4,41.9,68.8,41.9z M78.9,46.1c0.8,0,1.5-0.7,1.5-1.5c0-0.8-0.7-1.5-1.5-1.5h-10c-0.8,0-1.5,0.7-1.5,1.5
			c0,0.8,0.7,1.5,1.5,1.5H78.9z"/>
	</g>
	<g>
		
			<linearGradient id="SVGID_54_" gradientUnits="userSpaceOnUse" x1="-26.7384" y1="351.024" x2="-26.7384" y2="188.3185" gradientTransform="matrix(-0.8061 0 0 -0.8061 52.3033 316.8197)">
			<stop  offset="0" style="stop-color:#662D91"/>
			<stop  offset="1" style="stop-color:#48DBEF"/>
		</linearGradient>
		<path class="st53" d="M68.8,34.8h10c1.5,0,2.7,1.2,2.7,2.7c0,1.5-1.2,2.7-2.7,2.7h-10c-1.5,0-2.7-1.2-2.7-2.7
			C66.2,36,67.4,34.8,68.8,34.8z M78.9,39c0.8,0,1.5-0.7,1.5-1.5c0-0.8-0.7-1.5-1.5-1.5h-10c-0.8,0-1.5,0.7-1.5,1.5
			c0,0.8,0.7,1.5,1.5,1.5H78.9z"/>
	</g>
	<g>
		
			<linearGradient id="SVGID_55_" gradientUnits="userSpaceOnUse" x1="-4.3964" y1="351.0236" x2="-4.3964" y2="188.3182" gradientTransform="matrix(-0.8061 0 0 -0.8061 52.3033 316.8197)">
			<stop  offset="0" style="stop-color:#662D91"/>
			<stop  offset="1" style="stop-color:#48DBEF"/>
		</linearGradient>
		<path class="st54" d="M50.8,98.6h10c1.5,0,2.7,1.2,2.7,2.7c0,1.5-1.2,2.7-2.7,2.7h-10c-1.5,0-2.7-1.2-2.7-2.7
			C48.2,99.8,49.4,98.6,50.8,98.6z M60.9,102.7c0.8,0,1.5-0.7,1.5-1.5c0-0.8-0.7-1.5-1.5-1.5h-10c-0.8,0-1.5,0.7-1.5,1.5
			c0,0.8,0.7,1.5,1.5,1.5H60.9z"/>
	</g>
	<g>
		
			<linearGradient id="SVGID_56_" gradientUnits="userSpaceOnUse" x1="-4.3964" y1="351.0238" x2="-4.3964" y2="188.3184" gradientTransform="matrix(-0.8061 0 0 -0.8061 52.3033 316.8197)">
			<stop  offset="0" style="stop-color:#662D91"/>
			<stop  offset="1" style="stop-color:#48DBEF"/>
		</linearGradient>
		<path class="st55" d="M50.8,84.4h10c1.5,0,2.7,1.2,2.7,2.7c0,1.5-1.2,2.7-2.7,2.7h-10c-1.5,0-2.7-1.2-2.7-2.7
			C48.2,85.6,49.4,84.4,50.8,84.4z M60.9,88.6c0.8,0,1.5-0.7,1.5-1.5c0-0.8-0.7-1.5-1.5-1.5h-10c-0.8,0-1.5,0.7-1.5,1.5
			c0,0.8,0.7,1.5,1.5,1.5H60.9z"/>
	</g>
	<g>
		
			<linearGradient id="SVGID_57_" gradientUnits="userSpaceOnUse" x1="-4.3964" y1="351.0232" x2="-4.3964" y2="188.32" gradientTransform="matrix(-0.8061 0 0 -0.8061 52.3033 316.8197)">
			<stop  offset="0" style="stop-color:#662D91"/>
			<stop  offset="1" style="stop-color:#48DBEF"/>
		</linearGradient>
		<path class="st56" d="M50.8,77.3h10c1.5,0,2.7,1.2,2.7,2.7c0,1.5-1.2,2.7-2.7,2.7h-10c-1.5,0-2.7-1.2-2.7-2.7
			C48.2,78.5,49.4,77.3,50.8,77.3z M60.9,81.5c0.8,0,1.5-0.7,1.5-1.5c0-0.8-0.7-1.5-1.5-1.5h-10c-0.8,0-1.5,0.7-1.5,1.5
			c0,0.8,0.7,1.5,1.5,1.5H60.9z"/>
	</g>
	<g>
		
			<linearGradient id="SVGID_58_" gradientUnits="userSpaceOnUse" x1="-4.3964" y1="351.024" x2="-4.3964" y2="188.3185" gradientTransform="matrix(-0.8061 0 0 -0.8061 52.3033 316.8197)">
			<stop  offset="0" style="stop-color:#662D91"/>
			<stop  offset="1" style="stop-color:#48DBEF"/>
		</linearGradient>
		<path class="st57" d="M50.8,70.3h10c1.5,0,2.7,1.2,2.7,2.7c0,1.5-1.2,2.7-2.7,2.7h-10c-1.5,0-2.7-1.2-2.7-2.7
			C48.2,71.5,49.4,70.3,50.8,70.3z M60.9,74.4c0.8,0,1.5-0.7,1.5-1.5c0-0.8-0.7-1.5-1.5-1.5h-10c-0.8,0-1.5,0.7-1.5,1.5
			c0,0.8,0.7,1.5,1.5,1.5H60.9z"/>
	</g>
	<g>
		
			<linearGradient id="SVGID_59_" gradientUnits="userSpaceOnUse" x1="-4.3964" y1="351.0238" x2="-4.3964" y2="188.3184" gradientTransform="matrix(-0.8061 0 0 -0.8061 52.3033 316.8197)">
			<stop  offset="0" style="stop-color:#662D91"/>
			<stop  offset="1" style="stop-color:#48DBEF"/>
		</linearGradient>
		<path class="st58" d="M50.8,63.2h10c1.5,0,2.7,1.2,2.7,2.7c0,1.5-1.2,2.7-2.7,2.7h-10c-1.5,0-2.7-1.2-2.7-2.7
			C48.2,64.4,49.4,63.2,50.8,63.2z M60.9,67.3c0.8,0,1.5-0.7,1.5-1.5c0-0.8-0.7-1.5-1.5-1.5h-10c-0.8,0-1.5,0.7-1.5,1.5
			c0,0.8,0.7,1.5,1.5,1.5H60.9z"/>
	</g>
	<g>
		
			<linearGradient id="SVGID_60_" gradientUnits="userSpaceOnUse" x1="-4.3964" y1="351.0236" x2="-4.3964" y2="188.3203" gradientTransform="matrix(-0.8061 0 0 -0.8061 52.3033 316.8197)">
			<stop  offset="0" style="stop-color:#662D91"/>
			<stop  offset="1" style="stop-color:#48DBEF"/>
		</linearGradient>
		<path class="st59" d="M50.8,56.1h10c1.5,0,2.7,1.2,2.7,2.7c0,1.5-1.2,2.7-2.7,2.7h-10c-1.5,0-2.7-1.2-2.7-2.7
			C48.2,57.3,49.4,56.1,50.8,56.1z M60.9,60.2c0.8,0,1.5-0.7,1.5-1.5c0-0.8-0.7-1.5-1.5-1.5h-10c-0.8,0-1.5,0.7-1.5,1.5
			c0,0.8,0.7,1.5,1.5,1.5H60.9z"/>
	</g>
	<g>
		
			<linearGradient id="SVGID_61_" gradientUnits="userSpaceOnUse" x1="-4.3964" y1="351.024" x2="-4.3964" y2="188.3186" gradientTransform="matrix(-0.8061 0 0 -0.8061 52.3033 316.8197)">
			<stop  offset="0" style="stop-color:#662D91"/>
			<stop  offset="1" style="stop-color:#48DBEF"/>
		</linearGradient>
		<path class="st60" d="M50.8,49h10c1.5,0,2.7,1.2,2.7,2.7c0,1.5-1.2,2.7-2.7,2.7h-10c-1.5,0-2.7-1.2-2.7-2.7
			C48.2,50.2,49.4,49,50.8,49z M60.9,53.1c0.8,0,1.5-0.7,1.5-1.5c0-0.8-0.7-1.5-1.5-1.5h-10c-0.8,0-1.5,0.7-1.5,1.5
			c0,0.8,0.7,1.5,1.5,1.5H60.9z"/>
	</g>
	<g>
		
			<linearGradient id="SVGID_62_" gradientUnits="userSpaceOnUse" x1="-4.3964" y1="351.0237" x2="-4.3964" y2="188.3205" gradientTransform="matrix(-0.8061 0 0 -0.8061 52.3033 316.8197)">
			<stop  offset="0" style="stop-color:#662D91"/>
			<stop  offset="1" style="stop-color:#48DBEF"/>
		</linearGradient>
		<path class="st61" d="M50.8,41.9h10c1.5,0,2.7,1.2,2.7,2.7c0,1.5-1.2,2.7-2.7,2.7h-10c-1.5,0-2.7-1.2-2.7-2.7
			C48.2,43.1,49.4,41.9,50.8,41.9z M60.9,46.1c0.8,0,1.5-0.7,1.5-1.5c0-0.8-0.7-1.5-1.5-1.5h-10c-0.8,0-1.5,0.7-1.5,1.5
			c0,0.8,0.7,1.5,1.5,1.5H60.9z"/>
	</g>
	<g>
		
			<linearGradient id="SVGID_63_" gradientUnits="userSpaceOnUse" x1="-4.3964" y1="351.024" x2="-4.3964" y2="188.3185" gradientTransform="matrix(-0.8061 0 0 -0.8061 52.3033 316.8197)">
			<stop  offset="0" style="stop-color:#662D91"/>
			<stop  offset="1" style="stop-color:#48DBEF"/>
		</linearGradient>
		<path class="st62" d="M50.8,34.8h10c1.5,0,2.7,1.2,2.7,2.7c0,1.5-1.2,2.7-2.7,2.7h-10c-1.5,0-2.7-1.2-2.7-2.7
			C48.2,36,49.4,34.8,50.8,34.8z M60.9,39c0.8,0,1.5-0.7,1.5-1.5c0-0.8-0.7-1.5-1.5-1.5h-10c-0.8,0-1.5,0.7-1.5,1.5
			c0,0.8,0.7,1.5,1.5,1.5H60.9z"/>
	</g>
	<g>
		
			<linearGradient id="SVGID_64_" gradientUnits="userSpaceOnUse" x1="17.9452" y1="351.026" x2="17.9452" y2="188.318" gradientTransform="matrix(-0.8061 0 0 -0.8061 52.3033 316.8197)">
			<stop  offset="0" style="stop-color:#662D91"/>
			<stop  offset="1" style="stop-color:#48DBEF"/>
		</linearGradient>
		<path class="st63" d="M32.8,127h10c1.5,0,2.7,1.2,2.7,2.7c0,1.5-1.2,2.7-2.7,2.7h-10c-1.5,0-2.7-1.2-2.7-2.7
			C30.2,128.1,31.4,127,32.8,127z M42.9,131.1c0.8,0,1.5-0.7,1.5-1.5c0-0.8-0.7-1.5-1.5-1.5h-10c-0.8,0-1.5,0.7-1.5,1.5
			c0,0.8,0.7,1.5,1.5,1.5H42.9z"/>
	</g>
	<g>
		
			<linearGradient id="SVGID_65_" gradientUnits="userSpaceOnUse" x1="17.9452" y1="351.0235" x2="17.9452" y2="188.3181" gradientTransform="matrix(-0.8061 0 0 -0.8061 52.3033 316.8197)">
			<stop  offset="0" style="stop-color:#662D91"/>
			<stop  offset="1" style="stop-color:#48DBEF"/>
		</linearGradient>
		<path class="st64" d="M32.8,119.9h10c1.5,0,2.7,1.2,2.7,2.7c0,1.5-1.2,2.7-2.7,2.7h-10c-1.5,0-2.7-1.2-2.7-2.7
			C30.2,121.1,31.4,119.9,32.8,119.9z M42.9,124c0.8,0,1.5-0.7,1.5-1.5c0-0.8-0.7-1.5-1.5-1.5h-10c-0.8,0-1.5,0.7-1.5,1.5
			c0,0.8,0.7,1.5,1.5,1.5H42.9z"/>
	</g>
	<g>
		
			<linearGradient id="SVGID_66_" gradientUnits="userSpaceOnUse" x1="17.9452" y1="351.0236" x2="17.9452" y2="188.3182" gradientTransform="matrix(-0.8061 0 0 -0.8061 52.3033 316.8197)">
			<stop  offset="0" style="stop-color:#662D91"/>
			<stop  offset="1" style="stop-color:#48DBEF"/>
		</linearGradient>
		<path class="st65" d="M32.8,98.6h10c1.5,0,2.7,1.2,2.7,2.7c0,1.5-1.2,2.7-2.7,2.7h-10c-1.5,0-2.7-1.2-2.7-2.7
			C30.2,99.8,31.4,98.6,32.8,98.6z M42.9,102.7c0.8,0,1.5-0.7,1.5-1.5c0-0.8-0.7-1.5-1.5-1.5h-10c-0.8,0-1.5,0.7-1.5,1.5
			c0,0.8,0.7,1.5,1.5,1.5H42.9z"/>
	</g>
	<g>
		
			<linearGradient id="SVGID_67_" gradientUnits="userSpaceOnUse" x1="17.9452" y1="351.0227" x2="17.9452" y2="188.3195" gradientTransform="matrix(-0.8061 0 0 -0.8061 52.3033 316.8197)">
			<stop  offset="0" style="stop-color:#662D91"/>
			<stop  offset="1" style="stop-color:#48DBEF"/>
		</linearGradient>
		<path class="st66" d="M32.8,91.5h10c1.5,0,2.7,1.2,2.7,2.7c0,1.5-1.2,2.7-2.7,2.7h-10c-1.5,0-2.7-1.2-2.7-2.7
			C30.2,92.7,31.4,91.5,32.8,91.5z M42.9,95.7c0.8,0,1.5-0.7,1.5-1.5c0-0.8-0.7-1.5-1.5-1.5h-10c-0.8,0-1.5,0.7-1.5,1.5
			c0,0.8,0.7,1.5,1.5,1.5H42.9z"/>
	</g>
	<g>
		
			<linearGradient id="SVGID_68_" gradientUnits="userSpaceOnUse" x1="17.9452" y1="351.0238" x2="17.9452" y2="188.3184" gradientTransform="matrix(-0.8061 0 0 -0.8061 52.3033 316.8197)">
			<stop  offset="0" style="stop-color:#662D91"/>
			<stop  offset="1" style="stop-color:#48DBEF"/>
		</linearGradient>
		<path class="st67" d="M32.8,84.4h10c1.5,0,2.7,1.2,2.7,2.7c0,1.5-1.2,2.7-2.7,2.7h-10c-1.5,0-2.7-1.2-2.7-2.7
			C30.2,85.6,31.4,84.4,32.8,84.4z M42.9,88.6c0.8,0,1.5-0.7,1.5-1.5c0-0.8-0.7-1.5-1.5-1.5h-10c-0.8,0-1.5,0.7-1.5,1.5
			c0,0.8,0.7,1.5,1.5,1.5H42.9z"/>
	</g>
	<g>
		
			<linearGradient id="SVGID_69_" gradientUnits="userSpaceOnUse" x1="17.9452" y1="351.0232" x2="17.9452" y2="188.32" gradientTransform="matrix(-0.8061 0 0 -0.8061 52.3033 316.8197)">
			<stop  offset="0" style="stop-color:#662D91"/>
			<stop  offset="1" style="stop-color:#48DBEF"/>
		</linearGradient>
		<path class="st68" d="M32.8,77.3h10c1.5,0,2.7,1.2,2.7,2.7c0,1.5-1.2,2.7-2.7,2.7h-10c-1.5,0-2.7-1.2-2.7-2.7
			C30.2,78.5,31.4,77.3,32.8,77.3z M42.9,81.5c0.8,0,1.5-0.7,1.5-1.5c0-0.8-0.7-1.5-1.5-1.5h-10c-0.8,0-1.5,0.7-1.5,1.5
			c0,0.8,0.7,1.5,1.5,1.5H42.9z"/>
	</g>
	<g>
		
			<linearGradient id="SVGID_70_" gradientUnits="userSpaceOnUse" x1="17.9452" y1="351.024" x2="17.9452" y2="188.3185" gradientTransform="matrix(-0.8061 0 0 -0.8061 52.3033 316.8197)">
			<stop  offset="0" style="stop-color:#662D91"/>
			<stop  offset="1" style="stop-color:#48DBEF"/>
		</linearGradient>
		<path class="st69" d="M32.8,70.3h10c1.5,0,2.7,1.2,2.7,2.7c0,1.5-1.2,2.7-2.7,2.7h-10c-1.5,0-2.7-1.2-2.7-2.7
			C30.2,71.5,31.4,70.3,32.8,70.3z M42.9,74.4c0.8,0,1.5-0.7,1.5-1.5c0-0.8-0.7-1.5-1.5-1.5h-10c-0.8,0-1.5,0.7-1.5,1.5
			c0,0.8,0.7,1.5,1.5,1.5H42.9z"/>
	</g>
	<g>
		
			<linearGradient id="SVGID_71_" gradientUnits="userSpaceOnUse" x1="17.9452" y1="351.0238" x2="17.9452" y2="188.3184" gradientTransform="matrix(-0.8061 0 0 -0.8061 52.3033 316.8197)">
			<stop  offset="0" style="stop-color:#662D91"/>
			<stop  offset="1" style="stop-color:#48DBEF"/>
		</linearGradient>
		<path class="st70" d="M32.8,63.2h10c1.5,0,2.7,1.2,2.7,2.7c0,1.5-1.2,2.7-2.7,2.7h-10c-1.5,0-2.7-1.2-2.7-2.7
			C30.2,64.4,31.4,63.2,32.8,63.2z M42.9,67.3c0.8,0,1.5-0.7,1.5-1.5c0-0.8-0.7-1.5-1.5-1.5h-10c-0.8,0-1.5,0.7-1.5,1.5
			c0,0.8,0.7,1.5,1.5,1.5H42.9z"/>
	</g>
	<g>
		
			<linearGradient id="SVGID_72_" gradientUnits="userSpaceOnUse" x1="17.9452" y1="351.0236" x2="17.9452" y2="188.3203" gradientTransform="matrix(-0.8061 0 0 -0.8061 52.3033 316.8197)">
			<stop  offset="0" style="stop-color:#662D91"/>
			<stop  offset="1" style="stop-color:#48DBEF"/>
		</linearGradient>
		<path class="st71" d="M32.8,56.1h10c1.5,0,2.7,1.2,2.7,2.7c0,1.5-1.2,2.7-2.7,2.7h-10c-1.5,0-2.7-1.2-2.7-2.7
			C30.2,57.3,31.4,56.1,32.8,56.1z M42.9,60.2c0.8,0,1.5-0.7,1.5-1.5c0-0.8-0.7-1.5-1.5-1.5h-10c-0.8,0-1.5,0.7-1.5,1.5
			c0,0.8,0.7,1.5,1.5,1.5H42.9z"/>
	</g>
	<g>
		
			<linearGradient id="SVGID_73_" gradientUnits="userSpaceOnUse" x1="17.9452" y1="351.024" x2="17.9452" y2="188.3186" gradientTransform="matrix(-0.8061 0 0 -0.8061 52.3033 316.8197)">
			<stop  offset="0" style="stop-color:#662D91"/>
			<stop  offset="1" style="stop-color:#48DBEF"/>
		</linearGradient>
		<path class="st72" d="M32.8,49h10c1.5,0,2.7,1.2,2.7,2.7c0,1.5-1.2,2.7-2.7,2.7h-10c-1.5,0-2.7-1.2-2.7-2.7
			C30.2,50.2,31.4,49,32.8,49z M42.9,53.1c0.8,0,1.5-0.7,1.5-1.5c0-0.8-0.7-1.5-1.5-1.5h-10c-0.8,0-1.5,0.7-1.5,1.5
			c0,0.8,0.7,1.5,1.5,1.5H42.9z"/>
	</g>
	<g>
		
			<linearGradient id="SVGID_74_" gradientUnits="userSpaceOnUse" x1="17.9452" y1="351.0237" x2="17.9452" y2="188.3205" gradientTransform="matrix(-0.8061 0 0 -0.8061 52.3033 316.8197)">
			<stop  offset="0" style="stop-color:#662D91"/>
			<stop  offset="1" style="stop-color:#48DBEF"/>
		</linearGradient>
		<path class="st73" d="M32.8,41.9h10c1.5,0,2.7,1.2,2.7,2.7c0,1.5-1.2,2.7-2.7,2.7h-10c-1.5,0-2.7-1.2-2.7-2.7
			C30.2,43.1,31.4,41.9,32.8,41.9z M42.9,46.1c0.8,0,1.5-0.7,1.5-1.5c0-0.8-0.7-1.5-1.5-1.5h-10c-0.8,0-1.5,0.7-1.5,1.5
			c0,0.8,0.7,1.5,1.5,1.5H42.9z"/>
	</g>
	<g>
		
			<linearGradient id="SVGID_75_" gradientUnits="userSpaceOnUse" x1="17.9452" y1="351.024" x2="17.9452" y2="188.3185" gradientTransform="matrix(-0.8061 0 0 -0.8061 52.3033 316.8197)">
			<stop  offset="0" style="stop-color:#662D91"/>
			<stop  offset="1" style="stop-color:#48DBEF"/>
		</linearGradient>
		<path class="st74" d="M32.8,34.8h10c1.5,0,2.7,1.2,2.7,2.7c0,1.5-1.2,2.7-2.7,2.7h-10c-1.5,0-2.7-1.2-2.7-2.7
			C30.2,36,31.4,34.8,32.8,34.8z M42.9,39c0.8,0,1.5-0.7,1.5-1.5c0-0.8-0.7-1.5-1.5-1.5h-10c-0.8,0-1.5,0.7-1.5,1.5
			c0,0.8,0.7,1.5,1.5,1.5H42.9z"/>
	</g>
	<g>
		
			<linearGradient id="SVGID_76_" gradientUnits="userSpaceOnUse" x1="40.287" y1="351.0236" x2="40.287" y2="188.3203" gradientTransform="matrix(-0.8061 0 0 -0.8061 52.3033 316.8197)">
			<stop  offset="0" style="stop-color:#662D91"/>
			<stop  offset="1" style="stop-color:#48DBEF"/>
		</linearGradient>
		<path class="st75" d="M14.8,56.1h10c1.5,0,2.7,1.2,2.7,2.7c0,1.5-1.2,2.7-2.7,2.7h-10c-1.5,0-2.7-1.2-2.7-2.7
			C12.2,57.3,13.3,56.1,14.8,56.1z M24.8,60.2c0.8,0,1.5-0.7,1.5-1.5c0-0.8-0.7-1.5-1.5-1.5h-10c-0.8,0-1.5,0.7-1.5,1.5
			c0,0.8,0.7,1.5,1.5,1.5H24.8z"/>
	</g>
	<g>
		
			<linearGradient id="SVGID_77_" gradientUnits="userSpaceOnUse" x1="40.287" y1="351.0237" x2="40.287" y2="188.3205" gradientTransform="matrix(-0.8061 0 0 -0.8061 52.3033 316.8197)">
			<stop  offset="0" style="stop-color:#662D91"/>
			<stop  offset="1" style="stop-color:#48DBEF"/>
		</linearGradient>
		<path class="st76" d="M14.8,41.9h10c1.5,0,2.7,1.2,2.7,2.7c0,1.5-1.2,2.7-2.7,2.7h-10c-1.5,0-2.7-1.2-2.7-2.7
			C12.2,43.1,13.3,41.9,14.8,41.9z M24.8,46.1c0.8,0,1.5-0.7,1.5-1.5c0-0.8-0.7-1.5-1.5-1.5h-10c-0.8,0-1.5,0.7-1.5,1.5
			c0,0.8,0.7,1.5,1.5,1.5H24.8z"/>
	</g>
	<g>
		
			<linearGradient id="SVGID_78_" gradientUnits="userSpaceOnUse" x1="40.287" y1="351.024" x2="40.287" y2="188.3185" gradientTransform="matrix(-0.8061 0 0 -0.8061 52.3033 316.8197)">
			<stop  offset="0" style="stop-color:#662D91"/>
			<stop  offset="1" style="stop-color:#48DBEF"/>
		</linearGradient>
		<path class="st77" d="M14.8,34.8h10c1.5,0,2.7,1.2,2.7,2.7c0,1.5-1.2,2.7-2.7,2.7h-10c-1.5,0-2.7-1.2-2.7-2.7
			C12.2,36,13.3,34.8,14.8,34.8z M24.8,39c0.8,0,1.5-0.7,1.5-1.5c0-0.8-0.7-1.5-1.5-1.5h-10c-0.8,0-1.5,0.7-1.5,1.5
			c0,0.8,0.7,1.5,1.5,1.5H24.8z"/>
	</g>
</g>
<g>
	<g>
		
			<linearGradient id="SVGID_79_" gradientUnits="userSpaceOnUse" x1="-238.2414" y1="351.5551" x2="-238.2414" y2="188.8518" gradientTransform="matrix(0.7819 0 0 -0.8061 350.3027 316.8197)">
			<stop  offset="0" style="stop-color:#662D91"/>
			<stop  offset="1" style="stop-color:#48DBEF"/>
		</linearGradient>
		<path class="st78" d="M168.9,55.7h-9.7c-1.4,0-2.6,1.2-2.6,2.7c0,1.5,1.2,2.7,2.6,2.7h9.7c1.4,0,2.6-1.2,2.6-2.7
			C171.5,56.9,170.3,55.7,168.9,55.7z M159.2,59.8c-0.8,0-1.4-0.7-1.4-1.5c0-0.8,0.6-1.5,1.4-1.5h9.7c0.8,0,1.4,0.7,1.4,1.5
			c0,0.8-0.6,1.5-1.4,1.5H159.2z"/>
	</g>
	<g>
		
			<linearGradient id="SVGID_80_" gradientUnits="userSpaceOnUse" x1="-238.2414" y1="351.5555" x2="-238.2414" y2="188.8501" gradientTransform="matrix(0.7819 0 0 -0.8061 350.3027 316.8197)">
			<stop  offset="0" style="stop-color:#662D91"/>
			<stop  offset="1" style="stop-color:#48DBEF"/>
		</linearGradient>
		<path class="st79" d="M168.9,48.6h-9.7c-1.4,0-2.6,1.2-2.6,2.7c0,1.5,1.2,2.7,2.6,2.7h9.7c1.4,0,2.6-1.2,2.6-2.7
			C171.5,49.8,170.3,48.6,168.9,48.6z M159.2,52.7c-0.8,0-1.4-0.7-1.4-1.5c0-0.8,0.6-1.5,1.4-1.5h9.7c0.8,0,1.4,0.7,1.4,1.5
			c0,0.8-0.6,1.5-1.4,1.5H159.2z"/>
	</g>
	<g>
		
			<linearGradient id="SVGID_81_" gradientUnits="userSpaceOnUse" x1="-238.2414" y1="351.5552" x2="-238.2414" y2="188.852" gradientTransform="matrix(0.7819 0 0 -0.8061 350.3027 316.8197)">
			<stop  offset="0" style="stop-color:#662D91"/>
			<stop  offset="1" style="stop-color:#48DBEF"/>
		</linearGradient>
		<path class="st80" d="M168.9,41.5h-9.7c-1.4,0-2.6,1.2-2.6,2.7c0,1.5,1.2,2.7,2.6,2.7h9.7c1.4,0,2.6-1.2,2.6-2.7
			C171.5,42.7,170.3,41.5,168.9,41.5z M159.2,45.6c-0.8,0-1.4-0.7-1.4-1.5c0-0.8,0.6-1.5,1.4-1.5h9.7c0.8,0,1.4,0.7,1.4,1.5
			c0,0.8-0.6,1.5-1.4,1.5H159.2z"/>
	</g>
	<g>
		
			<linearGradient id="SVGID_82_" gradientUnits="userSpaceOnUse" x1="-238.2414" y1="351.5555" x2="-238.2414" y2="188.85" gradientTransform="matrix(0.7819 0 0 -0.8061 350.3027 316.8197)">
			<stop  offset="0" style="stop-color:#662D91"/>
			<stop  offset="1" style="stop-color:#48DBEF"/>
		</linearGradient>
		<path class="st81" d="M168.9,34.4h-9.7c-1.4,0-2.6,1.2-2.6,2.7c0,1.5,1.2,2.7,2.6,2.7h9.7c1.4,0,2.6-1.2,2.6-2.7
			C171.5,35.6,170.3,34.4,168.9,34.4z M159.2,38.5c-0.8,0-1.4-0.7-1.4-1.5c0-0.8,0.6-1.5,1.4-1.5h9.7c0.8,0,1.4,0.7,1.4,1.5
			c0,0.8-0.6,1.5-1.4,1.5H159.2z"/>
	</g>
	<g>
		
			<linearGradient id="SVGID_83_" gradientUnits="userSpaceOnUse" x1="-215.8994" y1="351.5575" x2="-215.8994" y2="188.8495" gradientTransform="matrix(0.7819 0 0 -0.8061 350.3027 316.8197)">
			<stop  offset="0" style="stop-color:#662D91"/>
			<stop  offset="1" style="stop-color:#48DBEF"/>
		</linearGradient>
		<path class="st82" d="M186.4,140.7h-9.7c-1.4,0-2.6,1.2-2.6,2.7c0,1.5,1.2,2.7,2.6,2.7h9.7c1.4,0,2.6-1.2,2.6-2.7
			C188.9,141.9,187.8,140.7,186.4,140.7z M176.6,144.8c-0.8,0-1.4-0.7-1.4-1.5c0-0.8,0.6-1.5,1.4-1.5h9.7c0.8,0,1.4,0.7,1.4,1.5
			c0,0.8-0.6,1.5-1.4,1.5H176.6z"/>
	</g>
	<g>
		
			<linearGradient id="SVGID_84_" gradientUnits="userSpaceOnUse" x1="-215.8994" y1="351.5556" x2="-215.8994" y2="188.8501" gradientTransform="matrix(0.7819 0 0 -0.8061 350.3027 316.8197)">
			<stop  offset="0" style="stop-color:#662D91"/>
			<stop  offset="1" style="stop-color:#48DBEF"/>
		</linearGradient>
		<path class="st83" d="M186.4,133.6h-9.7c-1.4,0-2.6,1.2-2.6,2.7c0,1.5,1.2,2.7,2.6,2.7h9.7c1.4,0,2.6-1.2,2.6-2.7
			C188.9,134.8,187.8,133.6,186.4,133.6z M176.6,137.7c-0.8,0-1.4-0.7-1.4-1.5c0-0.8,0.6-1.5,1.4-1.5h9.7c0.8,0,1.4,0.7,1.4,1.5
			c0,0.8-0.6,1.5-1.4,1.5H176.6z"/>
	</g>
	<g>
		
			<linearGradient id="SVGID_85_" gradientUnits="userSpaceOnUse" x1="-215.8994" y1="351.5575" x2="-215.8994" y2="188.8495" gradientTransform="matrix(0.7819 0 0 -0.8061 350.3027 316.8197)">
			<stop  offset="0" style="stop-color:#662D91"/>
			<stop  offset="1" style="stop-color:#48DBEF"/>
		</linearGradient>
		<path class="st84" d="M186.4,126.5h-9.7c-1.4,0-2.6,1.2-2.6,2.7c0,1.5,1.2,2.7,2.6,2.7h9.7c1.4,0,2.6-1.2,2.6-2.7
			C188.9,127.7,187.8,126.5,186.4,126.5z M176.6,130.7c-0.8,0-1.4-0.7-1.4-1.5c0-0.8,0.6-1.5,1.4-1.5h9.7c0.8,0,1.4,0.7,1.4,1.5
			c0,0.8-0.6,1.5-1.4,1.5H176.6z"/>
	</g>
	<g>
		
			<linearGradient id="SVGID_86_" gradientUnits="userSpaceOnUse" x1="-215.8994" y1="351.5539" x2="-215.8994" y2="188.8507" gradientTransform="matrix(0.7819 0 0 -0.8061 350.3027 316.8197)">
			<stop  offset="0" style="stop-color:#662D91"/>
			<stop  offset="1" style="stop-color:#48DBEF"/>
		</linearGradient>
		<path class="st85" d="M186.4,112.3h-9.7c-1.4,0-2.6,1.2-2.6,2.7c0,1.5,1.2,2.7,2.6,2.7h9.7c1.4,0,2.6-1.2,2.6-2.7
			C188.9,113.5,187.8,112.3,186.4,112.3z M176.6,116.5c-0.8,0-1.4-0.7-1.4-1.5c0-0.8,0.6-1.5,1.4-1.5h9.7c0.8,0,1.4,0.7,1.4,1.5
			c0,0.8-0.6,1.5-1.4,1.5H176.6z"/>
	</g>
	<g>
		
			<linearGradient id="SVGID_87_" gradientUnits="userSpaceOnUse" x1="-215.8994" y1="351.5551" x2="-215.8994" y2="188.8497" gradientTransform="matrix(0.7819 0 0 -0.8061 350.3027 316.8197)">
			<stop  offset="0" style="stop-color:#662D91"/>
			<stop  offset="1" style="stop-color:#48DBEF"/>
		</linearGradient>
		<path class="st86" d="M186.4,105.3h-9.7c-1.4,0-2.6,1.2-2.6,2.7c0,1.5,1.2,2.7,2.6,2.7h9.7c1.4,0,2.6-1.2,2.6-2.7
			C188.9,106.5,187.8,105.3,186.4,105.3z M176.6,109.4c-0.8,0-1.4-0.7-1.4-1.5c0-0.8,0.6-1.5,1.4-1.5h9.7c0.8,0,1.4,0.7,1.4,1.5
			c0,0.8-0.6,1.5-1.4,1.5H176.6z"/>
	</g>
	<g>
		
			<linearGradient id="SVGID_88_" gradientUnits="userSpaceOnUse" x1="-215.8994" y1="351.5551" x2="-215.8994" y2="188.8497" gradientTransform="matrix(0.7819 0 0 -0.8061 350.3027 316.8197)">
			<stop  offset="0" style="stop-color:#662D91"/>
			<stop  offset="1" style="stop-color:#48DBEF"/>
		</linearGradient>
		<path class="st87" d="M186.4,98.2h-9.7c-1.4,0-2.6,1.2-2.6,2.7c0,1.5,1.2,2.7,2.6,2.7h9.7c1.4,0,2.6-1.2,2.6-2.7
			C188.9,99.4,187.8,98.2,186.4,98.2z M176.6,102.3c-0.8,0-1.4-0.7-1.4-1.5c0-0.8,0.6-1.5,1.4-1.5h9.7c0.8,0,1.4,0.7,1.4,1.5
			c0,0.8-0.6,1.5-1.4,1.5H176.6z"/>
	</g>
	<g>
		
			<linearGradient id="SVGID_89_" gradientUnits="userSpaceOnUse" x1="-215.8994" y1="351.5542" x2="-215.8994" y2="188.851" gradientTransform="matrix(0.7819 0 0 -0.8061 350.3027 316.8197)">
			<stop  offset="0" style="stop-color:#662D91"/>
			<stop  offset="1" style="stop-color:#48DBEF"/>
		</linearGradient>
		<path class="st88" d="M186.4,91.1h-9.7c-1.4,0-2.6,1.2-2.6,2.7c0,1.5,1.2,2.7,2.6,2.7h9.7c1.4,0,2.6-1.2,2.6-2.7
			C188.9,92.3,187.8,91.1,186.4,91.1z M176.6,95.2c-0.8,0-1.4-0.7-1.4-1.5c0-0.8,0.6-1.5,1.4-1.5h9.7c0.8,0,1.4,0.7,1.4,1.5
			c0,0.8-0.6,1.5-1.4,1.5H176.6z"/>
	</g>
	<g>
		
			<linearGradient id="SVGID_90_" gradientUnits="userSpaceOnUse" x1="-215.8994" y1="351.5547" x2="-215.8994" y2="188.8515" gradientTransform="matrix(0.7819 0 0 -0.8061 350.3027 316.8197)">
			<stop  offset="0" style="stop-color:#662D91"/>
			<stop  offset="1" style="stop-color:#48DBEF"/>
		</linearGradient>
		<path class="st89" d="M186.4,76.9h-9.7c-1.4,0-2.6,1.2-2.6,2.7s1.2,2.7,2.6,2.7h9.7c1.4,0,2.6-1.2,2.6-2.7S187.8,76.9,186.4,76.9z
			 M176.6,81.1c-0.8,0-1.4-0.7-1.4-1.5c0-0.8,0.6-1.5,1.4-1.5h9.7c0.8,0,1.4,0.7,1.4,1.5c0,0.8-0.6,1.5-1.4,1.5H176.6z"/>
	</g>
	<g>
		
			<linearGradient id="SVGID_91_" gradientUnits="userSpaceOnUse" x1="-215.8994" y1="351.5555" x2="-215.8994" y2="188.85" gradientTransform="matrix(0.7819 0 0 -0.8061 350.3027 316.8197)">
			<stop  offset="0" style="stop-color:#662D91"/>
			<stop  offset="1" style="stop-color:#48DBEF"/>
		</linearGradient>
		<path class="st90" d="M186.4,69.8h-9.7c-1.4,0-2.6,1.2-2.6,2.7c0,1.5,1.2,2.7,2.6,2.7h9.7c1.4,0,2.6-1.2,2.6-2.7
			C188.9,71,187.8,69.8,186.4,69.8z M176.6,74c-0.8,0-1.4-0.7-1.4-1.5c0-0.8,0.6-1.5,1.4-1.5h9.7c0.8,0,1.4,0.7,1.4,1.5
			c0,0.8-0.6,1.5-1.4,1.5H176.6z"/>
	</g>
	<g>
		
			<linearGradient id="SVGID_92_" gradientUnits="userSpaceOnUse" x1="-215.8994" y1="351.5553" x2="-215.8994" y2="188.8499" gradientTransform="matrix(0.7819 0 0 -0.8061 350.3027 316.8197)">
			<stop  offset="0" style="stop-color:#662D91"/>
			<stop  offset="1" style="stop-color:#48DBEF"/>
		</linearGradient>
		<path class="st91" d="M186.4,62.7h-9.7c-1.4,0-2.6,1.2-2.6,2.7c0,1.5,1.2,2.7,2.6,2.7h9.7c1.4,0,2.6-1.2,2.6-2.7
			C188.9,63.9,187.8,62.7,186.4,62.7z M176.6,66.9c-0.8,0-1.4-0.7-1.4-1.5c0-0.8,0.6-1.5,1.4-1.5h9.7c0.8,0,1.4,0.7,1.4,1.5
			c0,0.8-0.6,1.5-1.4,1.5H176.6z"/>
	</g>
	<g>
		
			<linearGradient id="SVGID_93_" gradientUnits="userSpaceOnUse" x1="-215.8994" y1="351.5551" x2="-215.8994" y2="188.8518" gradientTransform="matrix(0.7819 0 0 -0.8061 350.3027 316.8197)">
			<stop  offset="0" style="stop-color:#662D91"/>
			<stop  offset="1" style="stop-color:#48DBEF"/>
		</linearGradient>
		<path class="st92" d="M186.4,55.7h-9.7c-1.4,0-2.6,1.2-2.6,2.7c0,1.5,1.2,2.7,2.6,2.7h9.7c1.4,0,2.6-1.2,2.6-2.7
			C188.9,56.9,187.8,55.7,186.4,55.7z M176.6,59.8c-0.8,0-1.4-0.7-1.4-1.5c0-0.8,0.6-1.5,1.4-1.5h9.7c0.8,0,1.4,0.7,1.4,1.5
			c0,0.8-0.6,1.5-1.4,1.5H176.6z"/>
	</g>
	<g>
		
			<linearGradient id="SVGID_94_" gradientUnits="userSpaceOnUse" x1="-215.8994" y1="351.5555" x2="-215.8994" y2="188.8501" gradientTransform="matrix(0.7819 0 0 -0.8061 350.3027 316.8197)">
			<stop  offset="0" style="stop-color:#662D91"/>
			<stop  offset="1" style="stop-color:#48DBEF"/>
		</linearGradient>
		<path class="st93" d="M186.4,48.6h-9.7c-1.4,0-2.6,1.2-2.6,2.7c0,1.5,1.2,2.7,2.6,2.7h9.7c1.4,0,2.6-1.2,2.6-2.7
			C188.9,49.8,187.8,48.6,186.4,48.6z M176.6,52.7c-0.8,0-1.4-0.7-1.4-1.5c0-0.8,0.6-1.5,1.4-1.5h9.7c0.8,0,1.4,0.7,1.4,1.5
			c0,0.8-0.6,1.5-1.4,1.5H176.6z"/>
	</g>
	<g>
		
			<linearGradient id="SVGID_95_" gradientUnits="userSpaceOnUse" x1="-215.8994" y1="351.5552" x2="-215.8994" y2="188.852" gradientTransform="matrix(0.7819 0 0 -0.8061 350.3027 316.8197)">
			<stop  offset="0" style="stop-color:#662D91"/>
			<stop  offset="1" style="stop-color:#48DBEF"/>
		</linearGradient>
		<path class="st94" d="M186.4,41.5h-9.7c-1.4,0-2.6,1.2-2.6,2.7c0,1.5,1.2,2.7,2.6,2.7h9.7c1.4,0,2.6-1.2,2.6-2.7
			C188.9,42.7,187.8,41.5,186.4,41.5z M176.6,45.6c-0.8,0-1.4-0.7-1.4-1.5c0-0.8,0.6-1.5,1.4-1.5h9.7c0.8,0,1.4,0.7,1.4,1.5
			c0,0.8-0.6,1.5-1.4,1.5H176.6z"/>
	</g>
	<g>
		
			<linearGradient id="SVGID_96_" gradientUnits="userSpaceOnUse" x1="-215.8994" y1="351.5555" x2="-215.8994" y2="188.85" gradientTransform="matrix(0.7819 0 0 -0.8061 350.3027 316.8197)">
			<stop  offset="0" style="stop-color:#662D91"/>
			<stop  offset="1" style="stop-color:#48DBEF"/>
		</linearGradient>
		<path class="st95" d="M186.4,34.4h-9.7c-1.4,0-2.6,1.2-2.6,2.7c0,1.5,1.2,2.7,2.6,2.7h9.7c1.4,0,2.6-1.2,2.6-2.7
			C188.9,35.6,187.8,34.4,186.4,34.4z M176.6,38.5c-0.8,0-1.4-0.7-1.4-1.5c0-0.8,0.6-1.5,1.4-1.5h9.7c0.8,0,1.4,0.7,1.4,1.5
			c0,0.8-0.6,1.5-1.4,1.5H176.6z"/>
	</g>
	<g>
		
			<linearGradient id="SVGID_97_" gradientUnits="userSpaceOnUse" x1="-193.5576" y1="351.555" x2="-193.5576" y2="188.8496" gradientTransform="matrix(0.7819 0 0 -0.8061 350.3027 316.8197)">
			<stop  offset="0" style="stop-color:#662D91"/>
			<stop  offset="1" style="stop-color:#48DBEF"/>
		</linearGradient>
		<path class="st96" d="M203.8,119.4h-9.7c-1.4,0-2.6,1.2-2.6,2.7c0,1.5,1.2,2.7,2.6,2.7h9.7c1.4,0,2.6-1.2,2.6-2.7
			C206.4,120.6,205.2,119.4,203.8,119.4z M194.1,123.6c-0.8,0-1.4-0.7-1.4-1.5c0-0.8,0.6-1.5,1.4-1.5h9.7c0.8,0,1.4,0.7,1.4,1.5
			c0,0.8-0.6,1.5-1.4,1.5H194.1z"/>
	</g>
	<g>
		
			<linearGradient id="SVGID_98_" gradientUnits="userSpaceOnUse" x1="-193.5576" y1="351.5551" x2="-193.5576" y2="188.8497" gradientTransform="matrix(0.7819 0 0 -0.8061 350.3027 316.8197)">
			<stop  offset="0" style="stop-color:#662D91"/>
			<stop  offset="1" style="stop-color:#48DBEF"/>
		</linearGradient>
		<path class="st97" d="M203.8,105.3h-9.7c-1.4,0-2.6,1.2-2.6,2.7c0,1.5,1.2,2.7,2.6,2.7h9.7c1.4,0,2.6-1.2,2.6-2.7
			C206.4,106.5,205.2,105.3,203.8,105.3z M194.1,109.4c-0.8,0-1.4-0.7-1.4-1.5c0-0.8,0.6-1.5,1.4-1.5h9.7c0.8,0,1.4,0.7,1.4,1.5
			c0,0.8-0.6,1.5-1.4,1.5H194.1z"/>
	</g>
	<g>
		
			<linearGradient id="SVGID_99_" gradientUnits="userSpaceOnUse" x1="-193.5576" y1="351.5551" x2="-193.5576" y2="188.8497" gradientTransform="matrix(0.7819 0 0 -0.8061 350.3027 316.8197)">
			<stop  offset="0" style="stop-color:#662D91"/>
			<stop  offset="1" style="stop-color:#48DBEF"/>
		</linearGradient>
		<path class="st98" d="M203.8,98.2h-9.7c-1.4,0-2.6,1.2-2.6,2.7c0,1.5,1.2,2.7,2.6,2.7h9.7c1.4,0,2.6-1.2,2.6-2.7
			C206.4,99.4,205.2,98.2,203.8,98.2z M194.1,102.3c-0.8,0-1.4-0.7-1.4-1.5c0-0.8,0.6-1.5,1.4-1.5h9.7c0.8,0,1.4,0.7,1.4,1.5
			c0,0.8-0.6,1.5-1.4,1.5H194.1z"/>
	</g>
	<g>
		
			<linearGradient id="SVGID_100_" gradientUnits="userSpaceOnUse" x1="-193.5576" y1="351.5542" x2="-193.5576" y2="188.851" gradientTransform="matrix(0.7819 0 0 -0.8061 350.3027 316.8197)">
			<stop  offset="0" style="stop-color:#662D91"/>
			<stop  offset="1" style="stop-color:#48DBEF"/>
		</linearGradient>
		<path class="st99" d="M203.8,91.1h-9.7c-1.4,0-2.6,1.2-2.6,2.7c0,1.5,1.2,2.7,2.6,2.7h9.7c1.4,0,2.6-1.2,2.6-2.7
			C206.4,92.3,205.2,91.1,203.8,91.1z M194.1,95.2c-0.8,0-1.4-0.7-1.4-1.5c0-0.8,0.6-1.5,1.4-1.5h9.7c0.8,0,1.4,0.7,1.4,1.5
			c0,0.8-0.6,1.5-1.4,1.5H194.1z"/>
	</g>
	<g>
		
			<linearGradient id="SVGID_101_" gradientUnits="userSpaceOnUse" x1="-193.5576" y1="351.5553" x2="-193.5576" y2="188.8499" gradientTransform="matrix(0.7819 0 0 -0.8061 350.3027 316.8197)">
			<stop  offset="0" style="stop-color:#662D91"/>
			<stop  offset="1" style="stop-color:#48DBEF"/>
		</linearGradient>
		<path class="st100" d="M203.8,84h-9.7c-1.4,0-2.6,1.2-2.6,2.7c0,1.5,1.2,2.7,2.6,2.7h9.7c1.4,0,2.6-1.2,2.6-2.7
			C206.4,85.2,205.2,84,203.8,84z M194.1,88.1c-0.8,0-1.4-0.7-1.4-1.5c0-0.8,0.6-1.5,1.4-1.5h9.7c0.8,0,1.4,0.7,1.4,1.5
			c0,0.8-0.6,1.5-1.4,1.5H194.1z"/>
	</g>
	<g>
		
			<linearGradient id="SVGID_102_" gradientUnits="userSpaceOnUse" x1="-193.5576" y1="351.5547" x2="-193.5576" y2="188.8515" gradientTransform="matrix(0.7819 0 0 -0.8061 350.3027 316.8197)">
			<stop  offset="0" style="stop-color:#662D91"/>
			<stop  offset="1" style="stop-color:#48DBEF"/>
		</linearGradient>
		<path class="st101" d="M203.8,76.9h-9.7c-1.4,0-2.6,1.2-2.6,2.7s1.2,2.7,2.6,2.7h9.7c1.4,0,2.6-1.2,2.6-2.7S205.2,76.9,203.8,76.9
			z M194.1,81.1c-0.8,0-1.4-0.7-1.4-1.5c0-0.8,0.6-1.5,1.4-1.5h9.7c0.8,0,1.4,0.7,1.4,1.5c0,0.8-0.6,1.5-1.4,1.5H194.1z"/>
	</g>
	<g>
		
			<linearGradient id="SVGID_103_" gradientUnits="userSpaceOnUse" x1="-193.5576" y1="351.5555" x2="-193.5576" y2="188.85" gradientTransform="matrix(0.7819 0 0 -0.8061 350.3027 316.8197)">
			<stop  offset="0" style="stop-color:#662D91"/>
			<stop  offset="1" style="stop-color:#48DBEF"/>
		</linearGradient>
		<path class="st102" d="M203.8,69.8h-9.7c-1.4,0-2.6,1.2-2.6,2.7c0,1.5,1.2,2.7,2.6,2.7h9.7c1.4,0,2.6-1.2,2.6-2.7
			C206.4,71,205.2,69.8,203.8,69.8z M194.1,74c-0.8,0-1.4-0.7-1.4-1.5c0-0.8,0.6-1.5,1.4-1.5h9.7c0.8,0,1.4,0.7,1.4,1.5
			c0,0.8-0.6,1.5-1.4,1.5H194.1z"/>
	</g>
	<g>
		
			<linearGradient id="SVGID_104_" gradientUnits="userSpaceOnUse" x1="-193.5576" y1="351.5553" x2="-193.5576" y2="188.8499" gradientTransform="matrix(0.7819 0 0 -0.8061 350.3027 316.8197)">
			<stop  offset="0" style="stop-color:#662D91"/>
			<stop  offset="1" style="stop-color:#48DBEF"/>
		</linearGradient>
		<path class="st103" d="M203.8,62.7h-9.7c-1.4,0-2.6,1.2-2.6,2.7c0,1.5,1.2,2.7,2.6,2.7h9.7c1.4,0,2.6-1.2,2.6-2.7
			C206.4,63.9,205.2,62.7,203.8,62.7z M194.1,66.9c-0.8,0-1.4-0.7-1.4-1.5c0-0.8,0.6-1.5,1.4-1.5h9.7c0.8,0,1.4,0.7,1.4,1.5
			c0,0.8-0.6,1.5-1.4,1.5H194.1z"/>
	</g>
	<g>
		
			<linearGradient id="SVGID_105_" gradientUnits="userSpaceOnUse" x1="-193.5576" y1="351.5551" x2="-193.5576" y2="188.8518" gradientTransform="matrix(0.7819 0 0 -0.8061 350.3027 316.8197)">
			<stop  offset="0" style="stop-color:#662D91"/>
			<stop  offset="1" style="stop-color:#48DBEF"/>
		</linearGradient>
		<path class="st104" d="M203.8,55.7h-9.7c-1.4,0-2.6,1.2-2.6,2.7c0,1.5,1.2,2.7,2.6,2.7h9.7c1.4,0,2.6-1.2,2.6-2.7
			C206.4,56.9,205.2,55.7,203.8,55.7z M194.1,59.8c-0.8,0-1.4-0.7-1.4-1.5c0-0.8,0.6-1.5,1.4-1.5h9.7c0.8,0,1.4,0.7,1.4,1.5
			c0,0.8-0.6,1.5-1.4,1.5H194.1z"/>
	</g>
	<g>
		
			<linearGradient id="SVGID_106_" gradientUnits="userSpaceOnUse" x1="-193.5576" y1="351.5555" x2="-193.5576" y2="188.8501" gradientTransform="matrix(0.7819 0 0 -0.8061 350.3027 316.8197)">
			<stop  offset="0" style="stop-color:#662D91"/>
			<stop  offset="1" style="stop-color:#48DBEF"/>
		</linearGradient>
		<path class="st105" d="M203.8,48.6h-9.7c-1.4,0-2.6,1.2-2.6,2.7c0,1.5,1.2,2.7,2.6,2.7h9.7c1.4,0,2.6-1.2,2.6-2.7
			C206.4,49.8,205.2,48.6,203.8,48.6z M194.1,52.7c-0.8,0-1.4-0.7-1.4-1.5c0-0.8,0.6-1.5,1.4-1.5h9.7c0.8,0,1.4,0.7,1.4,1.5
			c0,0.8-0.6,1.5-1.4,1.5H194.1z"/>
	</g>
	<g>
		
			<linearGradient id="SVGID_107_" gradientUnits="userSpaceOnUse" x1="-193.5576" y1="351.5552" x2="-193.5576" y2="188.852" gradientTransform="matrix(0.7819 0 0 -0.8061 350.3027 316.8197)">
			<stop  offset="0" style="stop-color:#662D91"/>
			<stop  offset="1" style="stop-color:#48DBEF"/>
		</linearGradient>
		<path class="st106" d="M203.8,41.5h-9.7c-1.4,0-2.6,1.2-2.6,2.7c0,1.5,1.2,2.7,2.6,2.7h9.7c1.4,0,2.6-1.2,2.6-2.7
			C206.4,42.7,205.2,41.5,203.8,41.5z M194.1,45.6c-0.8,0-1.4-0.7-1.4-1.5c0-0.8,0.6-1.5,1.4-1.5h9.7c0.8,0,1.4,0.7,1.4,1.5
			c0,0.8-0.6,1.5-1.4,1.5H194.1z"/>
	</g>
	<g>
		
			<linearGradient id="SVGID_108_" gradientUnits="userSpaceOnUse" x1="-193.5576" y1="351.5555" x2="-193.5576" y2="188.85" gradientTransform="matrix(0.7819 0 0 -0.8061 350.3027 316.8197)">
			<stop  offset="0" style="stop-color:#662D91"/>
			<stop  offset="1" style="stop-color:#48DBEF"/>
		</linearGradient>
		<path class="st107" d="M203.8,34.4h-9.7c-1.4,0-2.6,1.2-2.6,2.7c0,1.5,1.2,2.7,2.6,2.7h9.7c1.4,0,2.6-1.2,2.6-2.7
			C206.4,35.6,205.2,34.4,203.8,34.4z M194.1,38.5c-0.8,0-1.4-0.7-1.4-1.5c0-0.8,0.6-1.5,1.4-1.5h9.7c0.8,0,1.4,0.7,1.4,1.5
			c0,0.8-0.6,1.5-1.4,1.5H194.1z"/>
	</g>
	<g>
		
			<linearGradient id="SVGID_109_" gradientUnits="userSpaceOnUse" x1="-171.216" y1="351.5575" x2="-171.216" y2="188.8495" gradientTransform="matrix(0.7819 0 0 -0.8061 350.3027 316.8197)">
			<stop  offset="0" style="stop-color:#662D91"/>
			<stop  offset="1" style="stop-color:#48DBEF"/>
		</linearGradient>
		<path class="st108" d="M221.3,126.5h-9.7c-1.4,0-2.6,1.2-2.6,2.7c0,1.5,1.2,2.7,2.6,2.7h9.7c1.4,0,2.6-1.2,2.6-2.7
			C223.9,127.7,222.7,126.5,221.3,126.5z M211.6,130.7c-0.8,0-1.4-0.7-1.4-1.5c0-0.8,0.6-1.5,1.4-1.5h9.7c0.8,0,1.4,0.7,1.4,1.5
			c0,0.8-0.6,1.5-1.4,1.5H211.6z"/>
	</g>
	<g>
		
			<linearGradient id="SVGID_110_" gradientUnits="userSpaceOnUse" x1="-171.216" y1="351.555" x2="-171.216" y2="188.8496" gradientTransform="matrix(0.7819 0 0 -0.8061 350.3027 316.8197)">
			<stop  offset="0" style="stop-color:#662D91"/>
			<stop  offset="1" style="stop-color:#48DBEF"/>
		</linearGradient>
		<path class="st109" d="M221.3,119.4h-9.7c-1.4,0-2.6,1.2-2.6,2.7c0,1.5,1.2,2.7,2.6,2.7h9.7c1.4,0,2.6-1.2,2.6-2.7
			C223.9,120.6,222.7,119.4,221.3,119.4z M211.6,123.6c-0.8,0-1.4-0.7-1.4-1.5c0-0.8,0.6-1.5,1.4-1.5h9.7c0.8,0,1.4,0.7,1.4,1.5
			c0,0.8-0.6,1.5-1.4,1.5H211.6z"/>
	</g>
	<g>
		
			<linearGradient id="SVGID_111_" gradientUnits="userSpaceOnUse" x1="-171.216" y1="351.5539" x2="-171.216" y2="188.8507" gradientTransform="matrix(0.7819 0 0 -0.8061 350.3027 316.8197)">
			<stop  offset="0" style="stop-color:#662D91"/>
			<stop  offset="1" style="stop-color:#48DBEF"/>
		</linearGradient>
		<path class="st110" d="M221.3,112.3h-9.7c-1.4,0-2.6,1.2-2.6,2.7c0,1.5,1.2,2.7,2.6,2.7h9.7c1.4,0,2.6-1.2,2.6-2.7
			C223.9,113.5,222.7,112.3,221.3,112.3z M211.6,116.5c-0.8,0-1.4-0.7-1.4-1.5c0-0.8,0.6-1.5,1.4-1.5h9.7c0.8,0,1.4,0.7,1.4,1.5
			c0,0.8-0.6,1.5-1.4,1.5H211.6z"/>
	</g>
	<g>
		
			<linearGradient id="SVGID_112_" gradientUnits="userSpaceOnUse" x1="-171.216" y1="351.5551" x2="-171.216" y2="188.8497" gradientTransform="matrix(0.7819 0 0 -0.8061 350.3027 316.8197)">
			<stop  offset="0" style="stop-color:#662D91"/>
			<stop  offset="1" style="stop-color:#48DBEF"/>
		</linearGradient>
		<path class="st111" d="M221.3,105.3h-9.7c-1.4,0-2.6,1.2-2.6,2.7c0,1.5,1.2,2.7,2.6,2.7h9.7c1.4,0,2.6-1.2,2.6-2.7
			C223.9,106.5,222.7,105.3,221.3,105.3z M211.6,109.4c-0.8,0-1.4-0.7-1.4-1.5c0-0.8,0.6-1.5,1.4-1.5h9.7c0.8,0,1.4,0.7,1.4,1.5
			c0,0.8-0.6,1.5-1.4,1.5H211.6z"/>
	</g>
	<g>
		
			<linearGradient id="SVGID_113_" gradientUnits="userSpaceOnUse" x1="-171.216" y1="351.5551" x2="-171.216" y2="188.8497" gradientTransform="matrix(0.7819 0 0 -0.8061 350.3027 316.8197)">
			<stop  offset="0" style="stop-color:#662D91"/>
			<stop  offset="1" style="stop-color:#48DBEF"/>
		</linearGradient>
		<path class="st112" d="M221.3,98.2h-9.7c-1.4,0-2.6,1.2-2.6,2.7c0,1.5,1.2,2.7,2.6,2.7h9.7c1.4,0,2.6-1.2,2.6-2.7
			C223.9,99.4,222.7,98.2,221.3,98.2z M211.6,102.3c-0.8,0-1.4-0.7-1.4-1.5c0-0.8,0.6-1.5,1.4-1.5h9.7c0.8,0,1.4,0.7,1.4,1.5
			c0,0.8-0.6,1.5-1.4,1.5H211.6z"/>
	</g>
	<g>
		
			<linearGradient id="SVGID_114_" gradientUnits="userSpaceOnUse" x1="-171.216" y1="351.5542" x2="-171.216" y2="188.851" gradientTransform="matrix(0.7819 0 0 -0.8061 350.3027 316.8197)">
			<stop  offset="0" style="stop-color:#662D91"/>
			<stop  offset="1" style="stop-color:#48DBEF"/>
		</linearGradient>
		<path class="st113" d="M221.3,91.1h-9.7c-1.4,0-2.6,1.2-2.6,2.7c0,1.5,1.2,2.7,2.6,2.7h9.7c1.4,0,2.6-1.2,2.6-2.7
			C223.9,92.3,222.7,91.1,221.3,91.1z M211.6,95.2c-0.8,0-1.4-0.7-1.4-1.5c0-0.8,0.6-1.5,1.4-1.5h9.7c0.8,0,1.4,0.7,1.4,1.5
			c0,0.8-0.6,1.5-1.4,1.5H211.6z"/>
	</g>
	<g>
		
			<linearGradient id="SVGID_115_" gradientUnits="userSpaceOnUse" x1="-171.216" y1="351.5553" x2="-171.216" y2="188.8499" gradientTransform="matrix(0.7819 0 0 -0.8061 350.3027 316.8197)">
			<stop  offset="0" style="stop-color:#662D91"/>
			<stop  offset="1" style="stop-color:#48DBEF"/>
		</linearGradient>
		<path class="st114" d="M221.3,84h-9.7c-1.4,0-2.6,1.2-2.6,2.7c0,1.5,1.2,2.7,2.6,2.7h9.7c1.4,0,2.6-1.2,2.6-2.7
			C223.9,85.2,222.7,84,221.3,84z M211.6,88.1c-0.8,0-1.4-0.7-1.4-1.5c0-0.8,0.6-1.5,1.4-1.5h9.7c0.8,0,1.4,0.7,1.4,1.5
			c0,0.8-0.6,1.5-1.4,1.5H211.6z"/>
	</g>
	<g>
		
			<linearGradient id="SVGID_116_" gradientUnits="userSpaceOnUse" x1="-171.216" y1="351.5547" x2="-171.216" y2="188.8515" gradientTransform="matrix(0.7819 0 0 -0.8061 350.3027 316.8197)">
			<stop  offset="0" style="stop-color:#662D91"/>
			<stop  offset="1" style="stop-color:#48DBEF"/>
		</linearGradient>
		<path class="st115" d="M221.3,76.9h-9.7c-1.4,0-2.6,1.2-2.6,2.7s1.2,2.7,2.6,2.7h9.7c1.4,0,2.6-1.2,2.6-2.7S222.7,76.9,221.3,76.9
			z M211.6,81.1c-0.8,0-1.4-0.7-1.4-1.5c0-0.8,0.6-1.5,1.4-1.5h9.7c0.8,0,1.4,0.7,1.4,1.5c0,0.8-0.6,1.5-1.4,1.5H211.6z"/>
	</g>
	<g>
		
			<linearGradient id="SVGID_117_" gradientUnits="userSpaceOnUse" x1="-171.216" y1="351.5555" x2="-171.216" y2="188.85" gradientTransform="matrix(0.7819 0 0 -0.8061 350.3027 316.8197)">
			<stop  offset="0" style="stop-color:#662D91"/>
			<stop  offset="1" style="stop-color:#48DBEF"/>
		</linearGradient>
		<path class="st116" d="M221.3,69.8h-9.7c-1.4,0-2.6,1.2-2.6,2.7c0,1.5,1.2,2.7,2.6,2.7h9.7c1.4,0,2.6-1.2,2.6-2.7
			C223.9,71,222.7,69.8,221.3,69.8z M211.6,74c-0.8,0-1.4-0.7-1.4-1.5c0-0.8,0.6-1.5,1.4-1.5h9.7c0.8,0,1.4,0.7,1.4,1.5
			c0,0.8-0.6,1.5-1.4,1.5H211.6z"/>
	</g>
	<g>
		
			<linearGradient id="SVGID_118_" gradientUnits="userSpaceOnUse" x1="-171.216" y1="351.5553" x2="-171.216" y2="188.8499" gradientTransform="matrix(0.7819 0 0 -0.8061 350.3027 316.8197)">
			<stop  offset="0" style="stop-color:#662D91"/>
			<stop  offset="1" style="stop-color:#48DBEF"/>
		</linearGradient>
		<path class="st117" d="M221.3,62.7h-9.7c-1.4,0-2.6,1.2-2.6,2.7c0,1.5,1.2,2.7,2.6,2.7h9.7c1.4,0,2.6-1.2,2.6-2.7
			C223.9,63.9,222.7,62.7,221.3,62.7z M211.6,66.9c-0.8,0-1.4-0.7-1.4-1.5c0-0.8,0.6-1.5,1.4-1.5h9.7c0.8,0,1.4,0.7,1.4,1.5
			c0,0.8-0.6,1.5-1.4,1.5H211.6z"/>
	</g>
	<g>
		
			<linearGradient id="SVGID_119_" gradientUnits="userSpaceOnUse" x1="-171.216" y1="351.5551" x2="-171.216" y2="188.8518" gradientTransform="matrix(0.7819 0 0 -0.8061 350.3027 316.8197)">
			<stop  offset="0" style="stop-color:#662D91"/>
			<stop  offset="1" style="stop-color:#48DBEF"/>
		</linearGradient>
		<path class="st118" d="M221.3,55.7h-9.7c-1.4,0-2.6,1.2-2.6,2.7c0,1.5,1.2,2.7,2.6,2.7h9.7c1.4,0,2.6-1.2,2.6-2.7
			C223.9,56.9,222.7,55.7,221.3,55.7z M211.6,59.8c-0.8,0-1.4-0.7-1.4-1.5c0-0.8,0.6-1.5,1.4-1.5h9.7c0.8,0,1.4,0.7,1.4,1.5
			c0,0.8-0.6,1.5-1.4,1.5H211.6z"/>
	</g>
	<g>
		
			<linearGradient id="SVGID_120_" gradientUnits="userSpaceOnUse" x1="-171.216" y1="351.5555" x2="-171.216" y2="188.8501" gradientTransform="matrix(0.7819 0 0 -0.8061 350.3027 316.8197)">
			<stop  offset="0" style="stop-color:#662D91"/>
			<stop  offset="1" style="stop-color:#48DBEF"/>
		</linearGradient>
		<path class="st119" d="M221.3,48.6h-9.7c-1.4,0-2.6,1.2-2.6,2.7c0,1.5,1.2,2.7,2.6,2.7h9.7c1.4,0,2.6-1.2,2.6-2.7
			C223.9,49.8,222.7,48.6,221.3,48.6z M211.6,52.7c-0.8,0-1.4-0.7-1.4-1.5c0-0.8,0.6-1.5,1.4-1.5h9.7c0.8,0,1.4,0.7,1.4,1.5
			c0,0.8-0.6,1.5-1.4,1.5H211.6z"/>
	</g>
	<g>
		
			<linearGradient id="SVGID_121_" gradientUnits="userSpaceOnUse" x1="-171.216" y1="351.5552" x2="-171.216" y2="188.852" gradientTransform="matrix(0.7819 0 0 -0.8061 350.3027 316.8197)">
			<stop  offset="0" style="stop-color:#662D91"/>
			<stop  offset="1" style="stop-color:#48DBEF"/>
		</linearGradient>
		<path class="st120" d="M221.3,41.5h-9.7c-1.4,0-2.6,1.2-2.6,2.7c0,1.5,1.2,2.7,2.6,2.7h9.7c1.4,0,2.6-1.2,2.6-2.7
			C223.9,42.7,222.7,41.5,221.3,41.5z M211.6,45.6c-0.8,0-1.4-0.7-1.4-1.5c0-0.8,0.6-1.5,1.4-1.5h9.7c0.8,0,1.4,0.7,1.4,1.5
			c0,0.8-0.6,1.5-1.4,1.5H211.6z"/>
	</g>
	<g>
		
			<linearGradient id="SVGID_122_" gradientUnits="userSpaceOnUse" x1="-171.216" y1="351.5555" x2="-171.216" y2="188.85" gradientTransform="matrix(0.7819 0 0 -0.8061 350.3027 316.8197)">
			<stop  offset="0" style="stop-color:#662D91"/>
			<stop  offset="1" style="stop-color:#48DBEF"/>
		</linearGradient>
		<path class="st121" d="M221.3,34.4h-9.7c-1.4,0-2.6,1.2-2.6,2.7c0,1.5,1.2,2.7,2.6,2.7h9.7c1.4,0,2.6-1.2,2.6-2.7
			C223.9,35.6,222.7,34.4,221.3,34.4z M211.6,38.5c-0.8,0-1.4-0.7-1.4-1.5c0-0.8,0.6-1.5,1.4-1.5h9.7c0.8,0,1.4,0.7,1.4,1.5
			c0,0.8-0.6,1.5-1.4,1.5H211.6z"/>
	</g>
	<g>
		
			<linearGradient id="SVGID_123_" gradientUnits="userSpaceOnUse" x1="-148.8742" y1="351.5547" x2="-148.8742" y2="188.8515" gradientTransform="matrix(0.7819 0 0 -0.8061 350.3027 316.8197)">
			<stop  offset="0" style="stop-color:#662D91"/>
			<stop  offset="1" style="stop-color:#48DBEF"/>
		</linearGradient>
		<path class="st122" d="M238.8,76.9H229c-1.4,0-2.6,1.2-2.6,2.7s1.2,2.7,2.6,2.7h9.7c1.4,0,2.6-1.2,2.6-2.7S240.2,76.9,238.8,76.9z
			 M229,81.1c-0.8,0-1.4-0.7-1.4-1.5c0-0.8,0.6-1.5,1.4-1.5h9.7c0.8,0,1.4,0.7,1.4,1.5c0,0.8-0.6,1.5-1.4,1.5H229z"/>
	</g>
	<g>
		
			<linearGradient id="SVGID_124_" gradientUnits="userSpaceOnUse" x1="-148.8742" y1="351.5551" x2="-148.8742" y2="188.8518" gradientTransform="matrix(0.7819 0 0 -0.8061 350.3027 316.8197)">
			<stop  offset="0" style="stop-color:#662D91"/>
			<stop  offset="1" style="stop-color:#48DBEF"/>
		</linearGradient>
		<path class="st123" d="M238.8,55.7H229c-1.4,0-2.6,1.2-2.6,2.7c0,1.5,1.2,2.7,2.6,2.7h9.7c1.4,0,2.6-1.2,2.6-2.7
			C241.3,56.9,240.2,55.7,238.8,55.7z M229,59.8c-0.8,0-1.4-0.7-1.4-1.5c0-0.8,0.6-1.5,1.4-1.5h9.7c0.8,0,1.4,0.7,1.4,1.5
			c0,0.8-0.6,1.5-1.4,1.5H229z"/>
	</g>
	<g>
		
			<linearGradient id="SVGID_125_" gradientUnits="userSpaceOnUse" x1="-148.8742" y1="351.5555" x2="-148.8742" y2="188.8501" gradientTransform="matrix(0.7819 0 0 -0.8061 350.3027 316.8197)">
			<stop  offset="0" style="stop-color:#662D91"/>
			<stop  offset="1" style="stop-color:#48DBEF"/>
		</linearGradient>
		<path class="st124" d="M238.8,48.6H229c-1.4,0-2.6,1.2-2.6,2.7c0,1.5,1.2,2.7,2.6,2.7h9.7c1.4,0,2.6-1.2,2.6-2.7
			C241.3,49.8,240.2,48.6,238.8,48.6z M229,52.7c-0.8,0-1.4-0.7-1.4-1.5c0-0.8,0.6-1.5,1.4-1.5h9.7c0.8,0,1.4,0.7,1.4,1.5
			c0,0.8-0.6,1.5-1.4,1.5H229z"/>
	</g>
	<g>
		
			<linearGradient id="SVGID_126_" gradientUnits="userSpaceOnUse" x1="-148.8742" y1="351.5552" x2="-148.8742" y2="188.852" gradientTransform="matrix(0.7819 0 0 -0.8061 350.3027 316.8197)">
			<stop  offset="0" style="stop-color:#662D91"/>
			<stop  offset="1" style="stop-color:#48DBEF"/>
		</linearGradient>
		<path class="st125" d="M238.8,41.5H229c-1.4,0-2.6,1.2-2.6,2.7c0,1.5,1.2,2.7,2.6,2.7h9.7c1.4,0,2.6-1.2,2.6-2.7
			C241.3,42.7,240.2,41.5,238.8,41.5z M229,45.6c-0.8,0-1.4-0.7-1.4-1.5c0-0.8,0.6-1.5,1.4-1.5h9.7c0.8,0,1.4,0.7,1.4,1.5
			c0,0.8-0.6,1.5-1.4,1.5H229z"/>
	</g>
	<g>
		
			<linearGradient id="SVGID_127_" gradientUnits="userSpaceOnUse" x1="-148.8742" y1="351.5555" x2="-148.8742" y2="188.85" gradientTransform="matrix(0.7819 0 0 -0.8061 350.3027 316.8197)">
			<stop  offset="0" style="stop-color:#662D91"/>
			<stop  offset="1" style="stop-color:#48DBEF"/>
		</linearGradient>
		<path class="st126" d="M238.8,34.4H229c-1.4,0-2.6,1.2-2.6,2.7c0,1.5,1.2,2.7,2.6,2.7h9.7c1.4,0,2.6-1.2,2.6-2.7
			C241.3,35.6,240.2,34.4,238.8,34.4z M229,38.5c-0.8,0-1.4-0.7-1.4-1.5c0-0.8,0.6-1.5,1.4-1.5h9.7c0.8,0,1.4,0.7,1.4,1.5
			c0,0.8-0.6,1.5-1.4,1.5H229z"/>
	</g>
	<g>
		
			<linearGradient id="SVGID_128_" gradientUnits="userSpaceOnUse" x1="-126.5322" y1="351.5551" x2="-126.5322" y2="188.8497" gradientTransform="matrix(0.7819 0 0 -0.8061 350.3027 316.8197)">
			<stop  offset="0" style="stop-color:#662D91"/>
			<stop  offset="1" style="stop-color:#48DBEF"/>
		</linearGradient>
		<path class="st127" d="M256.2,98.2h-9.7c-1.4,0-2.6,1.2-2.6,2.7c0,1.5,1.2,2.7,2.6,2.7h9.7c1.4,0,2.6-1.2,2.6-2.7
			C258.8,99.4,257.7,98.2,256.2,98.2z M246.5,102.3c-0.8,0-1.4-0.7-1.4-1.5c0-0.8,0.6-1.5,1.4-1.5h9.7c0.8,0,1.4,0.7,1.4,1.5
			c0,0.8-0.6,1.5-1.4,1.5H246.5z"/>
	</g>
	<g>
		
			<linearGradient id="SVGID_129_" gradientUnits="userSpaceOnUse" x1="-126.5322" y1="351.5553" x2="-126.5322" y2="188.8499" gradientTransform="matrix(0.7819 0 0 -0.8061 350.3027 316.8197)">
			<stop  offset="0" style="stop-color:#662D91"/>
			<stop  offset="1" style="stop-color:#48DBEF"/>
		</linearGradient>
		<path class="st128" d="M256.2,84h-9.7c-1.4,0-2.6,1.2-2.6,2.7c0,1.5,1.2,2.7,2.6,2.7h9.7c1.4,0,2.6-1.2,2.6-2.7
			C258.8,85.2,257.7,84,256.2,84z M246.5,88.1c-0.8,0-1.4-0.7-1.4-1.5c0-0.8,0.6-1.5,1.4-1.5h9.7c0.8,0,1.4,0.7,1.4,1.5
			c0,0.8-0.6,1.5-1.4,1.5H246.5z"/>
	</g>
	<g>
		
			<linearGradient id="SVGID_130_" gradientUnits="userSpaceOnUse" x1="-126.5322" y1="351.5547" x2="-126.5322" y2="188.8515" gradientTransform="matrix(0.7819 0 0 -0.8061 350.3027 316.8197)">
			<stop  offset="0" style="stop-color:#662D91"/>
			<stop  offset="1" style="stop-color:#48DBEF"/>
		</linearGradient>
		<path class="st129" d="M256.2,76.9h-9.7c-1.4,0-2.6,1.2-2.6,2.7s1.2,2.7,2.6,2.7h9.7c1.4,0,2.6-1.2,2.6-2.7S257.7,76.9,256.2,76.9
			z M246.5,81.1c-0.8,0-1.4-0.7-1.4-1.5c0-0.8,0.6-1.5,1.4-1.5h9.7c0.8,0,1.4,0.7,1.4,1.5c0,0.8-0.6,1.5-1.4,1.5H246.5z"/>
	</g>
	<g>
		
			<linearGradient id="SVGID_131_" gradientUnits="userSpaceOnUse" x1="-126.5322" y1="351.5555" x2="-126.5322" y2="188.85" gradientTransform="matrix(0.7819 0 0 -0.8061 350.3027 316.8197)">
			<stop  offset="0" style="stop-color:#662D91"/>
			<stop  offset="1" style="stop-color:#48DBEF"/>
		</linearGradient>
		<path class="st130" d="M256.2,69.8h-9.7c-1.4,0-2.6,1.2-2.6,2.7c0,1.5,1.2,2.7,2.6,2.7h9.7c1.4,0,2.6-1.2,2.6-2.7
			C258.8,71,257.7,69.8,256.2,69.8z M246.5,74c-0.8,0-1.4-0.7-1.4-1.5c0-0.8,0.6-1.5,1.4-1.5h9.7c0.8,0,1.4,0.7,1.4,1.5
			c0,0.8-0.6,1.5-1.4,1.5H246.5z"/>
	</g>
	<g>
		
			<linearGradient id="SVGID_132_" gradientUnits="userSpaceOnUse" x1="-126.5322" y1="351.5553" x2="-126.5322" y2="188.8499" gradientTransform="matrix(0.7819 0 0 -0.8061 350.3027 316.8197)">
			<stop  offset="0" style="stop-color:#662D91"/>
			<stop  offset="1" style="stop-color:#48DBEF"/>
		</linearGradient>
		<path class="st131" d="M256.2,62.7h-9.7c-1.4,0-2.6,1.2-2.6,2.7c0,1.5,1.2,2.7,2.6,2.7h9.7c1.4,0,2.6-1.2,2.6-2.7
			C258.8,63.9,257.7,62.7,256.2,62.7z M246.5,66.9c-0.8,0-1.4-0.7-1.4-1.5c0-0.8,0.6-1.5,1.4-1.5h9.7c0.8,0,1.4,0.7,1.4,1.5
			c0,0.8-0.6,1.5-1.4,1.5H246.5z"/>
	</g>
	<g>
		
			<linearGradient id="SVGID_133_" gradientUnits="userSpaceOnUse" x1="-126.5322" y1="351.5551" x2="-126.5322" y2="188.8518" gradientTransform="matrix(0.7819 0 0 -0.8061 350.3027 316.8197)">
			<stop  offset="0" style="stop-color:#662D91"/>
			<stop  offset="1" style="stop-color:#48DBEF"/>
		</linearGradient>
		<path class="st132" d="M256.2,55.7h-9.7c-1.4,0-2.6,1.2-2.6,2.7c0,1.5,1.2,2.7,2.6,2.7h9.7c1.4,0,2.6-1.2,2.6-2.7
			C258.8,56.9,257.7,55.7,256.2,55.7z M246.5,59.8c-0.8,0-1.4-0.7-1.4-1.5c0-0.8,0.6-1.5,1.4-1.5h9.7c0.8,0,1.4,0.7,1.4,1.5
			c0,0.8-0.6,1.5-1.4,1.5H246.5z"/>
	</g>
	<g>
		
			<linearGradient id="SVGID_134_" gradientUnits="userSpaceOnUse" x1="-126.5322" y1="351.5555" x2="-126.5322" y2="188.8501" gradientTransform="matrix(0.7819 0 0 -0.8061 350.3027 316.8197)">
			<stop  offset="0" style="stop-color:#662D91"/>
			<stop  offset="1" style="stop-color:#48DBEF"/>
		</linearGradient>
		<path class="st133" d="M256.2,48.6h-9.7c-1.4,0-2.6,1.2-2.6,2.7c0,1.5,1.2,2.7,2.6,2.7h9.7c1.4,0,2.6-1.2,2.6-2.7
			C258.8,49.8,257.7,48.6,256.2,48.6z M246.5,52.7c-0.8,0-1.4-0.7-1.4-1.5c0-0.8,0.6-1.5,1.4-1.5h9.7c0.8,0,1.4,0.7,1.4,1.5
			c0,0.8-0.6,1.5-1.4,1.5H246.5z"/>
	</g>
	<g>
		
			<linearGradient id="SVGID_135_" gradientUnits="userSpaceOnUse" x1="-126.5322" y1="351.5552" x2="-126.5322" y2="188.852" gradientTransform="matrix(0.7819 0 0 -0.8061 350.3027 316.8197)">
			<stop  offset="0" style="stop-color:#662D91"/>
			<stop  offset="1" style="stop-color:#48DBEF"/>
		</linearGradient>
		<path class="st134" d="M256.2,41.5h-9.7c-1.4,0-2.6,1.2-2.6,2.7c0,1.5,1.2,2.7,2.6,2.7h9.7c1.4,0,2.6-1.2,2.6-2.7
			C258.8,42.7,257.7,41.5,256.2,41.5z M246.5,45.6c-0.8,0-1.4-0.7-1.4-1.5c0-0.8,0.6-1.5,1.4-1.5h9.7c0.8,0,1.4,0.7,1.4,1.5
			c0,0.8-0.6,1.5-1.4,1.5H246.5z"/>
	</g>
	<g>
		
			<linearGradient id="SVGID_136_" gradientUnits="userSpaceOnUse" x1="-126.5322" y1="351.5555" x2="-126.5322" y2="188.85" gradientTransform="matrix(0.7819 0 0 -0.8061 350.3027 316.8197)">
			<stop  offset="0" style="stop-color:#662D91"/>
			<stop  offset="1" style="stop-color:#48DBEF"/>
		</linearGradient>
		<path class="st135" d="M256.2,34.4h-9.7c-1.4,0-2.6,1.2-2.6,2.7c0,1.5,1.2,2.7,2.6,2.7h9.7c1.4,0,2.6-1.2,2.6-2.7
			C258.8,35.6,257.7,34.4,256.2,34.4z M246.5,38.5c-0.8,0-1.4-0.7-1.4-1.5c0-0.8,0.6-1.5,1.4-1.5h9.7c0.8,0,1.4,0.7,1.4,1.5
			c0,0.8-0.6,1.5-1.4,1.5H246.5z"/>
	</g>
	<g>
		
			<linearGradient id="SVGID_137_" gradientUnits="userSpaceOnUse" x1="-104.1906" y1="351.5575" x2="-104.1906" y2="188.8495" gradientTransform="matrix(0.7819 0 0 -0.8061 350.3027 316.8197)">
			<stop  offset="0" style="stop-color:#662D91"/>
			<stop  offset="1" style="stop-color:#48DBEF"/>
		</linearGradient>
		<path class="st136" d="M273.7,126.5H264c-1.4,0-2.6,1.2-2.6,2.7c0,1.5,1.2,2.7,2.6,2.7h9.7c1.4,0,2.6-1.2,2.6-2.7
			C276.3,127.7,275.1,126.5,273.7,126.5z M264,130.7c-0.8,0-1.4-0.7-1.4-1.5c0-0.8,0.6-1.5,1.4-1.5h9.7c0.8,0,1.4,0.7,1.4,1.5
			c0,0.8-0.6,1.5-1.4,1.5H264z"/>
	</g>
	<g>
		
			<linearGradient id="SVGID_138_" gradientUnits="userSpaceOnUse" x1="-104.1906" y1="351.555" x2="-104.1906" y2="188.8496" gradientTransform="matrix(0.7819 0 0 -0.8061 350.3027 316.8197)">
			<stop  offset="0" style="stop-color:#662D91"/>
			<stop  offset="1" style="stop-color:#48DBEF"/>
		</linearGradient>
		<path class="st137" d="M273.7,119.4H264c-1.4,0-2.6,1.2-2.6,2.7c0,1.5,1.2,2.7,2.6,2.7h9.7c1.4,0,2.6-1.2,2.6-2.7
			C276.3,120.6,275.1,119.4,273.7,119.4z M264,123.6c-0.8,0-1.4-0.7-1.4-1.5c0-0.8,0.6-1.5,1.4-1.5h9.7c0.8,0,1.4,0.7,1.4,1.5
			c0,0.8-0.6,1.5-1.4,1.5H264z"/>
	</g>
	<g>
		
			<linearGradient id="SVGID_139_" gradientUnits="userSpaceOnUse" x1="-104.1906" y1="351.5551" x2="-104.1906" y2="188.8497" gradientTransform="matrix(0.7819 0 0 -0.8061 350.3027 316.8197)">
			<stop  offset="0" style="stop-color:#662D91"/>
			<stop  offset="1" style="stop-color:#48DBEF"/>
		</linearGradient>
		<path class="st138" d="M273.7,98.2H264c-1.4,0-2.6,1.2-2.6,2.7c0,1.5,1.2,2.7,2.6,2.7h9.7c1.4,0,2.6-1.2,2.6-2.7
			C276.3,99.4,275.1,98.2,273.7,98.2z M264,102.3c-0.8,0-1.4-0.7-1.4-1.5c0-0.8,0.6-1.5,1.4-1.5h9.7c0.8,0,1.4,0.7,1.4,1.5
			c0,0.8-0.6,1.5-1.4,1.5H264z"/>
	</g>
	<g>
		
			<linearGradient id="SVGID_140_" gradientUnits="userSpaceOnUse" x1="-104.1906" y1="351.5542" x2="-104.1906" y2="188.851" gradientTransform="matrix(0.7819 0 0 -0.8061 350.3027 316.8197)">
			<stop  offset="0" style="stop-color:#662D91"/>
			<stop  offset="1" style="stop-color:#48DBEF"/>
		</linearGradient>
		<path class="st139" d="M273.7,91.1H264c-1.4,0-2.6,1.2-2.6,2.7c0,1.5,1.2,2.7,2.6,2.7h9.7c1.4,0,2.6-1.2,2.6-2.7
			C276.3,92.3,275.1,91.1,273.7,91.1z M264,95.2c-0.8,0-1.4-0.7-1.4-1.5c0-0.8,0.6-1.5,1.4-1.5h9.7c0.8,0,1.4,0.7,1.4,1.5
			c0,0.8-0.6,1.5-1.4,1.5H264z"/>
	</g>
	<g>
		
			<linearGradient id="SVGID_141_" gradientUnits="userSpaceOnUse" x1="-104.1906" y1="351.5553" x2="-104.1906" y2="188.8499" gradientTransform="matrix(0.7819 0 0 -0.8061 350.3027 316.8197)">
			<stop  offset="0" style="stop-color:#662D91"/>
			<stop  offset="1" style="stop-color:#48DBEF"/>
		</linearGradient>
		<path class="st140" d="M273.7,84H264c-1.4,0-2.6,1.2-2.6,2.7c0,1.5,1.2,2.7,2.6,2.7h9.7c1.4,0,2.6-1.2,2.6-2.7
			C276.3,85.2,275.1,84,273.7,84z M264,88.1c-0.8,0-1.4-0.7-1.4-1.5c0-0.8,0.6-1.5,1.4-1.5h9.7c0.8,0,1.4,0.7,1.4,1.5
			c0,0.8-0.6,1.5-1.4,1.5H264z"/>
	</g>
	<g>
		
			<linearGradient id="SVGID_142_" gradientUnits="userSpaceOnUse" x1="-104.1906" y1="351.5547" x2="-104.1906" y2="188.8515" gradientTransform="matrix(0.7819 0 0 -0.8061 350.3027 316.8197)">
			<stop  offset="0" style="stop-color:#662D91"/>
			<stop  offset="1" style="stop-color:#48DBEF"/>
		</linearGradient>
		<path class="st141" d="M273.7,76.9H264c-1.4,0-2.6,1.2-2.6,2.7s1.2,2.7,2.6,2.7h9.7c1.4,0,2.6-1.2,2.6-2.7S275.1,76.9,273.7,76.9z
			 M264,81.1c-0.8,0-1.4-0.7-1.4-1.5c0-0.8,0.6-1.5,1.4-1.5h9.7c0.8,0,1.4,0.7,1.4,1.5c0,0.8-0.6,1.5-1.4,1.5H264z"/>
	</g>
	<g>
		
			<linearGradient id="SVGID_143_" gradientUnits="userSpaceOnUse" x1="-104.1906" y1="351.5555" x2="-104.1906" y2="188.85" gradientTransform="matrix(0.7819 0 0 -0.8061 350.3027 316.8197)">
			<stop  offset="0" style="stop-color:#662D91"/>
			<stop  offset="1" style="stop-color:#48DBEF"/>
		</linearGradient>
		<path class="st142" d="M273.7,69.8H264c-1.4,0-2.6,1.2-2.6,2.7c0,1.5,1.2,2.7,2.6,2.7h9.7c1.4,0,2.6-1.2,2.6-2.7
			C276.3,71,275.1,69.8,273.7,69.8z M264,74c-0.8,0-1.4-0.7-1.4-1.5c0-0.8,0.6-1.5,1.4-1.5h9.7c0.8,0,1.4,0.7,1.4,1.5
			c0,0.8-0.6,1.5-1.4,1.5H264z"/>
	</g>
	<g>
		
			<linearGradient id="SVGID_144_" gradientUnits="userSpaceOnUse" x1="-104.1906" y1="351.5553" x2="-104.1906" y2="188.8499" gradientTransform="matrix(0.7819 0 0 -0.8061 350.3027 316.8197)">
			<stop  offset="0" style="stop-color:#662D91"/>
			<stop  offset="1" style="stop-color:#48DBEF"/>
		</linearGradient>
		<path class="st143" d="M273.7,62.7H264c-1.4,0-2.6,1.2-2.6,2.7c0,1.5,1.2,2.7,2.6,2.7h9.7c1.4,0,2.6-1.2,2.6-2.7
			C276.3,63.9,275.1,62.7,273.7,62.7z M264,66.9c-0.8,0-1.4-0.7-1.4-1.5c0-0.8,0.6-1.5,1.4-1.5h9.7c0.8,0,1.4,0.7,1.4,1.5
			c0,0.8-0.6,1.5-1.4,1.5H264z"/>
	</g>
	<g>
		
			<linearGradient id="SVGID_145_" gradientUnits="userSpaceOnUse" x1="-104.1906" y1="351.5551" x2="-104.1906" y2="188.8518" gradientTransform="matrix(0.7819 0 0 -0.8061 350.3027 316.8197)">
			<stop  offset="0" style="stop-color:#662D91"/>
			<stop  offset="1" style="stop-color:#48DBEF"/>
		</linearGradient>
		<path class="st144" d="M273.7,55.7H264c-1.4,0-2.6,1.2-2.6,2.7c0,1.5,1.2,2.7,2.6,2.7h9.7c1.4,0,2.6-1.2,2.6-2.7
			C276.3,56.9,275.1,55.7,273.7,55.7z M264,59.8c-0.8,0-1.4-0.7-1.4-1.5c0-0.8,0.6-1.5,1.4-1.5h9.7c0.8,0,1.4,0.7,1.4,1.5
			c0,0.8-0.6,1.5-1.4,1.5H264z"/>
	</g>
	<g>
		
			<linearGradient id="SVGID_146_" gradientUnits="userSpaceOnUse" x1="-104.1906" y1="351.5555" x2="-104.1906" y2="188.8501" gradientTransform="matrix(0.7819 0 0 -0.8061 350.3027 316.8197)">
			<stop  offset="0" style="stop-color:#662D91"/>
			<stop  offset="1" style="stop-color:#48DBEF"/>
		</linearGradient>
		<path class="st145" d="M273.7,48.6H264c-1.4,0-2.6,1.2-2.6,2.7c0,1.5,1.2,2.7,2.6,2.7h9.7c1.4,0,2.6-1.2,2.6-2.7
			C276.3,49.8,275.1,48.6,273.7,48.6z M264,52.7c-0.8,0-1.4-0.7-1.4-1.5c0-0.8,0.6-1.5,1.4-1.5h9.7c0.8,0,1.4,0.7,1.4,1.5
			c0,0.8-0.6,1.5-1.4,1.5H264z"/>
	</g>
	<g>
		
			<linearGradient id="SVGID_147_" gradientUnits="userSpaceOnUse" x1="-104.1906" y1="351.5552" x2="-104.1906" y2="188.852" gradientTransform="matrix(0.7819 0 0 -0.8061 350.3027 316.8197)">
			<stop  offset="0" style="stop-color:#662D91"/>
			<stop  offset="1" style="stop-color:#48DBEF"/>
		</linearGradient>
		<path class="st146" d="M273.7,41.5H264c-1.4,0-2.6,1.2-2.6,2.7c0,1.5,1.2,2.7,2.6,2.7h9.7c1.4,0,2.6-1.2,2.6-2.7
			C276.3,42.7,275.1,41.5,273.7,41.5z M264,45.6c-0.8,0-1.4-0.7-1.4-1.5c0-0.8,0.6-1.5,1.4-1.5h9.7c0.8,0,1.4,0.7,1.4,1.5
			c0,0.8-0.6,1.5-1.4,1.5H264z"/>
	</g>
	<g>
		
			<linearGradient id="SVGID_148_" gradientUnits="userSpaceOnUse" x1="-104.1906" y1="351.5555" x2="-104.1906" y2="188.85" gradientTransform="matrix(0.7819 0 0 -0.8061 350.3027 316.8197)">
			<stop  offset="0" style="stop-color:#662D91"/>
			<stop  offset="1" style="stop-color:#48DBEF"/>
		</linearGradient>
		<path class="st147" d="M273.7,34.4H264c-1.4,0-2.6,1.2-2.6,2.7c0,1.5,1.2,2.7,2.6,2.7h9.7c1.4,0,2.6-1.2,2.6-2.7
			C276.3,35.6,275.1,34.4,273.7,34.4z M264,38.5c-0.8,0-1.4-0.7-1.4-1.5c0-0.8,0.6-1.5,1.4-1.5h9.7c0.8,0,1.4,0.7,1.4,1.5
			c0,0.8-0.6,1.5-1.4,1.5H264z"/>
	</g>
	<g>
		
			<linearGradient id="SVGID_149_" gradientUnits="userSpaceOnUse" x1="-81.8488" y1="351.5551" x2="-81.8488" y2="188.8518" gradientTransform="matrix(0.7819 0 0 -0.8061 350.3027 316.8197)">
			<stop  offset="0" style="stop-color:#662D91"/>
			<stop  offset="1" style="stop-color:#48DBEF"/>
		</linearGradient>
		<path class="st148" d="M291.2,55.7h-9.7c-1.4,0-2.6,1.2-2.6,2.7c0,1.5,1.2,2.7,2.6,2.7h9.7c1.4,0,2.6-1.2,2.6-2.7
			C293.8,56.9,292.6,55.7,291.2,55.7z M281.4,59.8c-0.8,0-1.4-0.7-1.4-1.5c0-0.8,0.6-1.5,1.4-1.5h9.7c0.8,0,1.4,0.7,1.4,1.5
			c0,0.8-0.6,1.5-1.4,1.5H281.4z"/>
	</g>
	<g>
		
			<linearGradient id="SVGID_150_" gradientUnits="userSpaceOnUse" x1="-81.8488" y1="351.5552" x2="-81.8488" y2="188.852" gradientTransform="matrix(0.7819 0 0 -0.8061 350.3027 316.8197)">
			<stop  offset="0" style="stop-color:#662D91"/>
			<stop  offset="1" style="stop-color:#48DBEF"/>
		</linearGradient>
		<path class="st149" d="M291.2,41.5h-9.7c-1.4,0-2.6,1.2-2.6,2.7c0,1.5,1.2,2.7,2.6,2.7h9.7c1.4,0,2.6-1.2,2.6-2.7
			C293.8,42.7,292.6,41.5,291.2,41.5z M281.4,45.6c-0.8,0-1.4-0.7-1.4-1.5c0-0.8,0.6-1.5,1.4-1.5h9.7c0.8,0,1.4,0.7,1.4,1.5
			c0,0.8-0.6,1.5-1.4,1.5H281.4z"/>
	</g>
	<g>
		
			<linearGradient id="SVGID_151_" gradientUnits="userSpaceOnUse" x1="-81.8488" y1="351.5555" x2="-81.8488" y2="188.85" gradientTransform="matrix(0.7819 0 0 -0.8061 350.3027 316.8197)">
			<stop  offset="0" style="stop-color:#662D91"/>
			<stop  offset="1" style="stop-color:#48DBEF"/>
		</linearGradient>
		<path class="st150" d="M291.2,34.4h-9.7c-1.4,0-2.6,1.2-2.6,2.7c0,1.5,1.2,2.7,2.6,2.7h9.7c1.4,0,2.6-1.2,2.6-2.7
			C293.8,35.6,292.6,34.4,291.2,34.4z M281.4,38.5c-0.8,0-1.4-0.7-1.4-1.5c0-0.8,0.6-1.5,1.4-1.5h9.7c0.8,0,1.4,0.7,1.4,1.5
			c0,0.8-0.6,1.5-1.4,1.5H281.4z"/>
	</g>
</g>
</svg>
