<?xml version="1.0" encoding="utf-8"?>
<!-- Generator: Adobe Illustrator 22.0.1, SVG Export Plug-In . SVG Version: 6.00 Build 0)  -->
<svg version="1.1" id="Layer_1" xmlns="http://www.w3.org/2000/svg" xmlns:xlink="http://www.w3.org/1999/xlink" x="0px" y="0px"
	 viewBox="0 0 280 120" style="enable-background:new 0 0 280 120;" xml:space="preserve">
<style type="text/css">
	.st0{filter:url(#Adobe_OpacityMaskFilter);}
	.st1{filter:url(#Adobe_OpacityMaskFilter_1_);}
	.st2{mask:url(#SVGID_1_);fill:url(#SVGID_2_);}
	.st3{fill:url(#SVGID_3_);}
	.st4{filter:url(#Adobe_OpacityMaskFilter_2_);}
	.st5{filter:url(#Adobe_OpacityMaskFilter_3_);}
	.st6{mask:url(#SVGID_4_);fill:url(#SVGID_5_);}
	.st7{fill:url(#SVGID_6_);}
	.st8{filter:url(#Adobe_OpacityMaskFilter_4_);}
	.st9{filter:url(#Adobe_OpacityMaskFilter_5_);}
	.st10{mask:url(#SVGID_7_);fill:url(#SVGID_8_);}
	.st11{fill:url(#SVGID_9_);}
	.st12{filter:url(#Adobe_OpacityMaskFilter_6_);}
	.st13{filter:url(#Adobe_OpacityMaskFilter_7_);}
	.st14{mask:url(#SVGID_10_);fill:url(#SVGID_11_);}
	.st15{fill:url(#SVGID_12_);}
	.st16{filter:url(#Adobe_OpacityMaskFilter_8_);}
	.st17{filter:url(#Adobe_OpacityMaskFilter_9_);}
	.st18{mask:url(#SVGID_13_);fill:url(#SVGID_14_);}
	.st19{fill:url(#SVGID_15_);}
</style>
<g>
	<defs>
		<filter id="Adobe_OpacityMaskFilter" filterUnits="userSpaceOnUse" x="30.6" y="3.1" width="206.2" height="113.8">
			<feFlood  style="flood-color:white;flood-opacity:1" result="back"/>
			<feBlend  in="SourceGraphic" in2="back" mode="normal"/>
		</filter>
	</defs>
	<mask maskUnits="userSpaceOnUse" x="30.6" y="3.1" width="206.2" height="113.8" id="SVGID_1_">
		<g class="st0">
			<defs>
				<filter id="Adobe_OpacityMaskFilter_1_" filterUnits="userSpaceOnUse" x="30.6" y="3.1" width="206.2" height="113.8">
					<feFlood  style="flood-color:white;flood-opacity:1" result="back"/>
					<feBlend  in="SourceGraphic" in2="back" mode="normal"/>
				</filter>
			</defs>
			<mask maskUnits="userSpaceOnUse" x="30.6" y="3.1" width="206.2" height="113.8" id="SVGID_1_">
				<g class="st1">
				</g>
			</mask>
			<linearGradient id="SVGID_2_" gradientUnits="userSpaceOnUse" x1="30.624" y1="60" x2="236.8173" y2="60">
				<stop  offset="0" style="stop-color:#FFFFFF"/>
				<stop  offset="1" style="stop-color:#1A1A1A"/>
			</linearGradient>
			<path class="st2" d="M232.1,56.2c-4.7-3.8-3.6,1-8.9,2.7c-5.3,1.8-4.8-3.2-14-7.3c-9.2-4.1-8,4.4-14.6,7.3
				c-6.6,2.9-3.7-16.4-10.1-16.4c-6.4,0-6.5,13.6-12.7,13.6c-6.2,0-8.2-54.1-19.7-50.5c-11.5,3.6-12.1,49.4-20.4,49.4
				c-8.3,0-11.9-30.8-20.8-27.7c-9,3.1-12.5,22.7-21.4,22.7S79.5,3.1,68.8,3.1c-10.7,0-12.9,19.8-19.7,36.7
				C42.3,56.6,30.6,60,30.6,60s11.7,3.4,18.5,20.3c6.8,16.8,8.9,36.7,19.7,36.7c10.7,0,11.7-47.1,20.6-47.1s12.5,19.6,21.4,22.7
				c9,3.1,12.5-27.7,20.8-27.7c8.3,0,8.9,45.8,20.4,49.4c11.5,3.6,13.4-50.5,19.7-50.5c6.2,0,6.3,13.6,12.7,13.6
				c6.4,0,3.4-19.2,10.1-16.4c6.6,2.9,5.5,11.4,14.6,7.3c9.2-4.1,8.7-9.1,14-7.3c5.3,1.8,4.2,6.6,8.9,2.7c4.7-3.8,4.7-3.8,4.7-3.8
				C236.8,60,236.7,59.9,232.1,56.2z"/>
		</g>
	</mask>
	<linearGradient id="SVGID_3_" gradientUnits="userSpaceOnUse" x1="30.624" y1="60" x2="236.8173" y2="60">
		<stop  offset="0" style="stop-color:#CF005B"/>
		<stop  offset="1" style="stop-color:#FF3C97"/>
	</linearGradient>
	<path class="st3" d="M232.1,56.2c-4.7-3.8-3.6,1-8.9,2.7c-5.3,1.8-4.8-3.2-14-7.3c-9.2-4.1-8,4.4-14.6,7.3
		c-6.6,2.9-3.7-16.4-10.1-16.4c-6.4,0-6.5,13.6-12.7,13.6c-6.2,0-8.2-54.1-19.7-50.5c-11.5,3.6-12.1,49.4-20.4,49.4
		c-8.3,0-11.9-30.8-20.8-27.7c-9,3.1-12.5,22.7-21.4,22.7S79.5,3.1,68.8,3.1c-10.7,0-12.9,19.8-19.7,36.7C42.3,56.6,30.6,60,30.6,60
		s11.7,3.4,18.5,20.3c6.8,16.8,8.9,36.7,19.7,36.7c10.7,0,11.7-47.1,20.6-47.1s12.5,19.6,21.4,22.7c9,3.1,12.5-27.7,20.8-27.7
		c8.3,0,8.9,45.8,20.4,49.4c11.5,3.6,13.4-50.5,19.7-50.5c6.2,0,6.3,13.6,12.7,13.6c6.4,0,3.4-19.2,10.1-16.4
		c6.6,2.9,5.5,11.4,14.6,7.3c9.2-4.1,8.7-9.1,14-7.3c5.3,1.8,4.2,6.6,8.9,2.7c4.7-3.8,4.7-3.8,4.7-3.8
		C236.8,60,236.7,59.9,232.1,56.2z"/>
	<defs>
		<filter id="Adobe_OpacityMaskFilter_2_" filterUnits="userSpaceOnUse" x="30.6" y="29.6" width="213.8" height="60.8">
			<feFlood  style="flood-color:white;flood-opacity:1" result="back"/>
			<feBlend  in="SourceGraphic" in2="back" mode="normal"/>
		</filter>
	</defs>
	<mask maskUnits="userSpaceOnUse" x="30.6" y="29.6" width="213.8" height="60.8" id="SVGID_4_">
		<g class="st4">
			<defs>
				<filter id="Adobe_OpacityMaskFilter_3_" filterUnits="userSpaceOnUse" x="30.6" y="29.6" width="213.8" height="60.8">
					<feFlood  style="flood-color:white;flood-opacity:1" result="back"/>
					<feBlend  in="SourceGraphic" in2="back" mode="normal"/>
				</filter>
			</defs>
			<mask maskUnits="userSpaceOnUse" x="30.6" y="29.6" width="213.8" height="60.8" id="SVGID_4_">
				<g class="st5">
				</g>
			</mask>
			<linearGradient id="SVGID_5_" gradientUnits="userSpaceOnUse" x1="30.624" y1="60" x2="244.436" y2="60">
				<stop  offset="0" style="stop-color:#FFFFFF"/>
				<stop  offset="1" style="stop-color:#4D4D4D"/>
			</linearGradient>
			<path class="st6" d="M239.5,58c-4.9-2-3.8,0.5-9.2,1.5c-5.5,0.9-5-1.7-14.5-3.9c-9.5-2.2-8.3,2.4-15.2,3.9
				c-6.9,1.5-3.8-8.7-10.4-8.7c-6.6,0-6.7,7.3-13.2,7.3c-6.5,0-8.5-28.8-20.4-26.9c-11.9,1.9-12.6,26.4-21.2,26.4
				c-8.6,0-12.3-16.4-21.6-14.8c-9.3,1.7-12.9,12.1-22.2,12.1c-9.3,0-10.3-25.1-21.4-25.1c-11.1,0-13.3,10.6-20.4,19.6
				C42.8,58.2,30.6,60,30.6,60s12.1,1.8,19.2,10.8c7.1,9,9.3,19.6,20.4,19.6c11.1,0,12.1-25.1,21.4-25.1c9.3,0,12.9,10.5,22.2,12.1
				c9.3,1.7,13-14.8,21.6-14.8c8.6,0,9.3,24.5,21.2,26.4C168.5,90.9,170.5,62,177,62c6.5,0,6.6,7.3,13.2,7.3
				c6.6,0,3.6-10.3,10.4-8.7c6.9,1.5,5.7,6.1,15.2,3.9c9.5-2.2,9-4.8,14.5-3.9c5.5,0.9,4.3,3.5,9.2,1.5c4.8-2,4.9-2,4.9-2
				C244.4,60,244.4,60,239.5,58z"/>
		</g>
	</mask>
	<linearGradient id="SVGID_6_" gradientUnits="userSpaceOnUse" x1="30.624" y1="60" x2="244.436" y2="60">
		<stop  offset="0" style="stop-color:#D844FF"/>
		<stop  offset="1" style="stop-color:#28B7FF"/>
	</linearGradient>
	<path class="st7" d="M239.5,58c-4.9-2-3.8,0.5-9.2,1.5c-5.5,0.9-5-1.7-14.5-3.9c-9.5-2.2-8.3,2.4-15.2,3.9
		c-6.9,1.5-3.8-8.7-10.4-8.7c-6.6,0-6.7,7.3-13.2,7.3c-6.5,0-8.5-28.8-20.4-26.9c-11.9,1.9-12.6,26.4-21.2,26.4
		c-8.6,0-12.3-16.4-21.6-14.8c-9.3,1.7-12.9,12.1-22.2,12.1c-9.3,0-10.3-25.1-21.4-25.1c-11.1,0-13.3,10.6-20.4,19.6
		C42.8,58.2,30.6,60,30.6,60s12.1,1.8,19.2,10.8c7.1,9,9.3,19.6,20.4,19.6c11.1,0,12.1-25.1,21.4-25.1c9.3,0,12.9,10.5,22.2,12.1
		c9.3,1.7,13-14.8,21.6-14.8c8.6,0,9.3,24.5,21.2,26.4C168.5,90.9,170.5,62,177,62c6.5,0,6.6,7.3,13.2,7.3c6.6,0,3.6-10.3,10.4-8.7
		c6.9,1.5,5.7,6.1,15.2,3.9c9.5-2.2,9-4.8,14.5-3.9c5.5,0.9,4.3,3.5,9.2,1.5c4.8-2,4.9-2,4.9-2C244.4,60,244.4,60,239.5,58z"/>
	<defs>
		<filter id="Adobe_OpacityMaskFilter_4_" filterUnits="userSpaceOnUse" x="246.4" y="58.5" width="3.6" height="3.6">
			<feFlood  style="flood-color:white;flood-opacity:1" result="back"/>
			<feBlend  in="SourceGraphic" in2="back" mode="normal"/>
		</filter>
	</defs>
	<mask maskUnits="userSpaceOnUse" x="246.4" y="58.5" width="3.6" height="3.6" id="SVGID_7_">
		<g class="st8">
			<defs>
				<filter id="Adobe_OpacityMaskFilter_5_" filterUnits="userSpaceOnUse" x="246.4" y="58.5" width="3.6" height="3.6">
					<feFlood  style="flood-color:white;flood-opacity:1" result="back"/>
					<feBlend  in="SourceGraphic" in2="back" mode="normal"/>
				</filter>
			</defs>
			<mask maskUnits="userSpaceOnUse" x="246.4" y="58.5" width="3.6" height="3.6" id="SVGID_7_">
				<g class="st9">
				</g>
			</mask>
			<linearGradient id="SVGID_8_" gradientUnits="userSpaceOnUse" x1="243.3869" y1="59.8209" x2="268.9925" y2="62.5162">
				<stop  offset="0" style="stop-color:#4D4D4D"/>
				<stop  offset="1" style="stop-color:#FFFFFF"/>
			</linearGradient>
			<path class="st10" d="M250.1,60.3c0,1-0.8,1.8-1.8,1.8c-1,0-1.8-0.8-1.8-1.8c0-1,0.8-1.8,1.8-1.8
				C249.3,58.5,250.1,59.3,250.1,60.3z"/>
		</g>
	</mask>
	<linearGradient id="SVGID_9_" gradientUnits="userSpaceOnUse" x1="243.3869" y1="59.8209" x2="268.9925" y2="62.5162">
		<stop  offset="0" style="stop-color:#28B7FF"/>
		<stop  offset="1" style="stop-color:#D844FF"/>
	</linearGradient>
	<path class="st11" d="M250.1,60.3c0,1-0.8,1.8-1.8,1.8c-1,0-1.8-0.8-1.8-1.8c0-1,0.8-1.8,1.8-1.8C249.3,58.5,250.1,59.3,250.1,60.3
		z"/>
	<defs>
		<filter id="Adobe_OpacityMaskFilter_6_" filterUnits="userSpaceOnUse" x="253.2" y="58.5" width="3.6" height="3.6">
			<feFlood  style="flood-color:white;flood-opacity:1" result="back"/>
			<feBlend  in="SourceGraphic" in2="back" mode="normal"/>
		</filter>
	</defs>
	<mask maskUnits="userSpaceOnUse" x="253.2" y="58.5" width="3.6" height="3.6" id="SVGID_10_">
		<g class="st12">
			<defs>
				<filter id="Adobe_OpacityMaskFilter_7_" filterUnits="userSpaceOnUse" x="253.2" y="58.5" width="3.6" height="3.6">
					<feFlood  style="flood-color:white;flood-opacity:1" result="back"/>
					<feBlend  in="SourceGraphic" in2="back" mode="normal"/>
				</filter>
			</defs>
			<mask maskUnits="userSpaceOnUse" x="253.2" y="58.5" width="3.6" height="3.6" id="SVGID_10_">
				<g class="st13">
				</g>
			</mask>
			<linearGradient id="SVGID_11_" gradientUnits="userSpaceOnUse" x1="243.4615" y1="59.1138" x2="269.0672" y2="61.8091">
				<stop  offset="0" style="stop-color:#4D4D4D"/>
				<stop  offset="1" style="stop-color:#FFFFFF"/>
			</linearGradient>
			<path class="st14" d="M256.9,60.3c0,1-0.8,1.8-1.8,1.8c-1,0-1.8-0.8-1.8-1.8c0-1,0.8-1.8,1.8-1.8
				C256.1,58.5,256.9,59.3,256.9,60.3z"/>
		</g>
	</mask>
	<linearGradient id="SVGID_12_" gradientUnits="userSpaceOnUse" x1="243.4615" y1="59.1138" x2="269.0672" y2="61.8091">
		<stop  offset="0" style="stop-color:#28B7FF"/>
		<stop  offset="1" style="stop-color:#D844FF"/>
	</linearGradient>
	<path class="st15" d="M256.9,60.3c0,1-0.8,1.8-1.8,1.8c-1,0-1.8-0.8-1.8-1.8c0-1,0.8-1.8,1.8-1.8C256.1,58.5,256.9,59.3,256.9,60.3
		z"/>
	<defs>
		<filter id="Adobe_OpacityMaskFilter_8_" filterUnits="userSpaceOnUse" x="260.2" y="58.5" width="3.6" height="3.6">
			<feFlood  style="flood-color:white;flood-opacity:1" result="back"/>
			<feBlend  in="SourceGraphic" in2="back" mode="normal"/>
		</filter>
	</defs>
	<mask maskUnits="userSpaceOnUse" x="260.2" y="58.5" width="3.6" height="3.6" id="SVGID_13_">
		<g class="st16">
			<defs>
				<filter id="Adobe_OpacityMaskFilter_9_" filterUnits="userSpaceOnUse" x="260.2" y="58.5" width="3.6" height="3.6">
					<feFlood  style="flood-color:white;flood-opacity:1" result="back"/>
					<feBlend  in="SourceGraphic" in2="back" mode="normal"/>
				</filter>
			</defs>
			<mask maskUnits="userSpaceOnUse" x="260.2" y="58.5" width="3.6" height="3.6" id="SVGID_13_">
				<g class="st17">
				</g>
			</mask>
			<linearGradient id="SVGID_14_" gradientUnits="userSpaceOnUse" x1="243.5361" y1="58.3896" x2="269.1446" y2="61.0852">
				<stop  offset="0" style="stop-color:#4D4D4D"/>
				<stop  offset="1" style="stop-color:#FFFFFF"/>
			</linearGradient>
			<path class="st18" d="M263.8,60.3c0,1-0.8,1.8-1.8,1.8c-1,0-1.8-0.8-1.8-1.8c0-1,0.8-1.8,1.8-1.8C263,58.5,263.8,59.3,263.8,60.3
				z"/>
		</g>
	</mask>
	<linearGradient id="SVGID_15_" gradientUnits="userSpaceOnUse" x1="243.5361" y1="58.3896" x2="269.1446" y2="61.0852">
		<stop  offset="0" style="stop-color:#28B7FF"/>
		<stop  offset="1" style="stop-color:#D844FF"/>
	</linearGradient>
	<path class="st19" d="M263.8,60.3c0,1-0.8,1.8-1.8,1.8c-1,0-1.8-0.8-1.8-1.8c0-1,0.8-1.8,1.8-1.8C263,58.5,263.8,59.3,263.8,60.3z"
		/>
</g>
</svg>
