<?xml version="1.0" encoding="utf-8"?>
<!-- Generator: Adobe Illustrator 22.0.1, SVG Export Plug-In . SVG Version: 6.00 Build 0)  -->
<svg version="1.1" id="Layer_1" xmlns="http://www.w3.org/2000/svg" xmlns:xlink="http://www.w3.org/1999/xlink" x="0px" y="0px"
	 viewBox="0 0 300 200" style="enable-background:new 0 0 300 200;" xml:space="preserve">
<style type="text/css">
	.st0{filter:url(#Adobe_OpacityMaskFilter);}
	.st1{filter:url(#Adobe_OpacityMaskFilter_1_);}
	.st2{mask:url(#SVGID_1_);fill:url(#SVGID_2_);}
	.st3{fill:url(#SVGID_3_);}
	.st4{filter:url(#Adobe_OpacityMaskFilter_2_);}
	.st5{filter:url(#Adobe_OpacityMaskFilter_3_);}
	.st6{mask:url(#SVGID_4_);fill:url(#SVGID_5_);}
	.st7{fill:url(#SVGID_6_);}
	.st8{filter:url(#Adobe_OpacityMaskFilter_4_);}
	.st9{filter:url(#Adobe_OpacityMaskFilter_5_);}
	.st10{mask:url(#SVGID_7_);fill:url(#SVGID_8_);}
	.st11{fill:url(#SVGID_9_);}
	.st12{filter:url(#Adobe_OpacityMaskFilter_6_);}
	.st13{filter:url(#Adobe_OpacityMaskFilter_7_);}
	.st14{mask:url(#SVGID_10_);fill:url(#SVGID_11_);}
	.st15{fill:url(#SVGID_12_);}
	.st16{fill:#00FFF8;}
	.st17{filter:url(#Adobe_OpacityMaskFilter_8_);}
	.st18{filter:url(#Adobe_OpacityMaskFilter_9_);}
	.st19{mask:url(#SVGID_13_);fill:url(#SVGID_14_);}
	.st20{fill:url(#SVGID_15_);}
	.st21{fill:#FF088A;}
</style>
<g>
	<defs>
		<filter id="Adobe_OpacityMaskFilter" filterUnits="userSpaceOnUse" x="6.7" y="25.2" width="187.1" height="95.4">
			<feFlood  style="flood-color:white;flood-opacity:1" result="back"/>
			<feBlend  in="SourceGraphic" in2="back" mode="normal"/>
		</filter>
	</defs>
	<mask maskUnits="userSpaceOnUse" x="6.7" y="25.2" width="187.1" height="95.4" id="SVGID_1_">
		<g class="st0">
			<defs>
				<filter id="Adobe_OpacityMaskFilter_1_" filterUnits="userSpaceOnUse" x="6.7" y="25.2" width="187.1" height="95.4">
					<feFlood  style="flood-color:white;flood-opacity:1" result="back"/>
					<feBlend  in="SourceGraphic" in2="back" mode="normal"/>
				</filter>
			</defs>
			<mask maskUnits="userSpaceOnUse" x="6.7" y="25.2" width="187.1" height="95.4" id="SVGID_1_">
				<g class="st1">
				</g>
			</mask>
			<linearGradient id="SVGID_2_" gradientUnits="userSpaceOnUse" x1="100.2354" y1="35.5617" x2="100.2354" y2="119.8806">
				<stop  offset="0" style="stop-color:#FFFFFF"/>
				<stop  offset="9.556962e-02" style="stop-color:#F0F0F0"/>
				<stop  offset="0.281" style="stop-color:#C7C7C7"/>
				<stop  offset="0.5379" style="stop-color:#858585"/>
				<stop  offset="0.8529" style="stop-color:#2C2C2C"/>
				<stop  offset="1" style="stop-color:#000000"/>
			</linearGradient>
			<polygon class="st2" points="162.7,64.1 147.5,63 112.7,45.2 81.9,83.5 68.6,72.4 53.9,83.5 37,42.4 27.8,51.3 6.7,25.2 
				6.7,120.7 193.8,120.7 186.2,106.9 			"/>
		</g>
	</mask>
	<linearGradient id="SVGID_3_" gradientUnits="userSpaceOnUse" x1="100.2354" y1="35.5617" x2="100.2354" y2="119.8806">
		<stop  offset="0" style="stop-color:#00BBBB"/>
		<stop  offset="0.4074" style="stop-color:#0FBFBF"/>
		<stop  offset="1" style="stop-color:#2DC6C6"/>
	</linearGradient>
	<polygon class="st3" points="162.7,64.1 147.5,63 112.7,45.2 81.9,83.5 68.6,72.4 53.9,83.5 37,42.4 27.8,51.3 6.7,25.2 6.7,120.7 
		193.8,120.7 186.2,106.9 	"/>
	<defs>
		<filter id="Adobe_OpacityMaskFilter_2_" filterUnits="userSpaceOnUse" x="193.8" y="120.7" width="101" height="41.3">
			<feFlood  style="flood-color:white;flood-opacity:1" result="back"/>
			<feBlend  in="SourceGraphic" in2="back" mode="normal"/>
		</filter>
	</defs>
	<mask maskUnits="userSpaceOnUse" x="193.8" y="120.7" width="101" height="41.3" id="SVGID_4_">
		<g class="st4">
			<defs>
				<filter id="Adobe_OpacityMaskFilter_3_" filterUnits="userSpaceOnUse" x="193.8" y="120.7" width="101" height="41.3">
					<feFlood  style="flood-color:white;flood-opacity:1" result="back"/>
					<feBlend  in="SourceGraphic" in2="back" mode="normal"/>
				</filter>
			</defs>
			<mask maskUnits="userSpaceOnUse" x="193.8" y="120.7" width="101" height="41.3" id="SVGID_4_">
				<g class="st5">
				</g>
			</mask>
			<linearGradient id="SVGID_5_" gradientUnits="userSpaceOnUse" x1="242.5148" y1="49.432" x2="244.9872" y2="149.3159">
				<stop  offset="0" style="stop-color:#FFFFFF"/>
				<stop  offset="0.1105" style="stop-color:#FAFAFA"/>
				<stop  offset="0.2335" style="stop-color:#EDEDED"/>
				<stop  offset="0.3625" style="stop-color:#D7D7D7"/>
				<stop  offset="0.4957" style="stop-color:#B8B8B8"/>
				<stop  offset="0.6322" style="stop-color:#8F8F8F"/>
				<stop  offset="0.7714" style="stop-color:#5E5E5E"/>
				<stop  offset="0.9101" style="stop-color:#252525"/>
				<stop  offset="0.9919" style="stop-color:#000000"/>
			</linearGradient>
			<polygon class="st6" points="193.8,120.7 216.6,162 237.6,149.1 260.4,149.5 288.9,143.2 294.8,120.7 			"/>
		</g>
	</mask>
	<linearGradient id="SVGID_6_" gradientUnits="userSpaceOnUse" x1="242.5148" y1="49.432" x2="244.9872" y2="149.3159">
		<stop  offset="0" style="stop-color:#00BBBB"/>
		<stop  offset="0.2169" style="stop-color:#05BCBC"/>
		<stop  offset="0.4581" style="stop-color:#12BFBF"/>
		<stop  offset="0.7109" style="stop-color:#28C4C4"/>
		<stop  offset="0.9702" style="stop-color:#47CBCB"/>
		<stop  offset="0.9919" style="stop-color:#4ACCCC"/>
	</linearGradient>
	<polygon class="st7" points="193.8,120.7 216.6,162 237.6,149.1 260.4,149.5 288.9,143.2 294.8,120.7 	"/>
	<defs>
		<filter id="Adobe_OpacityMaskFilter_4_" filterUnits="userSpaceOnUse" x="6.7" y="120.7" width="15.2" height="15.8">
			<feFlood  style="flood-color:white;flood-opacity:1" result="back"/>
			<feBlend  in="SourceGraphic" in2="back" mode="normal"/>
		</filter>
	</defs>
	<mask maskUnits="userSpaceOnUse" x="6.7" y="120.7" width="15.2" height="15.8" id="SVGID_7_">
		<g class="st8">
			<defs>
				<filter id="Adobe_OpacityMaskFilter_5_" filterUnits="userSpaceOnUse" x="6.7" y="120.7" width="15.2" height="15.8">
					<feFlood  style="flood-color:white;flood-opacity:1" result="back"/>
					<feBlend  in="SourceGraphic" in2="back" mode="normal"/>
				</filter>
			</defs>
			<mask maskUnits="userSpaceOnUse" x="6.7" y="120.7" width="15.2" height="15.8" id="SVGID_7_">
				<g class="st9">
				</g>
			</mask>
			<linearGradient id="SVGID_8_" gradientUnits="userSpaceOnUse" x1="2.286" y1="138.4422" x2="91.2972" y2="6.7645">
				<stop  offset="0" style="stop-color:#FFFFFF"/>
				<stop  offset="1" style="stop-color:#1A1A1A"/>
			</linearGradient>
			<polygon class="st10" points="6.7,120.7 21.9,120.7 6.7,136.5 			"/>
		</g>
	</mask>
	<linearGradient id="SVGID_9_" gradientUnits="userSpaceOnUse" x1="2.286" y1="138.4422" x2="91.2972" y2="6.7645">
		<stop  offset="0" style="stop-color:#CF005B"/>
		<stop  offset="1" style="stop-color:#FF3C97"/>
	</linearGradient>
	<polygon class="st11" points="6.7,120.7 21.9,120.7 6.7,136.5 	"/>
	<defs>
		<filter id="Adobe_OpacityMaskFilter_6_" filterUnits="userSpaceOnUse" x="21.9" y="120.7" width="159.1" height="58.7">
			<feFlood  style="flood-color:white;flood-opacity:1" result="back"/>
			<feBlend  in="SourceGraphic" in2="back" mode="normal"/>
		</filter>
	</defs>
	<mask maskUnits="userSpaceOnUse" x="21.9" y="120.7" width="159.1" height="58.7" id="SVGID_10_">
		<g class="st12">
			<defs>
				<filter id="Adobe_OpacityMaskFilter_7_" filterUnits="userSpaceOnUse" x="21.9" y="120.7" width="159.1" height="58.7">
					<feFlood  style="flood-color:white;flood-opacity:1" result="back"/>
					<feBlend  in="SourceGraphic" in2="back" mode="normal"/>
				</filter>
			</defs>
			<mask maskUnits="userSpaceOnUse" x="21.9" y="120.7" width="159.1" height="58.7" id="SVGID_10_">
				<g class="st13">
				</g>
			</mask>
			<linearGradient id="SVGID_11_" gradientUnits="userSpaceOnUse" x1="66.1731" y1="174.3254" x2="146.2626" y2="55.8458">
				<stop  offset="0" style="stop-color:#FFFFFF"/>
				<stop  offset="1" style="stop-color:#1A1A1A"/>
			</linearGradient>
			<polygon class="st14" points="55.7,179.4 82.6,172.7 89.4,179.4 147.2,128.6 168.6,134.1 178.2,127.8 180.9,120.7 21.9,120.7 			
				"/>
		</g>
	</mask>
	<linearGradient id="SVGID_12_" gradientUnits="userSpaceOnUse" x1="66.1731" y1="174.3254" x2="146.2626" y2="55.8458">
		<stop  offset="0" style="stop-color:#FF005B"/>
		<stop  offset="1" style="stop-color:#FF3C97"/>
	</linearGradient>
	<polygon class="st15" points="55.7,179.4 82.6,172.7 89.4,179.4 147.2,128.6 168.6,134.1 178.2,127.8 180.9,120.7 21.9,120.7 	"/>
	<g>
		<path class="st16" d="M216.4,163l-54.1-98.2l-14.9-1.1c-4-2-31.6-16.1-34.6-17.6L82,84.5L68.6,73.3L53.7,84.6l-16.9-41l-9,8.7
			l-21.1-26v-2.1l21.2,26l9.3-9l17,41.1l14.4-10.9l13.2,11l30.7-38.2l35.2,17.9l15.3,1.1l53.8,97.7l20.6-12.7
			c30.7,0.6,20.2,0.4,22.9,0.4l28.8-6.5l-0.4,1.6c0,0-1.2,0.3-28.4,6.3l-22.6-0.4L216.4,163z"/>
	</g>
	<defs>
		<filter id="Adobe_OpacityMaskFilter_8_" filterUnits="userSpaceOnUse" x="180.9" y="84.5" width="113.8" height="36.2">
			<feFlood  style="flood-color:white;flood-opacity:1" result="back"/>
			<feBlend  in="SourceGraphic" in2="back" mode="normal"/>
		</filter>
	</defs>
	<mask maskUnits="userSpaceOnUse" x="180.9" y="84.5" width="113.8" height="36.2" id="SVGID_13_">
		<g class="st17">
			<defs>
				<filter id="Adobe_OpacityMaskFilter_9_" filterUnits="userSpaceOnUse" x="180.9" y="84.5" width="113.8" height="36.2">
					<feFlood  style="flood-color:white;flood-opacity:1" result="back"/>
					<feBlend  in="SourceGraphic" in2="back" mode="normal"/>
				</filter>
			</defs>
			<mask maskUnits="userSpaceOnUse" x="180.9" y="84.5" width="113.8" height="36.2" id="SVGID_13_">
				<g class="st18">
				</g>
			</mask>
			<linearGradient id="SVGID_14_" gradientUnits="userSpaceOnUse" x1="238.5697" y1="86.9096" x2="237.8327" y2="122.2828">
				<stop  offset="0" style="stop-color:#FFFFFF"/>
				<stop  offset="1" style="stop-color:#1A1A1A"/>
			</linearGradient>
			<polygon class="st19" points="261.5,84.5 231.2,97.8 216,100.3 194.7,84.5 180.9,120.7 294.8,120.7 294.8,94.5 			"/>
		</g>
	</mask>
	<linearGradient id="SVGID_15_" gradientUnits="userSpaceOnUse" x1="238.5697" y1="86.9096" x2="237.8327" y2="122.2828">
		<stop  offset="0" style="stop-color:#CF005B"/>
		<stop  offset="1" style="stop-color:#FF3C97"/>
	</linearGradient>
	<polygon class="st20" points="261.5,84.5 231.2,97.8 216,100.3 194.7,84.5 180.9,120.7 294.8,120.7 294.8,94.5 	"/>
	<g>
		<path class="st21" d="M89.4,180.3l-7-6.8l-26.9,6.7l-33.7-58.3L6.7,137.5v-2l15.2-14.8L56,178.5l26.7-6.6l6.7,6.5l57.6-50.6
			c30,7.7,18.3,4.7,21.4,5.5l9.3-6.1l16.7-43.8l21.7,16.1l14.9-2.4l30.4-13.4c8.5,2.5,29.2,8.8,33.4,10v1.5l-33.3-10l-30.2,13.3
			l-15.4,2.5c-25.4-18.8-20.2-14.9-20.9-15.5l-16.3,42.7l-10,6.6l-21.3-5.5L89.4,180.3z"/>
	</g>
</g>
</svg>
